<?xml version="1.0" encoding="utf-8" standalone="no"?>
<!DOCTYPE svg PUBLIC "-//W3C//DTD SVG 1.1//EN"
  "http://www.w3.org/Graphics/SVG/1.1/DTD/svg11.dtd">
<svg xmlns:xlink="http://www.w3.org/1999/xlink" width="396.07704pt" height="216pt" viewBox="0 0 396.07704 216" xmlns="http://www.w3.org/2000/svg" version="1.1">
 <metadata>
  <rdf:RDF xmlns:dc="http://purl.org/dc/elements/1.1/" xmlns:cc="http://creativecommons.org/ns#" xmlns:rdf="http://www.w3.org/1999/02/22-rdf-syntax-ns#">
   <cc:Work>
    <dc:type rdf:resource="http://purl.org/dc/dcmitype/StillImage"/>
    <dc:date>2022-10-26T21:09:05.962978</dc:date>
    <dc:format>image/svg+xml</dc:format>
    <dc:creator>
     <cc:Agent>
      <dc:title>Matplotlib v3.6.0, https://matplotlib.org/</dc:title>
     </cc:Agent>
    </dc:creator>
   </cc:Work>
  </rdf:RDF>
 </metadata>
 <defs>
  <style type="text/css">*{stroke-linejoin: round; stroke-linecap: butt}</style>
 </defs>
 <g id="figure_1">
  <g id="patch_1">
   <path d="M 0 216
L 396.07704 216
L 396.07704 0
L 0 0
z
" style="fill: #ffffff"/>
  </g>
  <g id="axes_1">
   <g id="patch_2">
    <path d="M 37.855607 184.176947
L 393.0768 184.176947
L 393.0768 25.157069
L 37.855607 25.157069
z
" style="fill: #ffffff"/>
   </g>
   <g id="PolyCollection_1">
    <path d="M 37.855607 157.123672
L 37.855607 176.243094
L 45.318166 175.134703
L 51.338137 160.285537
L 58.676653 176.948771
L 64.30152 175.134703
L 70.24339 111.635833
L 75.591072 151.127145
L 80.837682 153.484578
L 87.314013 153.484578
L 93.436589 96.872479
L 98.8149 111.635833
L 104.50715 87.563805
L 110.386232 130.956004
L 116.17496 90.709064
L 122.629852 81.129624
L 128.417049 111.635833
L 133.720321 74.47149
L 139.685161 52.210344
L 145.020593 81.129624
L 151.006873 84.372008
L 156.855327 102.882008
L 162.85539 133.593126
L 168.264329 138.772667
L 173.840191 151.127145
L 179.269039 99.895521
L 185.682582 93.811062
L 191.881729 63.919663
L 198.276895 60.190996
L 204.064093 60.190996
L 210.399534 56.307899
L 215.777845 67.528829
L 221.205161 56.307899
L 227.607985 74.47149
L 233.575888 93.811062
L 239.975649 99.895521
L 245.513227 120.100324
L 251.050804 128.287952
L 256.589913 158.067341
L 263.403155 155.799043
L 268.94992 160.285537
L 274.490561 164.550702
L 280.456933 173.735418
L 286.435556 166.583455
L 292.401928 170.394937
L 297.951757 172.138406
L 303.922723 164.550702
L 310.74209 166.583455
L 317.143383 168.536373
L 323.111286 158.067341
L 328.648864 153.484578
L 335.039436 143.821017
L 341.021122 162.448726
L 346.995152 168.536373
L 352.972243 158.067341
L 358.952398 168.536373
L 364.923365 166.583455
L 370.898925 158.067341
L 376.871423 164.550702
L 381.986331 162.448726
L 387.110428 160.285537
L 393.0768 170.394937
L 393.0768 141.805187
L 393.0768 141.805187
L 387.110428 124.962008
L 381.986331 128.204392
L 376.871423 131.50242
L 370.898925 121.770211
L 364.923365 134.862526
L 358.952398 138.293062
L 352.972243 121.770211
L 346.995152 138.293062
L 341.021122 128.204392
L 335.039436 103.500576
L 328.648864 115.522954
L 323.111286 121.770211
L 317.143383 138.293062
L 310.74209 134.862526
L 303.922723 131.50242
L 297.951757 145.414353
L 292.401928 141.805187
L 286.435556 134.862526
L 280.456933 149.14302
L 274.490561 131.50242
L 268.94992 124.962008
L 263.403155 118.624952
L 256.589913 121.770211
L 251.050804 86.473969
L 245.513227 78.378012
L 239.975649 60.604652
L 233.575888 55.849438
L 227.607985 42.750561
L 221.205161 34.199313
L 215.777845 38.939079
L 210.399534 34.199313
L 204.064093 35.598598
L 198.276895 35.598598
L 191.881729 37.19561
L 185.682582 55.849438
L 179.269039 60.604652
L 173.840191 112.461537
L 168.264329 97.698183
L 162.85539 92.024078
L 156.855327 63.040622
L 151.006873 49.048479
L 145.020593 46.88529
L 139.685161 33.090922
L 133.720321 42.750561
L 128.417049 70.561349
L 122.629852 46.88529
L 116.17496 53.534973
L 110.386232 89.233692
L 104.50715 51.266675
L 98.8149 70.561349
L 93.436589 58.206871
L 87.314013 115.522954
L 80.837682 115.522954
L 75.591072 112.461537
L 70.24339 70.561349
L 64.30152 153.026117
L 58.676653 166.667162
L 51.338137 124.962008
L 45.318166 153.026117
L 37.855607 157.123672
z
" clip-path="url(#p437dde9903)" style="fill: #006ba4; fill-opacity: 0.3"/>
   </g>
   <g id="PolyCollection_2">
    <path d="M 37.855607 166.667162
L 37.855607 176.948771
L 45.318166 176.948771
L 51.338137 176.948771
L 58.676653 176.948771
L 64.30152 176.948771
L 70.24339 176.875589
L 75.591072 176.875589
L 80.837682 173.735418
L 87.314013 146.293394
L 93.436589 164.550702
L 98.8149 176.243094
L 104.50715 168.536373
L 110.386232 160.285537
L 116.17496 122.860047
L 122.629852 96.872479
L 128.417049 120.100324
L 133.720321 93.811062
L 139.685161 90.709064
L 145.020593 114.488591
L 151.006873 108.751049
L 156.855327 125.589254
L 162.85539 99.895521
L 168.264329 99.895521
L 173.840191 120.100324
L 179.269039 60.190996
L 185.682582 47.776858
L 191.881729 42.666854
L 198.276895 42.666854
L 204.064093 42.666854
L 210.399534 47.776858
L 215.777845 52.210344
L 221.205161 42.666854
L 227.607985 33.150679
L 233.575888 42.666854
L 239.975649 42.666854
L 245.513227 42.666854
L 251.050804 47.776858
L 256.589913 63.919663
L 263.403155 63.919663
L 268.94992 71.040954
L 274.490561 67.528829
L 280.456933 74.47149
L 286.435556 60.190996
L 292.401928 52.210344
L 297.951757 60.190996
L 303.922723 63.919663
L 310.74209 67.528829
L 317.143383 74.47149
L 323.111286 67.528829
L 328.648864 77.831596
L 335.039436 52.210344
L 341.021122 71.040954
L 346.995152 56.307899
L 352.972243 42.666854
L 358.952398 56.307899
L 364.923365 47.776858
L 370.898925 47.776858
L 376.871423 47.776858
L 381.986331 47.776858
L 387.110428 42.666854
L 393.0768 42.666854
L 393.0768 32.385245
L 393.0768 32.385245
L 387.110428 32.385245
L 381.986331 32.458427
L 376.871423 32.458427
L 370.898925 32.458427
L 364.923365 32.458427
L 358.952398 34.199313
L 352.972243 32.385245
L 346.995152 34.199313
L 341.021122 40.797643
L 335.039436 33.090922
L 328.648864 44.783314
L 323.111286 38.939079
L 317.143383 42.750561
L 310.74209 38.939079
L 303.922723 37.19561
L 297.951757 35.598598
L 292.401928 33.090922
L 286.435556 35.598598
L 280.456933 42.750561
L 274.490561 38.939079
L 268.94992 40.797643
L 263.403155 37.19561
L 256.589913 37.19561
L 251.050804 32.458427
L 245.513227 32.385245
L 239.975649 32.385245
L 233.575888 32.385245
L 227.607985 32.388731
L 221.205161 32.385245
L 215.777845 33.090922
L 210.399534 32.458427
L 204.064093 32.385245
L 198.276895 32.385245
L 191.881729 32.385245
L 185.682582 32.458427
L 179.269039 35.598598
L 173.840191 78.378012
L 168.264329 60.604652
L 162.85539 60.604652
L 156.855327 83.744762
L 151.006873 68.02031
L 145.020593 73.135136
L 139.685161 53.534973
L 133.720321 55.849438
L 128.417049 78.378012
L 122.629852 58.206871
L 116.17496 81.046064
L 110.386232 124.962008
L 104.50715 138.293062
L 98.8149 157.123672
L 93.436589 131.50242
L 87.314013 106.452008
L 80.837682 149.14302
L 75.591072 161.557158
L 70.24339 161.557158
L 64.30152 166.667162
L 58.676653 166.667162
L 51.338137 166.667162
L 45.318166 166.667162
L 37.855607 166.667162
z
" clip-path="url(#p437dde9903)" style="fill: #ff800e; fill-opacity: 0.3"/>
   </g>
   <g id="matplotlib.axis_1">
    <g id="xtick_1">
     <g id="line2d_1">
      <defs>
       <path id="m8853cc4dea" d="M 0 0
L 0 3.5
" style="stroke: #000000; stroke-width: 0.8"/>
      </defs>
      <g>
       <use xlink:href="#m8853cc4dea" x="83.496975" y="184.176947" style="stroke: #000000; stroke-width: 0.8"/>
      </g>
     </g>
     <g id="text_1">
      <!-- $\mathdefault{1}$ -->
      <g transform="translate(81.006315 197.931525) scale(0.1 -0.1)">
       <defs>
        <path id="NimbusRomNo9L-Regu-31" d="M 1862 4339
L 710 3757
L 710 3667
C 787 3699 858 3725 883 3738
C 998 3783 1107 3808 1171 3808
C 1306 3808 1363 3711 1363 3505
L 1363 592
C 1363 379 1312 232 1210 173
C 1114 116 1024 96 755 96
L 755 0
L 2522 0
L 2522 96
C 2016 96 1914 160 1914 470
L 1914 4327
L 1862 4339
z
" transform="scale(0.015625)"/>
       </defs>
       <use xlink:href="#NimbusRomNo9L-Regu-31" transform="scale(0.996264)"/>
      </g>
     </g>
    </g>
    <g id="xtick_2">
     <g id="line2d_2">
      <g>
       <use xlink:href="#m8853cc4dea" x="143.317665" y="184.176947" style="stroke: #000000; stroke-width: 0.8"/>
      </g>
     </g>
     <g id="text_2">
      <!-- $\mathdefault{2}$ -->
      <g transform="translate(140.827005 197.931525) scale(0.1 -0.1)">
       <defs>
        <path id="NimbusRomNo9L-Regu-32" d="M 3040 875
L 2957 907
C 2720 544 2637 486 2349 486
L 819 486
L 1894 1609
C 2464 2202 2714 2687 2714 3185
C 2714 3823 2195 4313 1530 4313
C 1178 4313 845 4173 608 3918
C 403 3700 307 3496 198 3043
L 333 3011
C 589 3636 819 3840 1261 3840
C 1798 3840 2163 3476 2163 2940
C 2163 2443 1869 1850 1331 1282
L 192 77
L 192 0
L 2688 0
L 3040 875
z
" transform="scale(0.015625)"/>
       </defs>
       <use xlink:href="#NimbusRomNo9L-Regu-32" transform="scale(0.996264)"/>
      </g>
     </g>
    </g>
    <g id="xtick_3">
     <g id="line2d_3">
      <g>
       <use xlink:href="#m8853cc4dea" x="203.138355" y="184.176947" style="stroke: #000000; stroke-width: 0.8"/>
      </g>
     </g>
     <g id="text_3">
      <!-- $\mathdefault{3}$ -->
      <g transform="translate(200.647695 197.931525) scale(0.1 -0.1)">
       <defs>
        <path id="NimbusRomNo9L-Regu-33" d="M 979 2138
C 1357 2138 1504 2125 1658 2068
C 2054 1927 2304 1562 2304 1120
C 2304 583 1939 167 1466 167
C 1293 167 1165 212 928 365
C 736 480 627 525 518 525
C 371 525 275 436 275 301
C 275 77 550 -64 998 -64
C 1491 -64 1997 103 2298 365
C 2598 628 2765 999 2765 1428
C 2765 1754 2662 2055 2477 2253
C 2349 2394 2227 2471 1946 2592
C 2387 2893 2547 3130 2547 3476
C 2547 3994 2138 4352 1549 4352
C 1229 4352 947 4244 717 4039
C 525 3866 429 3699 288 3315
L 384 3290
C 646 3757 934 3968 1338 3968
C 1754 3968 2042 3687 2042 3284
C 2042 3053 1946 2823 1786 2663
C 1594 2471 1414 2375 979 2221
L 979 2138
z
" transform="scale(0.015625)"/>
       </defs>
       <use xlink:href="#NimbusRomNo9L-Regu-33" transform="scale(0.996264)"/>
      </g>
     </g>
    </g>
    <g id="xtick_4">
     <g id="line2d_4">
      <g>
       <use xlink:href="#m8853cc4dea" x="262.959046" y="184.176947" style="stroke: #000000; stroke-width: 0.8"/>
      </g>
     </g>
     <g id="text_4">
      <!-- $\mathdefault{4}$ -->
      <g transform="translate(260.468386 197.931525) scale(0.1 -0.1)">
       <defs>
        <path id="NimbusRomNo9L-Regu-34" d="M 3021 1497
L 2368 1497
L 2368 4352
L 2086 4352
L 77 1497
L 77 1088
L 1875 1088
L 1875 32
L 2368 32
L 2368 1088
L 3021 1088
L 3021 1497
z
M 1869 1497
L 333 1497
L 1869 3698
L 1869 1497
z
" transform="scale(0.015625)"/>
       </defs>
       <use xlink:href="#NimbusRomNo9L-Regu-34" transform="scale(0.996264)"/>
      </g>
     </g>
    </g>
    <g id="xtick_5">
     <g id="line2d_5">
      <g>
       <use xlink:href="#m8853cc4dea" x="322.779736" y="184.176947" style="stroke: #000000; stroke-width: 0.8"/>
      </g>
     </g>
     <g id="text_5">
      <!-- $\mathdefault{5}$ -->
      <g transform="translate(320.289076 197.931525) scale(0.1 -0.1)">
       <defs>
        <path id="NimbusRomNo9L-Regu-35" d="M 1158 3776
L 2413 3776
C 2515 3776 2541 3789 2560 3834
L 2803 4403
L 2746 4448
C 2650 4314 2586 4282 2451 4282
L 1114 4282
L 416 2759
C 410 2746 410 2740 410 2727
C 410 2695 435 2676 486 2676
C 691 2676 947 2631 1210 2547
C 1946 2309 2285 1910 2285 1274
C 2285 656 1894 173 1395 173
C 1267 173 1158 218 966 360
C 762 508 614 572 480 572
C 294 572 205 495 205 334
C 205 90 506 -64 986 -64
C 1523 -64 1984 110 2304 438
C 2598 728 2733 1094 2733 1583
C 2733 2046 2611 2342 2291 2663
C 2010 2947 1645 3094 890 3229
L 1158 3776
z
" transform="scale(0.015625)"/>
       </defs>
       <use xlink:href="#NimbusRomNo9L-Regu-35" transform="scale(0.996264)"/>
      </g>
     </g>
    </g>
    <g id="xtick_6">
     <g id="line2d_6">
      <g>
       <use xlink:href="#m8853cc4dea" x="382.600426" y="184.176947" style="stroke: #000000; stroke-width: 0.8"/>
      </g>
     </g>
     <g id="text_6">
      <!-- $\mathdefault{6}$ -->
      <g transform="translate(380.109766 197.931525) scale(0.1 -0.1)">
       <defs>
        <path id="NimbusRomNo9L-Regu-36" d="M 2854 4391
C 2125 4327 1754 4205 1286 3879
C 595 3386 218 2656 218 1802
C 218 1248 390 688 666 370
C 909 89 1254 -64 1651 -64
C 2445 -64 2995 541 2995 1421
C 2995 2236 2528 2752 1792 2752
C 1510 2752 1376 2707 973 2464
C 1146 3431 1862 4122 2867 4288
L 2854 4391
z
M 1549 2458
C 2099 2458 2419 2000 2419 1204
C 2419 504 2170 116 1722 116
C 1158 116 813 714 813 1700
C 813 2025 864 2203 992 2299
C 1126 2400 1325 2458 1549 2458
z
" transform="scale(0.015625)"/>
       </defs>
       <use xlink:href="#NimbusRomNo9L-Regu-36" transform="scale(0.996264)"/>
      </g>
     </g>
    </g>
    <g id="text_7">
     <!-- Adversary training steps -->
     <g transform="translate(166.844062 210.842931) scale(0.1 -0.1)">
      <defs>
       <path id="NimbusRomNo9L-Regu-41" d="M 4518 128
C 4230 128 4166 192 3942 667
L 2349 4320
L 2221 4320
L 890 1168
C 480 231 403 128 96 128
L 96 0
L 1363 0
L 1363 128
C 1056 128 928 212 928 393
C 928 470 947 560 979 645
L 1274 1401
L 2950 1401
L 3213 778
C 3290 602 3334 434 3334 342
C 3334 180 3226 128 2886 128
L 2886 0
L 4518 0
L 4518 128
z
M 1382 1664
L 2118 3416
L 2861 1664
L 1382 1664
z
" transform="scale(0.015625)"/>
       <path id="NimbusRomNo9L-Regu-64" d="M 2202 -64
L 3142 269
L 3142 365
C 3027 365 3014 365 2995 365
C 2765 365 2714 435 2714 731
L 2714 4364
L 2682 4377
C 2374 4268 2150 4204 1741 4096
L 1741 3994
C 1792 4000 1830 4000 1882 4000
C 2118 4000 2176 3936 2176 3672
L 2176 2669
C 1933 2874 1760 2944 1504 2944
C 768 2944 173 2221 173 1312
C 173 493 653 -64 1357 -64
C 1715 -64 1958 64 2176 365
L 2176 -45
L 2202 -64
z
M 2176 653
C 2176 608 2131 531 2067 461
C 1952 333 1792 269 1606 269
C 1075 269 723 781 723 1568
C 723 2291 1037 2765 1523 2765
C 1862 2765 2176 2464 2176 2125
L 2176 653
z
" transform="scale(0.015625)"/>
       <path id="NimbusRomNo9L-Regu-76" d="M 3053 2854
L 2163 2854
L 2163 2758
C 2368 2739 2464 2675 2464 2552
C 2464 2488 2451 2424 2426 2359
L 1792 695
L 1139 2340
C 1101 2431 1082 2520 1082 2578
C 1082 2694 1152 2739 1376 2758
L 1376 2854
L 122 2854
L 122 2752
C 365 2752 410 2688 704 2024
L 1472 175
C 1485 137 1504 91 1523 40
C 1562 -76 1600 -128 1638 -128
C 1677 -128 1722 -44 1818 193
L 2637 2257
C 2822 2694 2861 2739 3053 2758
L 3053 2854
z
" transform="scale(0.015625)"/>
       <path id="NimbusRomNo9L-Regu-65" d="M 2611 1053
C 2304 564 2029 378 1619 378
C 1254 378 979 564 794 930
C 678 1174 634 1386 621 1779
L 2592 1779
C 2541 2193 2477 2377 2317 2581
C 2125 2811 1830 2944 1498 2944
C 1178 2944 877 2829 634 2611
C 333 2349 160 1894 160 1370
C 160 486 621 -64 1357 -64
C 1965 -64 2445 315 2714 1008
L 2611 1053
z
M 634 1984
C 704 2479 922 2714 1312 2714
C 1702 2714 1856 2535 1939 1984
L 634 1984
z
" transform="scale(0.015625)"/>
       <path id="NimbusRomNo9L-Regu-72" d="M 45 2496
C 134 2515 192 2522 269 2522
C 429 2522 486 2419 486 2138
L 486 538
C 486 218 442 173 32 96
L 32 0
L 1568 0
L 1568 102
C 1133 102 1024 199 1024 565
L 1024 2013
C 1024 2219 1299 2541 1472 2541
C 1510 2541 1568 2509 1638 2445
C 1741 2355 1811 2317 1894 2317
C 2048 2317 2144 2426 2144 2605
C 2144 2816 2010 2944 1792 2944
C 1523 2944 1338 2797 1024 2343
L 1024 2931
L 992 2944
C 653 2803 422 2721 45 2599
L 45 2496
z
" transform="scale(0.015625)"/>
       <path id="NimbusRomNo9L-Regu-73" d="M 2016 2010
L 1990 2880
L 1920 2880
L 1907 2867
C 1850 2822 1843 2816 1818 2816
C 1779 2816 1715 2829 1645 2861
C 1504 2915 1363 2944 1197 2944
C 691 2944 326 2616 326 2154
C 326 1796 531 1539 1075 1231
L 1446 1020
C 1670 892 1779 737 1779 539
C 1779 256 1574 77 1248 77
C 1030 77 832 159 710 298
C 576 455 518 600 435 960
L 333 960
L 333 -39
L 416 -39
C 461 33 486 48 563 48
C 621 48 710 35 858 -2
C 1037 -39 1210 -64 1325 -64
C 1818 -64 2227 308 2227 757
C 2227 1077 2074 1289 1690 1520
L 998 1930
C 819 2033 723 2194 723 2367
C 723 2624 922 2803 1216 2803
C 1581 2803 1773 2583 1920 2010
L 2016 2010
z
" transform="scale(0.015625)"/>
       <path id="NimbusRomNo9L-Regu-61" d="M 2829 423
C 2720 333 2643 301 2547 301
C 2400 301 2355 390 2355 672
L 2355 1920
C 2355 2253 2323 2438 2227 2592
C 2086 2822 1811 2944 1434 2944
C 832 2944 358 2630 358 2227
C 358 2080 486 1952 634 1952
C 787 1952 922 2080 922 2221
C 922 2246 915 2278 909 2323
C 896 2381 890 2432 890 2477
C 890 2650 1094 2790 1350 2790
C 1664 2790 1837 2605 1837 2259
L 1837 1869
C 851 1472 742 1421 467 1178
C 326 1050 237 832 237 621
C 237 218 518 -64 909 -64
C 1190 -64 1453 70 1843 403
C 1875 70 1990 -64 2253 -64
C 2470 -64 2605 13 2829 256
L 2829 423
z
M 1837 783
C 1837 584 1805 526 1670 449
C 1517 359 1338 301 1203 301
C 979 301 800 520 800 796
L 800 822
C 800 1201 1062 1433 1837 1715
L 1837 783
z
" transform="scale(0.015625)"/>
       <path id="NimbusRomNo9L-Regu-79" d="M 3040 2880
L 2176 2880
L 2176 2784
C 2381 2784 2483 2726 2483 2623
C 2483 2597 2477 2559 2458 2514
L 1837 742
L 1101 2377
C 1062 2468 1037 2552 1037 2622
C 1037 2739 1133 2784 1408 2784
L 1408 2880
L 90 2880
L 90 2790
C 256 2765 365 2694 416 2585
L 1146 1005
L 1165 953
L 1261 761
C 1440 440 1542 209 1542 112
C 1542 16 1395 -389 1286 -582
C 1197 -749 1056 -871 966 -871
C 928 -871 870 -858 806 -826
C 685 -781 576 -755 467 -755
C 320 -755 192 -883 192 -1037
C 192 -1248 397 -1408 666 -1408
C 1094 -1408 1402 -1049 1747 -124
L 2733 2495
C 2816 2701 2886 2765 3040 2784
L 3040 2880
z
" transform="scale(0.015625)"/>
       <path id="NimbusRomNo9L-Regu-74" d="M 1632 2880
L 986 2880
L 986 3622
C 986 3686 979 3706 941 3706
C 896 3648 858 3590 813 3526
C 570 3174 294 2867 192 2841
C 122 2794 83 2748 83 2715
C 83 2695 90 2682 109 2682
L 448 2682
L 448 751
C 448 212 640 -64 1018 -64
C 1331 -64 1574 90 1786 423
L 1702 493
C 1568 333 1459 269 1318 269
C 1082 269 986 443 986 847
L 986 2682
L 1632 2682
L 1632 2880
z
" transform="scale(0.015625)"/>
       <path id="NimbusRomNo9L-Regu-69" d="M 1120 2929
L 128 2579
L 128 2484
L 179 2490
C 256 2502 339 2509 397 2509
C 550 2509 608 2406 608 2125
L 608 640
C 608 179 544 109 102 109
L 102 0
L 1619 0
L 1619 96
C 1197 128 1146 191 1146 650
L 1146 2910
L 1120 2929
z
M 819 4352
C 646 4352 499 4205 499 4026
C 499 3847 640 3699 819 3699
C 1005 3699 1152 3840 1152 4026
C 1152 4205 1005 4352 819 4352
z
" transform="scale(0.015625)"/>
       <path id="NimbusRomNo9L-Regu-6e" d="M 102 2579
C 141 2598 205 2605 275 2605
C 454 2605 512 2509 512 2195
L 512 608
C 512 243 442 154 115 128
L 115 32
L 1472 32
L 1472 128
C 1146 154 1050 230 1050 461
L 1050 2259
C 1357 2547 1498 2624 1709 2624
C 2022 2624 2176 2426 2176 2003
L 2176 666
C 2176 262 2093 154 1773 128
L 1773 32
L 3104 32
L 3104 128
C 2790 160 2714 237 2714 550
L 2714 2016
C 2714 2618 2432 2976 1958 2976
C 1664 2976 1466 2867 1030 2458
L 1030 2963
L 986 2976
C 672 2861 454 2790 102 2688
L 102 2579
z
" transform="scale(0.015625)"/>
       <path id="NimbusRomNo9L-Regu-67" d="M 3008 2496
L 3008 2746
L 2515 2746
C 2387 2746 2291 2763 2163 2802
L 2022 2847
C 1850 2903 1677 2931 1510 2931
C 915 2931 442 2467 442 1881
C 442 1476 614 1230 1037 1018
C 915 906 800 799 762 768
C 550 588 467 463 467 338
C 467 206 544 131 806 6
C 352 -329 179 -543 179 -781
C 179 -1124 678 -1408 1286 -1408
C 1766 -1408 2266 -1238 2598 -962
C 2842 -759 2950 -548 2950 -299
C 2950 108 2650 384 2176 384
L 1350 384
C 1011 384 851 443 851 548
C 851 678 1062 908 1235 960
C 1293 953 1338 947 1357 947
C 1478 934 1562 928 1600 928
C 1837 928 2093 1026 2291 1203
C 2502 1387 2598 1617 2598 1945
C 2598 2135 2566 2286 2477 2496
L 3008 2496
z
M 941 -13
C 1152 -58 1664 -96 1978 -96
C 2560 -96 2771 -180 2771 -414
C 2771 -791 2285 -1043 1562 -1043
C 998 -1043 627 -855 627 -570
C 627 -420 672 -336 941 -13
z
M 973 2145
C 973 2526 1152 2752 1446 2752
C 1645 2752 1811 2642 1914 2449
C 2029 2223 2106 1927 2106 1675
C 2106 1314 1920 1088 1626 1088
C 1242 1088 973 1507 973 2126
L 973 2145
z
" transform="scale(0.015625)"/>
       <path id="NimbusRomNo9L-Regu-70" d="M 58 2516
C 115 2522 160 2522 218 2522
C 435 2522 480 2458 480 2155
L 480 -855
C 480 -1189 410 -1261 32 -1299
L 32 -1408
L 1581 -1408
L 1581 -1293
C 1101 -1293 1018 -1222 1018 -816
L 1018 199
C 1242 -13 1395 -77 1664 -77
C 2419 -77 3008 643 3008 1575
C 3008 2372 2560 2944 1939 2944
C 1581 2944 1299 2784 1018 2438
L 1018 2931
L 979 2944
C 634 2810 410 2726 58 2618
L 58 2516
z
M 1018 2136
C 1018 2329 1376 2560 1670 2560
C 2144 2560 2458 2071 2458 1324
C 2458 611 2144 128 1683 128
C 1382 128 1018 359 1018 552
L 1018 2136
z
" transform="scale(0.015625)"/>
      </defs>
      <use xlink:href="#NimbusRomNo9L-Regu-41" transform="scale(0.996264)"/>
      <use xlink:href="#NimbusRomNo9L-Regu-64" transform="translate(71.929985 0) scale(0.996264)"/>
      <use xlink:href="#NimbusRomNo9L-Regu-76" transform="translate(121.743185 0) scale(0.996264)"/>
      <use xlink:href="#NimbusRomNo9L-Regu-65" transform="translate(170.062993 0) scale(0.996264)"/>
      <use xlink:href="#NimbusRomNo9L-Regu-72" transform="translate(214.296562 0) scale(0.996264)"/>
      <use xlink:href="#NimbusRomNo9L-Regu-73" transform="translate(247.471792 0) scale(0.996264)"/>
      <use xlink:href="#NimbusRomNo9L-Regu-61" transform="translate(286.225498 0) scale(0.996264)"/>
      <use xlink:href="#NimbusRomNo9L-Regu-72" transform="translate(330.459066 0) scale(0.996264)"/>
      <use xlink:href="#NimbusRomNo9L-Regu-79" transform="translate(363.634296 0) scale(0.996264)"/>
      <use xlink:href="#NimbusRomNo9L-Regu-74" transform="translate(438.354097 0) scale(0.996264)"/>
      <use xlink:href="#NimbusRomNo9L-Regu-72" transform="translate(466.049267 0) scale(0.996264)"/>
      <use xlink:href="#NimbusRomNo9L-Regu-61" transform="translate(499.224496 0) scale(0.996264)"/>
      <use xlink:href="#NimbusRomNo9L-Regu-69" transform="translate(543.458065 0) scale(0.996264)"/>
      <use xlink:href="#NimbusRomNo9L-Regu-6e" transform="translate(571.153235 0) scale(0.996264)"/>
      <use xlink:href="#NimbusRomNo9L-Regu-69" transform="translate(620.966435 0) scale(0.996264)"/>
      <use xlink:href="#NimbusRomNo9L-Regu-6e" transform="translate(648.661605 0) scale(0.996264)"/>
      <use xlink:href="#NimbusRomNo9L-Regu-67" transform="translate(698.474805 0) scale(0.996264)"/>
      <use xlink:href="#NimbusRomNo9L-Regu-73" transform="translate(773.194606 0) scale(0.996264)"/>
      <use xlink:href="#NimbusRomNo9L-Regu-74" transform="translate(811.948312 0) scale(0.996264)"/>
      <use xlink:href="#NimbusRomNo9L-Regu-65" transform="translate(839.643482 0) scale(0.996264)"/>
      <use xlink:href="#NimbusRomNo9L-Regu-70" transform="translate(883.87705 0) scale(0.996264)"/>
      <use xlink:href="#NimbusRomNo9L-Regu-73" transform="translate(933.690251 0) scale(0.996264)"/>
     </g>
    </g>
    <g id="text_8">
     <!-- $\times\mathdefault{10^{7}}\mathdefault{}$ -->
     <g transform="translate(371.687117 210.17737) scale(0.1 -0.1)">
      <defs>
       <path id="CMSY10-2" d="M 2490 1785
L 1210 3059
C 1133 3136 1120 3148 1069 3148
C 1005 3148 941 3091 941 3020
C 941 2976 954 2963 1024 2892
L 2304 1606
L 1024 320
C 954 249 941 236 941 192
C 941 121 1005 64 1069 64
C 1120 64 1133 76 1210 153
L 2483 1427
L 3808 102
C 3821 96 3866 64 3904 64
C 3981 64 4032 121 4032 192
C 4032 204 4032 230 4013 262
C 4006 275 2989 1280 2669 1606
L 3840 2777
C 3872 2816 3968 2899 4000 2937
C 4006 2950 4032 2976 4032 3020
C 4032 3091 3981 3148 3904 3148
C 3853 3148 3827 3123 3757 3052
L 2490 1785
z
" transform="scale(0.015625)"/>
       <path id="NimbusRomNo9L-Regu-30" d="M 1626 4352
C 1274 4352 1005 4244 768 4020
C 397 3661 154 2925 154 2176
C 154 1479 365 730 666 372
C 902 90 1229 -64 1600 -64
C 1926 -64 2202 45 2432 269
C 2803 621 3046 1364 3046 2138
C 3046 3450 2464 4352 1626 4352
z
M 1606 4186
C 2144 4186 2432 3463 2432 2125
C 2432 788 2150 103 1600 103
C 1050 103 768 788 768 2119
C 768 3476 1056 4186 1606 4186
z
" transform="scale(0.015625)"/>
       <path id="NimbusRomNo9L-Regu-37" d="M 2874 4250
L 506 4250
L 128 3310
L 237 3258
C 512 3693 627 3776 979 3776
L 2368 3776
L 1101 -32
L 1517 -32
L 2874 4148
L 2874 4250
z
" transform="scale(0.015625)"/>
      </defs>
      <use xlink:href="#CMSY10-2" transform="scale(0.996264)"/>
      <use xlink:href="#NimbusRomNo9L-Regu-31" transform="translate(77.408707 0) scale(0.996264)"/>
      <use xlink:href="#NimbusRomNo9L-Regu-30" transform="translate(127.221908 0) scale(0.996264)"/>
      <use xlink:href="#NimbusRomNo9L-Regu-37" transform="translate(177.035108 36.163231) scale(0.737241)"/>
     </g>
    </g>
   </g>
   <g id="matplotlib.axis_2">
    <g id="ytick_1">
     <g id="line2d_7">
      <defs>
       <path id="m0d91d5e95b" d="M 0 0
L -3.5 0
" style="stroke: #000000; stroke-width: 0.8"/>
      </defs>
      <g>
       <use xlink:href="#m0d91d5e95b" x="37.855607" y="176.948771" style="stroke: #000000; stroke-width: 0.8"/>
      </g>
     </g>
     <g id="text_9">
      <!-- $\mathdefault{0}$ -->
      <g transform="translate(25.874287 180.32606) scale(0.1 -0.1)">
       <use xlink:href="#NimbusRomNo9L-Regu-30" transform="scale(0.996264)"/>
      </g>
     </g>
    </g>
    <g id="ytick_2">
     <g id="line2d_8">
      <g>
       <use xlink:href="#m0d91d5e95b" x="37.855607" y="148.036066" style="stroke: #000000; stroke-width: 0.8"/>
      </g>
     </g>
     <g id="text_10">
      <!-- $\mathdefault{20}$ -->
      <g transform="translate(20.892966 151.413354) scale(0.1 -0.1)">
       <use xlink:href="#NimbusRomNo9L-Regu-32" transform="scale(0.996264)"/>
       <use xlink:href="#NimbusRomNo9L-Regu-30" transform="translate(49.8132 0) scale(0.996264)"/>
      </g>
     </g>
    </g>
    <g id="ytick_3">
     <g id="line2d_9">
      <g>
       <use xlink:href="#m0d91d5e95b" x="37.855607" y="119.123361" style="stroke: #000000; stroke-width: 0.8"/>
      </g>
     </g>
     <g id="text_11">
      <!-- $\mathdefault{40}$ -->
      <g transform="translate(20.892966 122.500649) scale(0.1 -0.1)">
       <use xlink:href="#NimbusRomNo9L-Regu-34" transform="scale(0.996264)"/>
       <use xlink:href="#NimbusRomNo9L-Regu-30" transform="translate(49.8132 0) scale(0.996264)"/>
      </g>
     </g>
    </g>
    <g id="ytick_4">
     <g id="line2d_10">
      <g>
       <use xlink:href="#m0d91d5e95b" x="37.855607" y="90.210655" style="stroke: #000000; stroke-width: 0.8"/>
      </g>
     </g>
     <g id="text_12">
      <!-- $\mathdefault{60}$ -->
      <g transform="translate(20.892966 93.587944) scale(0.1 -0.1)">
       <use xlink:href="#NimbusRomNo9L-Regu-36" transform="scale(0.996264)"/>
       <use xlink:href="#NimbusRomNo9L-Regu-30" transform="translate(49.8132 0) scale(0.996264)"/>
      </g>
     </g>
    </g>
    <g id="ytick_5">
     <g id="line2d_11">
      <g>
       <use xlink:href="#m0d91d5e95b" x="37.855607" y="61.29795" style="stroke: #000000; stroke-width: 0.8"/>
      </g>
     </g>
     <g id="text_13">
      <!-- $\mathdefault{80}$ -->
      <g transform="translate(20.892966 64.675239) scale(0.1 -0.1)">
       <defs>
        <path id="NimbusRomNo9L-Regu-38" d="M 1856 2400
C 2490 2740 2714 3008 2714 3444
C 2714 3968 2253 4352 1613 4352
C 915 4352 397 3924 397 3341
C 397 2925 518 2740 1190 2151
C 499 1626 358 1428 358 992
C 358 372 864 -64 1587 -64
C 2355 -64 2848 359 2848 1018
C 2848 1511 2630 1824 1856 2400
z
M 1741 1741
C 2208 1408 2362 1178 2362 820
C 2362 404 2074 116 1658 116
C 1171 116 845 487 845 1044
C 845 1453 986 1722 1357 2023
L 1741 1741
z
M 1670 2516
C 1101 2887 870 3181 870 3540
C 870 3911 1158 4173 1562 4173
C 1997 4173 2272 3892 2272 3450
C 2272 3085 2093 2797 1728 2554
C 1696 2535 1696 2535 1670 2516
z
" transform="scale(0.015625)"/>
       </defs>
       <use xlink:href="#NimbusRomNo9L-Regu-38" transform="scale(0.996264)"/>
       <use xlink:href="#NimbusRomNo9L-Regu-30" transform="translate(49.8132 0) scale(0.996264)"/>
      </g>
     </g>
    </g>
    <g id="ytick_6">
     <g id="line2d_12">
      <g>
       <use xlink:href="#m0d91d5e95b" x="37.855607" y="32.385245" style="stroke: #000000; stroke-width: 0.8"/>
      </g>
     </g>
     <g id="text_14">
      <!-- $\mathdefault{100}$ -->
      <g transform="translate(15.911646 35.762534) scale(0.1 -0.1)">
       <use xlink:href="#NimbusRomNo9L-Regu-31" transform="scale(0.996264)"/>
       <use xlink:href="#NimbusRomNo9L-Regu-30" transform="translate(49.8132 0) scale(0.996264)"/>
       <use xlink:href="#NimbusRomNo9L-Regu-30" transform="translate(99.626401 0) scale(0.996264)"/>
      </g>
     </g>
    </g>
    <g id="text_15">
     <!-- Adversary win rate \% -->
     <g transform="translate(9.754818 148.163549) rotate(-90) scale(0.1 -0.1)">
      <defs>
       <path id="NimbusRomNo9L-Regu-77" d="M 3654 2912
L 3654 2816
C 3872 2771 3936 2726 3936 2618
C 3936 2521 3898 2367 3827 2194
L 3251 770
L 2714 2207
C 2605 2501 2605 2501 2605 2586
C 2605 2726 2675 2771 2976 2816
L 2976 2912
L 1677 2912
L 1677 2816
C 1914 2790 1990 2720 2118 2373
C 2163 2252 2208 2129 2246 2014
L 1664 738
L 1030 2412
C 1005 2476 992 2540 992 2605
C 992 2739 1069 2790 1286 2816
L 1286 2912
L 134 2912
L 134 2816
C 282 2803 333 2739 474 2412
L 1338 219
C 1414 26 1466 -64 1504 -64
C 1536 -64 1587 20 1664 186
L 2381 1725
L 2963 212
C 3053 -25 3078 -64 3117 -64
C 3162 -64 3194 -6 3296 251
L 4179 2469
C 4294 2739 4314 2771 4442 2816
L 4442 2912
L 3654 2912
z
" transform="scale(0.015625)"/>
       <path id="NimbusRomNo9L-Regu-25" d="M 4282 2368
C 3558 2368 2874 1622 2874 824
C 2874 325 3181 0 3642 0
C 3930 0 4166 102 4390 325
C 4730 670 4941 1187 4941 1686
C 4941 2120 4698 2368 4282 2368
z
M 4326 2164
C 4570 2164 4774 1934 4774 1654
C 4774 1290 4614 856 4371 556
C 4166 301 3981 192 3750 192
C 3520 192 3360 357 3360 601
C 3360 939 3539 1462 3776 1793
C 3949 2048 4128 2164 4326 2164
z
M 4058 4320
L 3808 4320
C 3462 4008 3206 3904 2810 3904
C 2554 3904 2406 3946 2253 4064
C 2086 4194 2003 4224 1805 4224
C 1075 4224 390 3468 390 2662
C 390 2217 730 1856 1146 1856
C 1421 1856 1709 1984 1920 2209
C 2253 2549 2458 3056 2458 3526
C 2458 3615 2445 3693 2413 3808
C 2528 3763 2643 3744 2829 3744
C 3110 3744 3277 3788 3533 3931
L 1286 -96
L 1594 -96
L 4058 4320
z
M 2240 3829
C 2278 3702 2298 3607 2298 3518
C 2298 2802 1773 2073 1254 2073
C 1030 2073 877 2231 877 2460
C 877 2726 1005 3157 1178 3474
C 1363 3816 1606 4032 1805 4032
C 1837 4032 1850 4025 1888 3993
C 1978 3911 2054 3879 2240 3829
z
" transform="scale(0.015625)"/>
      </defs>
      <use xlink:href="#NimbusRomNo9L-Regu-41" transform="scale(0.996264)"/>
      <use xlink:href="#NimbusRomNo9L-Regu-64" transform="translate(71.929985 0) scale(0.996264)"/>
      <use xlink:href="#NimbusRomNo9L-Regu-76" transform="translate(121.743185 0) scale(0.996264)"/>
      <use xlink:href="#NimbusRomNo9L-Regu-65" transform="translate(170.062993 0) scale(0.996264)"/>
      <use xlink:href="#NimbusRomNo9L-Regu-72" transform="translate(214.296562 0) scale(0.996264)"/>
      <use xlink:href="#NimbusRomNo9L-Regu-73" transform="translate(247.471792 0) scale(0.996264)"/>
      <use xlink:href="#NimbusRomNo9L-Regu-61" transform="translate(286.225498 0) scale(0.996264)"/>
      <use xlink:href="#NimbusRomNo9L-Regu-72" transform="translate(330.459066 0) scale(0.996264)"/>
      <use xlink:href="#NimbusRomNo9L-Regu-79" transform="translate(363.634296 0) scale(0.996264)"/>
      <use xlink:href="#NimbusRomNo9L-Regu-77" transform="translate(438.354097 0) scale(0.996264)"/>
      <use xlink:href="#NimbusRomNo9L-Regu-69" transform="translate(510.284082 0) scale(0.996264)"/>
      <use xlink:href="#NimbusRomNo9L-Regu-6e" transform="translate(537.979251 0) scale(0.996264)"/>
      <use xlink:href="#NimbusRomNo9L-Regu-72" transform="translate(612.699052 0) scale(0.996264)"/>
      <use xlink:href="#NimbusRomNo9L-Regu-61" transform="translate(645.874282 0) scale(0.996264)"/>
      <use xlink:href="#NimbusRomNo9L-Regu-74" transform="translate(690.107851 0) scale(0.996264)"/>
      <use xlink:href="#NimbusRomNo9L-Regu-65" transform="translate(717.80302 0) scale(0.996264)"/>
      <use xlink:href="#NimbusRomNo9L-Regu-25" transform="translate(786.943189 0) scale(0.996264)"/>
     </g>
    </g>
   </g>
   <g id="line2d_13">
    <path d="M 37.855607 171.16623
L 45.318166 168.274959
L 51.338137 145.144795
L 58.676653 176.948771
L 64.30152 168.274959
L 70.24339 90.210655
L 75.591072 133.579713
L 80.837682 136.470984
L 87.314013 136.470984
L 93.436589 75.754303
L 98.8149 90.210655
L 104.50715 67.080491
L 110.386232 110.449549
L 116.17496 69.971762
L 122.629852 61.29795
L 128.417049 90.210655
L 133.720321 55.515409
L 139.685161 38.167786
L 145.020593 61.29795
L 151.006873 64.189221
L 156.855327 81.536844
L 162.85539 113.34082
L 168.264329 119.123361
L 173.840191 133.579713
L 179.269039 78.645573
L 185.682582 72.863032
L 191.881729 46.841598
L 198.276895 43.950327
L 204.064093 43.950327
L 210.399534 41.059057
L 215.777845 49.732868
L 221.205161 41.059057
L 227.607985 55.515409
L 233.575888 72.863032
L 239.975649 78.645573
L 245.513227 98.884467
L 251.050804 107.558279
L 256.589913 142.253525
L 263.403155 139.362254
L 268.94992 145.144795
L 274.490561 150.927336
L 280.456933 165.383689
L 286.435556 153.818607
L 292.401928 159.601148
L 297.951757 162.492418
L 303.922723 150.927336
L 310.74209 153.818607
L 317.143383 156.709877
L 323.111286 142.253525
L 328.648864 136.470984
L 335.039436 124.905902
L 341.021122 148.036066
L 346.995152 156.709877
L 352.972243 142.253525
L 358.952398 156.709877
L 364.923365 153.818607
L 370.898925 142.253525
L 376.871423 150.927336
L 381.986331 148.036066
L 387.110428 145.144795
L 393.0768 159.601148
" clip-path="url(#p437dde9903)" style="fill: none; stroke: #006ba4; stroke-width: 1.5; stroke-linecap: square"/>
   </g>
   <g id="line2d_14">
    <defs>
     <path id="mfea6489b0a" d="M -0 4.242641
L 4.242641 0
L 0 -4.242641
L -4.242641 -0
z
" style="stroke: #006ba4; stroke-linejoin: miter"/>
    </defs>
    <g clip-path="url(#p437dde9903)">
     <use xlink:href="#mfea6489b0a" x="227.607985" y="55.515409" style="fill: #006ba4; stroke: #006ba4; stroke-linejoin: miter"/>
    </g>
   </g>
   <g id="line2d_15">
    <path d="M 37.855607 176.948771
L 45.318166 176.948771
L 51.338137 176.948771
L 58.676653 176.948771
L 64.30152 176.948771
L 70.24339 174.0575
L 75.591072 174.0575
L 80.837682 165.383689
L 87.314013 127.797172
L 93.436589 150.927336
L 98.8149 171.16623
L 104.50715 156.709877
L 110.386232 145.144795
L 116.17496 101.775737
L 122.629852 75.754303
L 128.417049 98.884467
L 133.720321 72.863032
L 139.685161 69.971762
L 145.020593 93.101926
L 151.006873 87.319385
L 156.855327 104.667008
L 162.85539 78.645573
L 168.264329 78.645573
L 173.840191 98.884467
L 179.269039 43.950327
L 185.682582 35.276516
L 191.881729 32.385245
L 198.276895 32.385245
L 204.064093 32.385245
L 210.399534 35.276516
L 215.777845 38.167786
L 221.205161 32.385245
L 227.607985 32.522925
L 233.575888 32.385245
L 239.975649 32.385245
L 245.513227 32.385245
L 251.050804 35.276516
L 256.589913 46.841598
L 263.403155 46.841598
L 268.94992 52.624139
L 274.490561 49.732868
L 280.456933 55.515409
L 286.435556 43.950327
L 292.401928 38.167786
L 297.951757 43.950327
L 303.922723 46.841598
L 310.74209 49.732868
L 317.143383 55.515409
L 323.111286 49.732868
L 328.648864 58.40668
L 335.039436 38.167786
L 341.021122 52.624139
L 346.995152 41.059057
L 352.972243 32.385245
L 358.952398 41.059057
L 364.923365 35.276516
L 370.898925 35.276516
L 376.871423 35.276516
L 381.986331 35.276516
L 387.110428 32.385245
L 393.0768 32.385245
" clip-path="url(#p437dde9903)" style="fill: none; stroke: #ff800e; stroke-width: 1.5; stroke-linecap: square"/>
   </g>
   <g id="line2d_16">
    <defs>
     <path id="m6dac210391" d="M -0 4.242641
L 4.242641 0
L 0 -4.242641
L -4.242641 -0
z
" style="stroke: #ff800e; stroke-linejoin: miter"/>
    </defs>
    <g clip-path="url(#p437dde9903)">
     <use xlink:href="#m6dac210391" x="227.607985" y="32.522925" style="fill: #ff800e; stroke: #ff800e; stroke-linejoin: miter"/>
    </g>
   </g>
   <g id="line2d_17">
    <path d="M 98.8149 184.176947
L 98.8149 25.157069
" clip-path="url(#p437dde9903)" style="fill: none; stroke-dasharray: 1,1.65; stroke-dashoffset: 0; stroke: #595959"/>
   </g>
   <g id="line2d_18">
    <path d="M 122.629852 184.176947
L 122.629852 25.157069
" clip-path="url(#p437dde9903)" style="fill: none; stroke-dasharray: 1,1.65; stroke-dashoffset: 0; stroke: #595959"/>
   </g>
   <g id="line2d_19">
    <path d="M 156.855327 184.176947
L 156.855327 25.157069
" clip-path="url(#p437dde9903)" style="fill: none; stroke-dasharray: 1,1.65; stroke-dashoffset: 0; stroke: #595959"/>
   </g>
   <g id="line2d_20">
    <path d="M 173.840191 184.176947
L 173.840191 25.157069
" clip-path="url(#p437dde9903)" style="fill: none; stroke-dasharray: 1,1.65; stroke-dashoffset: 0; stroke: #595959"/>
   </g>
   <g id="patch_3">
    <path d="M 37.855607 184.176947
L 37.855607 25.157069
" style="fill: none; stroke: #000000; stroke-width: 0.8; stroke-linejoin: miter; stroke-linecap: square"/>
   </g>
   <g id="patch_4">
    <path d="M 393.0768 184.176947
L 393.0768 25.157069
" style="fill: none; stroke: #000000; stroke-width: 0.8; stroke-linejoin: miter; stroke-linecap: square"/>
   </g>
   <g id="patch_5">
    <path d="M 37.855607 184.176947
L 393.0768 184.176947
" style="fill: none; stroke: #000000; stroke-width: 0.8; stroke-linejoin: miter; stroke-linecap: square"/>
   </g>
   <g id="patch_6">
    <path d="M 37.855607 25.157069
L 393.0768 25.157069
" style="fill: none; stroke: #000000; stroke-width: 0.8; stroke-linejoin: miter; stroke-linecap: square"/>
   </g>
   <g id="legend_1">
    <g id="patch_7">
     <path d="M 141.46899 20.157069
L 289.463416 20.157069
Q 291.463416 20.157069 291.463416 18.157069
L 291.463416 5.00024
Q 291.463416 3.00024 289.463416 3.00024
L 141.46899 3.00024
Q 139.46899 3.00024 139.46899 5.00024
L 139.46899 18.157069
Q 139.46899 20.157069 141.46899 20.157069
z
" style="fill: #ffffff; opacity: 0.8; stroke: #cccccc; stroke-linejoin: miter"/>
    </g>
    <g id="line2d_21">
     <path d="M 143.46899 10.50024
L 153.46899 10.50024
L 163.46899 10.50024
" style="fill: none; stroke: #006ba4; stroke-width: 1.5; stroke-linecap: square"/>
    </g>
    <g id="text_16">
     <!-- \texttt{Initial} -->
     <g transform="translate(171.46899 14.00024) scale(0.1 -0.1)">
      <defs>
       <path id="CMTT12-49" d="M 1856 3533
L 2509 3533
C 2598 3533 2765 3533 2765 3719
C 2765 3904 2598 3904 2509 3904
L 787 3904
C 698 3904 531 3904 531 3719
C 531 3533 698 3533 787 3533
L 1440 3533
L 1440 371
L 787 371
C 698 371 531 371 531 186
C 531 0 698 0 787 0
L 2509 0
C 2598 0 2765 0 2765 186
C 2765 371 2598 371 2509 371
L 1856 371
L 1856 3533
z
" transform="scale(0.015625)"/>
       <path id="CMTT12-6e" d="M 2675 1879
C 2675 2507 2381 2803 1856 2803
C 1421 2803 1139 2560 1030 2438
C 1030 2666 1030 2752 774 2752
L 352 2752
C 262 2752 96 2752 96 2567
C 96 2381 262 2381 352 2381
L 614 2381
L 614 371
L 352 371
C 262 371 96 371 96 186
C 96 0 262 0 352 0
L 1293 0
C 1382 0 1549 0 1549 186
C 1549 371 1382 371 1293 371
L 1030 371
L 1030 1533
C 1030 2155 1466 2432 1811 2432
C 2182 2432 2259 2219 2259 1854
L 2259 371
L 1997 371
C 1907 371 1741 371 1741 186
C 1741 0 1907 0 1997 0
L 2938 0
C 3027 0 3194 0 3194 186
C 3194 371 3027 371 2938 371
L 2675 371
L 2675 1879
z
" transform="scale(0.015625)"/>
       <path id="CMTT12-69" d="M 1933 3616
C 1933 3776 1805 3904 1645 3904
C 1485 3904 1357 3776 1357 3616
C 1357 3456 1485 3328 1645 3328
C 1805 3328 1933 3456 1933 3616
z
M 832 2752
C 742 2752 576 2752 576 2567
C 576 2381 742 2381 832 2381
L 1517 2381
L 1517 371
L 787 371
C 698 371 525 371 525 186
C 525 0 698 0 787 0
L 2566 0
C 2656 0 2822 0 2822 186
C 2822 371 2656 371 2566 371
L 1933 371
L 1933 2491
C 1933 2688 1894 2752 1677 2752
L 832 2752
z
" transform="scale(0.015625)"/>
       <path id="CMTT12-74" d="M 1382 2381
L 2419 2381
C 2509 2381 2675 2381 2675 2567
C 2675 2752 2509 2752 2419 2752
L 1382 2752
L 1382 3285
C 1382 3402 1382 3552 1178 3552
C 966 3552 966 3402 966 3285
L 966 2752
L 422 2752
C 333 2752 160 2752 160 2567
C 160 2381 326 2381 416 2381
L 966 2381
L 966 776
C 966 184 1376 -32 1837 -32
C 2182 -32 2816 139 2816 790
C 2816 918 2816 1058 2605 1058
C 2400 1058 2400 918 2400 785
C 2394 403 2029 339 1882 339
C 1382 339 1382 657 1382 809
L 1382 2381
z
" transform="scale(0.015625)"/>
       <path id="CMTT12-61" d="M 2650 1816
C 2650 2303 2285 2816 1421 2816
C 1152 2816 531 2816 531 2380
C 531 2210 653 2115 794 2115
C 832 2115 1043 2115 1050 2388
C 1050 2419 1056 2426 1190 2438
C 1267 2445 1350 2445 1427 2445
C 1574 2445 1792 2445 2003 2282
C 2234 2100 2234 1916 2234 1728
C 1856 1728 1485 1728 1088 1599
C 768 1489 358 1256 358 816
C 358 356 762 -32 1357 -32
C 1562 -32 1958 0 2291 226
C 2419 0 2739 0 2982 0
C 3136 0 3290 0 3290 183
C 3290 365 3123 365 3034 365
C 2867 365 2739 378 2650 417
L 2650 1816
z
M 2234 851
C 2234 704 2234 569 1971 448
C 1747 339 1446 339 1427 339
C 1050 339 774 544 774 806
C 774 1184 1459 1401 2234 1401
L 2234 851
z
" transform="scale(0.015625)"/>
       <path id="CMTT12-6c" d="M 1856 3642
C 1856 3840 1818 3904 1600 3904
L 659 3904
C 570 3904 403 3904 403 3719
C 403 3533 570 3533 659 3533
L 1440 3533
L 1440 371
L 659 371
C 570 371 403 371 403 186
C 403 0 570 0 659 0
L 2637 0
C 2726 0 2893 0 2893 186
C 2893 371 2726 371 2637 371
L 1856 371
L 1856 3642
z
" transform="scale(0.015625)"/>
      </defs>
      <use xlink:href="#CMTT12-49" transform="scale(0.996264)"/>
      <use xlink:href="#CMTT12-6e" transform="translate(51.266111 0) scale(0.996264)"/>
      <use xlink:href="#CMTT12-69" transform="translate(102.532222 0) scale(0.996264)"/>
      <use xlink:href="#CMTT12-74" transform="translate(153.798333 0) scale(0.996264)"/>
      <use xlink:href="#CMTT12-69" transform="translate(205.064443 0) scale(0.996264)"/>
      <use xlink:href="#CMTT12-61" transform="translate(256.330554 0) scale(0.996264)"/>
      <use xlink:href="#CMTT12-6c" transform="translate(307.596665 0) scale(0.996264)"/>
     </g>
    </g>
    <g id="line2d_22">
     <path d="M 228.081374 10.50024
L 238.081374 10.50024
L 248.081374 10.50024
" style="fill: none; stroke: #ff800e; stroke-width: 1.5; stroke-linecap: square"/>
    </g>
    <g id="text_17">
     <!-- \texttt{Latest} -->
     <g transform="translate(256.081374 14.00024) scale(0.1 -0.1)">
      <defs>
       <path id="CMTT12-4c" d="M 1107 3533
L 1440 3533
C 1530 3533 1696 3533 1696 3719
C 1696 3904 1530 3904 1440 3904
L 480 3904
C 390 3904 218 3904 218 3719
C 218 3533 390 3533 480 3533
L 691 3533
L 691 371
L 480 371
C 390 371 218 371 218 186
C 218 0 390 0 480 0
L 2810 0
C 3021 0 3066 58 3066 262
L 3066 786
C 3066 895 3066 1042 2861 1042
C 2650 1042 2650 901 2650 786
L 2650 371
L 1107 371
L 1107 3533
z
" transform="scale(0.015625)"/>
       <path id="CMTT12-65" d="M 2662 1248
C 2797 1248 2918 1248 2918 1482
C 2918 2221 2496 2816 1696 2816
C 954 2816 358 2177 358 1398
C 358 594 1005 -32 1792 -32
C 2618 -32 2918 541 2918 709
C 2918 748 2906 891 2707 891
C 2586 891 2547 845 2509 748
C 2349 371 1933 339 1811 339
C 1280 339 858 748 787 1248
L 2662 1248
z
M 794 1600
C 877 2132 1293 2445 1696 2445
C 2336 2445 2470 1913 2496 1600
L 794 1600
z
" transform="scale(0.015625)"/>
       <path id="CMTT12-73" d="M 2688 2573
C 2688 2675 2688 2816 2509 2816
C 2355 2816 2317 2669 2317 2662
C 2061 2816 1766 2816 1638 2816
C 595 2816 454 2286 454 2069
C 454 1807 608 1629 826 1507
C 1030 1392 1216 1361 1741 1278
C 1990 1233 2502 1150 2502 799
C 2502 562 2285 339 1690 339
C 1280 339 1011 499 877 960
C 845 1049 826 1120 666 1120
C 454 1120 454 998 454 870
L 454 211
C 454 108 454 -32 634 -32
C 710 -32 768 -32 864 230
C 1158 -32 1491 -32 1690 -32
C 2874 -32 2874 734 2874 798
C 2874 1461 2080 1596 1773 1640
C 1210 1736 826 1800 826 2068
C 826 2241 1024 2445 1626 2445
C 2234 2445 2259 2157 2272 1990
C 2285 1862 2400 1843 2477 1843
C 2688 1843 2688 1958 2688 2086
L 2688 2573
z
" transform="scale(0.015625)"/>
      </defs>
      <use xlink:href="#CMTT12-4c" transform="scale(0.996264)"/>
      <use xlink:href="#CMTT12-61" transform="translate(51.266111 0) scale(0.996264)"/>
      <use xlink:href="#CMTT12-74" transform="translate(102.532222 0) scale(0.996264)"/>
      <use xlink:href="#CMTT12-65" transform="translate(153.798333 0) scale(0.996264)"/>
      <use xlink:href="#CMTT12-73" transform="translate(205.064443 0) scale(0.996264)"/>
      <use xlink:href="#CMTT12-74" transform="translate(256.330554 0) scale(0.996264)"/>
     </g>
    </g>
   </g>
  </g>
 </g>
 <defs>
  <clipPath id="p437dde9903">
   <rect x="37.855607" y="25.157069" width="355.221193" height="159.019878"/>
  </clipPath>
 </defs>
</svg>
