<svg xmlns="http://www.w3.org/2000/svg" font-family="Roboto" font-size="0.5" font-weight="700" viewBox="0 0 800 800" width="800"><defs><clipPath id="board-clip"><rect height="19" width="19" x="-0.5" y="-0.5"/></clipPath><marker id="linehead" markerHeight="4" markerWidth="4" refX="2" refY="2"><circle cx="2" cy="2" r="2"/></marker><marker id="arrowhead" markerHeight="5" markerWidth="7" orient="auto" refX="7" refY="2.5"><polygon points="0 0, 7 2.5, 0 5"/></marker><radialGradient cx="35%" cy="35%" id="black-stone-fill">
<stop offset="0%" stop-color="#666"/>
<stop offset="100%" stop-color="black"/>
</radialGradient><radialGradient cx="35%" cy="35%" id="white-stone-fill">
<stop offset="0%" stop-color="#eee"/>
<stop offset="30%" stop-color="#ddd"/>
<stop offset="100%" stop-color="#bbb"/>
</radialGradient></defs><rect fill="#cfa87e" height="100%" width="100%" x="0" y="0"/><g id="diagram" transform="scale(41.4938, 41.4938)"><g id="board-view" transform="translate(0.64, 0.64)"><g clip-path="url(#board-clip)" id="goban"><g id="lines" stroke="black" stroke-linecap="square" stroke-width="0.05"><line x1="0" x2="0" y1="0" y2="18"/><line x1="1" x2="1" y1="0" y2="18"/><line x1="2" x2="2" y1="0" y2="18"/><line x1="3" x2="3" y1="0" y2="18"/><line x1="4" x2="4" y1="0" y2="18"/><line x1="5" x2="5" y1="0" y2="18"/><line x1="6" x2="6" y1="0" y2="18"/><line x1="7" x2="7" y1="0" y2="18"/><line x1="8" x2="8" y1="0" y2="18"/><line x1="9" x2="9" y1="0" y2="18"/><line x1="10" x2="10" y1="0" y2="18"/><line x1="11" x2="11" y1="0" y2="18"/><line x1="12" x2="12" y1="0" y2="18"/><line x1="13" x2="13" y1="0" y2="18"/><line x1="14" x2="14" y1="0" y2="18"/><line x1="15" x2="15" y1="0" y2="18"/><line x1="16" x2="16" y1="0" y2="18"/><line x1="17" x2="17" y1="0" y2="18"/><line x1="18" x2="18" y1="0" y2="18"/><line x1="0" x2="18" y1="0" y2="0"/><line x1="0" x2="18" y1="1" y2="1"/><line x1="0" x2="18" y1="2" y2="2"/><line x1="0" x2="18" y1="3" y2="3"/><line x1="0" x2="18" y1="4" y2="4"/><line x1="0" x2="18" y1="5" y2="5"/><line x1="0" x2="18" y1="6" y2="6"/><line x1="0" x2="18" y1="7" y2="7"/><line x1="0" x2="18" y1="8" y2="8"/><line x1="0" x2="18" y1="9" y2="9"/><line x1="0" x2="18" y1="10" y2="10"/><line x1="0" x2="18" y1="11" y2="11"/><line x1="0" x2="18" y1="12" y2="12"/><line x1="0" x2="18" y1="13" y2="13"/><line x1="0" x2="18" y1="14" y2="14"/><line x1="0" x2="18" y1="15" y2="15"/><line x1="0" x2="18" y1="16" y2="16"/><line x1="0" x2="18" y1="17" y2="17"/><line x1="0" x2="18" y1="18" y2="18"/><g fill="black" id="hoshi" stroke="none"><circle cx="3" cy="3" r="0.15"/><circle cx="3" cy="9" r="0.15"/><circle cx="3" cy="15" r="0.15"/><circle cx="9" cy="3" r="0.15"/><circle cx="9" cy="9" r="0.15"/><circle cx="9" cy="15" r="0.15"/><circle cx="15" cy="3" r="0.15"/><circle cx="15" cy="9" r="0.15"/><circle cx="15" cy="15" r="0.15"/></g></g><g id="stones" stroke="none"><circle cx="1" cy="0" fill="url(#black-stone-fill)" r="0.48"/><circle cx="3" cy="0" fill="url(#black-stone-fill)" r="0.48"/><circle cx="4" cy="0" fill="url(#black-stone-fill)" r="0.48"/><circle cx="5" cy="0" fill="url(#black-stone-fill)" r="0.48"/><circle cx="6" cy="0" fill="url(#black-stone-fill)" r="0.48"/><circle cx="7" cy="0" fill="url(#black-stone-fill)" r="0.48"/><circle cx="8" cy="0" fill="url(#white-stone-fill)" r="0.48"/><circle cx="9" cy="0" fill="url(#white-stone-fill)" r="0.48"/><circle cx="10" cy="0" fill="url(#white-stone-fill)" r="0.48"/><circle cx="11" cy="0" fill="url(#white-stone-fill)" r="0.48"/><circle cx="12" cy="0" fill="url(#white-stone-fill)" r="0.48"/><circle cx="13" cy="0" fill="url(#white-stone-fill)" r="0.48"/><circle cx="16" cy="0" fill="url(#white-stone-fill)" r="0.48"/><circle cx="18" cy="0" fill="url(#white-stone-fill)" r="0.48"/><circle cx="0" cy="1" fill="url(#black-stone-fill)" r="0.48"/><circle cx="2" cy="1" fill="url(#white-stone-fill)" r="0.48"/><circle cx="3" cy="1" fill="url(#white-stone-fill)" r="0.48"/><circle cx="4" cy="1" fill="url(#white-stone-fill)" r="0.48"/><circle cx="5" cy="1" fill="url(#white-stone-fill)" r="0.48"/><circle cx="6" cy="1" fill="url(#black-stone-fill)" r="0.48"/><circle cx="7" cy="1" fill="url(#black-stone-fill)" r="0.48"/><circle cx="8" cy="1" fill="url(#white-stone-fill)" r="0.48"/><circle cx="9" cy="1" fill="url(#white-stone-fill)" r="0.48"/><circle cx="10" cy="1" fill="url(#black-stone-fill)" r="0.48"/><circle cx="11" cy="1" fill="url(#white-stone-fill)" r="0.48"/><circle cx="12" cy="1" fill="url(#black-stone-fill)" r="0.48"/><circle cx="13" cy="1" fill="url(#white-stone-fill)" r="0.48"/><circle cx="14" cy="1" fill="url(#white-stone-fill)" r="0.48"/><circle cx="15" cy="1" fill="url(#white-stone-fill)" r="0.48"/><circle cx="16" cy="1" fill="url(#white-stone-fill)" r="0.48"/><circle cx="17" cy="1" fill="url(#white-stone-fill)" r="0.48"/><circle cx="18" cy="1" fill="url(#black-stone-fill)" r="0.48"/><circle cx="1" cy="2" fill="url(#black-stone-fill)" r="0.48"/><circle cx="2" cy="2" fill="url(#white-stone-fill)" r="0.48"/><circle cx="3" cy="2" fill="url(#black-stone-fill)" r="0.48"/><circle cx="4" cy="2" fill="url(#black-stone-fill)" r="0.48"/><circle cx="5" cy="2" fill="url(#black-stone-fill)" r="0.48"/><circle cx="6" cy="2" fill="url(#black-stone-fill)" r="0.48"/><circle cx="7" cy="2" fill="url(#white-stone-fill)" r="0.48"/><circle cx="8" cy="2" fill="url(#black-stone-fill)" r="0.48"/><circle cx="9" cy="2" fill="url(#white-stone-fill)" r="0.48"/><circle cx="10" cy="2" fill="url(#black-stone-fill)" r="0.48"/><circle cx="11" cy="2" fill="url(#black-stone-fill)" r="0.48"/><circle cx="12" cy="2" fill="url(#black-stone-fill)" r="0.48"/><circle cx="13" cy="2" fill="url(#black-stone-fill)" r="0.48"/><circle cx="14" cy="2" fill="url(#black-stone-fill)" r="0.48"/><circle cx="15" cy="2" fill="url(#black-stone-fill)" r="0.48"/><circle cx="16" cy="2" fill="url(#white-stone-fill)" r="0.48"/><circle cx="17" cy="2" fill="url(#black-stone-fill)" r="0.48"/><circle cx="18" cy="2" fill="url(#black-stone-fill)" r="0.48"/><circle cx="1" cy="3" fill="url(#white-stone-fill)" r="0.48"/><circle cx="2" cy="3" fill="url(#black-stone-fill)" r="0.48"/><circle cx="5" cy="3" fill="url(#black-stone-fill)" r="0.48"/><circle cx="6" cy="3" fill="url(#white-stone-fill)" r="0.48"/><circle cx="7" cy="3" fill="url(#white-stone-fill)" r="0.48"/><circle cx="8" cy="3" fill="url(#black-stone-fill)" r="0.48"/><circle cx="9" cy="3" fill="url(#white-stone-fill)" r="0.48"/><circle cx="10" cy="3" fill="url(#black-stone-fill)" r="0.48"/><circle cx="11" cy="3" fill="url(#white-stone-fill)" r="0.48"/><circle cx="12" cy="3" fill="url(#white-stone-fill)" r="0.48"/><circle cx="13" cy="3" fill="url(#white-stone-fill)" r="0.48"/><circle cx="14" cy="3" fill="url(#white-stone-fill)" r="0.48"/><circle cx="15" cy="3" fill="url(#black-stone-fill)" r="0.48"/><circle cx="16" cy="3" fill="url(#white-stone-fill)" r="0.48"/><circle cx="17" cy="3" fill="url(#black-stone-fill)" r="0.48"/><circle cx="18" cy="3" fill="url(#black-stone-fill)" r="0.48"/><circle cx="1" cy="4" fill="url(#white-stone-fill)" r="0.48"/><circle cx="2" cy="4" fill="url(#black-stone-fill)" r="0.48"/><circle cx="6" cy="4" fill="url(#white-stone-fill)" r="0.48"/><circle cx="7" cy="4" fill="url(#black-stone-fill)" r="0.48"/><circle cx="8" cy="4" fill="url(#black-stone-fill)" r="0.48"/><circle cx="9" cy="4" fill="url(#black-stone-fill)" r="0.48"/><circle cx="10" cy="4" fill="url(#black-stone-fill)" r="0.48"/><circle cx="11" cy="4" fill="url(#white-stone-fill)" r="0.48"/><circle cx="14" cy="4" fill="url(#white-stone-fill)" r="0.48"/><circle cx="15" cy="4" fill="url(#black-stone-fill)" r="0.48"/><circle cx="16" cy="4" fill="url(#white-stone-fill)" r="0.48"/><circle cx="17" cy="4" fill="url(#black-stone-fill)" r="0.48"/><circle cx="1" cy="5" fill="url(#white-stone-fill)" r="0.48"/><circle cx="2" cy="5" fill="url(#black-stone-fill)" r="0.48"/><circle cx="6" cy="5" fill="url(#white-stone-fill)" r="0.48"/><circle cx="7" cy="5" fill="url(#white-stone-fill)" r="0.48"/><circle cx="8" cy="5" fill="url(#white-stone-fill)" r="0.48"/><circle cx="9" cy="5" fill="url(#white-stone-fill)" r="0.48"/><circle cx="10" cy="5" fill="url(#black-stone-fill)" r="0.48"/><circle cx="11" cy="5" fill="url(#white-stone-fill)" r="0.48"/><circle cx="13" cy="5" fill="url(#black-stone-fill)" r="0.48"/><circle cx="14" cy="5" fill="url(#white-stone-fill)" r="0.48"/><circle cx="15" cy="5" fill="url(#black-stone-fill)" r="0.48"/><circle cx="16" cy="5" fill="url(#black-stone-fill)" r="0.48"/><circle cx="17" cy="5" fill="url(#black-stone-fill)" r="0.48"/><circle cx="18" cy="5" fill="url(#white-stone-fill)" r="0.48"/><circle cx="1" cy="6" fill="url(#white-stone-fill)" r="0.48"/><circle cx="2" cy="6" fill="url(#black-stone-fill)" r="0.48"/><circle cx="6" cy="6" fill="url(#white-stone-fill)" r="0.48"/><circle cx="7" cy="6" fill="url(#black-stone-fill)" r="0.48"/><circle cx="9" cy="6" fill="url(#white-stone-fill)" r="0.48"/><circle cx="10" cy="6" fill="url(#black-stone-fill)" r="0.48"/><circle cx="11" cy="6" fill="url(#white-stone-fill)" r="0.48"/><circle cx="12" cy="6" fill="url(#white-stone-fill)" r="0.48"/><circle cx="14" cy="6" fill="url(#white-stone-fill)" r="0.48"/><circle cx="15" cy="6" fill="url(#black-stone-fill)" r="0.48"/><circle cx="16" cy="6" fill="url(#white-stone-fill)" r="0.48"/><circle cx="17" cy="6" fill="url(#white-stone-fill)" r="0.48"/><circle cx="18" cy="6" fill="url(#black-stone-fill)" r="0.48"/><circle cx="1" cy="7" fill="url(#white-stone-fill)" r="0.48"/><circle cx="2" cy="7" fill="url(#black-stone-fill)" r="0.48"/><circle cx="5" cy="7" fill="url(#black-stone-fill)" r="0.48"/><circle cx="6" cy="7" fill="url(#white-stone-fill)" r="0.48"/><circle cx="7" cy="7" fill="url(#black-stone-fill)" r="0.48"/><circle cx="8" cy="7" fill="url(#white-stone-fill)" r="0.48"/><circle cx="9" cy="7" fill="url(#white-stone-fill)" r="0.48"/><circle cx="10" cy="7" fill="url(#black-stone-fill)" r="0.48"/><circle cx="11" cy="7" fill="url(#black-stone-fill)" r="0.48"/><circle cx="12" cy="7" fill="url(#black-stone-fill)" r="0.48"/><circle cx="13" cy="7" fill="url(#white-stone-fill)" r="0.48"/><circle cx="14" cy="7" fill="url(#white-stone-fill)" r="0.48"/><circle cx="15" cy="7" fill="url(#black-stone-fill)" r="0.48"/><circle cx="16" cy="7" fill="url(#black-stone-fill)" r="0.48"/><circle cx="17" cy="7" fill="url(#white-stone-fill)" r="0.48"/><circle cx="1" cy="8" fill="url(#white-stone-fill)" r="0.48"/><circle cx="2" cy="8" fill="url(#black-stone-fill)" r="0.48"/><circle cx="3" cy="8" fill="url(#black-stone-fill)" r="0.48"/><circle cx="5" cy="8" fill="url(#black-stone-fill)" r="0.48"/><circle cx="6" cy="8" fill="url(#white-stone-fill)" r="0.48"/><circle cx="8" cy="8" fill="url(#white-stone-fill)" r="0.48"/><circle cx="9" cy="8" fill="url(#black-stone-fill)" r="0.48"/><circle cx="10" cy="8" fill="url(#black-stone-fill)" r="0.48"/><circle cx="11" cy="8" fill="url(#white-stone-fill)" r="0.48"/><circle cx="12" cy="8" fill="url(#black-stone-fill)" r="0.48"/><circle cx="13" cy="8" fill="url(#black-stone-fill)" r="0.48"/><circle cx="14" cy="8" fill="url(#black-stone-fill)" r="0.48"/><circle cx="15" cy="8" fill="url(#black-stone-fill)" r="0.48"/><circle cx="16" cy="8" fill="url(#white-stone-fill)" r="0.48"/><circle cx="17" cy="8" fill="url(#white-stone-fill)" r="0.48"/><circle cx="1" cy="9" fill="url(#white-stone-fill)" r="0.48"/><circle cx="2" cy="9" fill="url(#black-stone-fill)" r="0.48"/><circle cx="5" cy="9" fill="url(#white-stone-fill)" r="0.48"/><circle cx="6" cy="9" fill="url(#white-stone-fill)" r="0.48"/><circle cx="7" cy="9" fill="url(#white-stone-fill)" r="0.48"/><circle cx="8" cy="9" fill="url(#white-stone-fill)" r="0.48"/><circle cx="9" cy="9" fill="url(#black-stone-fill)" r="0.48"/><circle cx="10" cy="9" fill="url(#white-stone-fill)" r="0.48"/><circle cx="11" cy="9" fill="url(#white-stone-fill)" r="0.48"/><circle cx="12" cy="9" fill="url(#black-stone-fill)" r="0.48"/><circle cx="13" cy="9" fill="url(#black-stone-fill)" r="0.48"/><circle cx="14" cy="9" fill="url(#white-stone-fill)" r="0.48"/><circle cx="15" cy="9" fill="url(#black-stone-fill)" r="0.48"/><circle cx="16" cy="9" fill="url(#black-stone-fill)" r="0.48"/><circle cx="17" cy="9" fill="url(#white-stone-fill)" r="0.48"/><circle cx="1" cy="10" fill="url(#white-stone-fill)" r="0.48"/><circle cx="2" cy="10" fill="url(#black-stone-fill)" r="0.48"/><circle cx="4" cy="10" fill="url(#black-stone-fill)" r="0.48"/><circle cx="5" cy="10" fill="url(#white-stone-fill)" r="0.48"/><circle cx="6" cy="10" fill="url(#black-stone-fill)" r="0.48"/><circle cx="7" cy="10" fill="url(#black-stone-fill)" r="0.48"/><circle cx="8" cy="10" fill="url(#black-stone-fill)" r="0.48"/><circle cx="9" cy="10" fill="url(#black-stone-fill)" r="0.48"/><circle cx="10" cy="10" fill="url(#black-stone-fill)" r="0.48"/><circle cx="11" cy="10" fill="url(#white-stone-fill)" r="0.48"/><circle cx="12" cy="10" fill="url(#black-stone-fill)" r="0.48"/><circle cx="13" cy="10" fill="url(#white-stone-fill)" r="0.48"/><circle cx="14" cy="10" fill="url(#white-stone-fill)" r="0.48"/><circle cx="15" cy="10" fill="url(#white-stone-fill)" r="0.48"/><circle cx="16" cy="10" fill="url(#white-stone-fill)" r="0.48"/><circle cx="17" cy="10" fill="url(#white-stone-fill)" r="0.48"/><circle cx="1" cy="11" fill="url(#white-stone-fill)" r="0.48"/><circle cx="3" cy="11" fill="url(#black-stone-fill)" r="0.48"/><circle cx="5" cy="11" fill="url(#black-stone-fill)" r="0.48"/><circle cx="6" cy="11" fill="url(#white-stone-fill)" r="0.48"/><circle cx="7" cy="11" fill="url(#white-stone-fill)" r="0.48"/><circle cx="8" cy="11" fill="url(#white-stone-fill)" r="0.48"/><circle cx="9" cy="11" fill="url(#white-stone-fill)" r="0.48"/><circle cx="10" cy="11" fill="url(#white-stone-fill)" r="0.48"/><circle cx="11" cy="11" fill="url(#white-stone-fill)" r="0.48"/><circle cx="12" cy="11" fill="url(#black-stone-fill)" r="0.48"/><circle cx="13" cy="11" fill="url(#white-stone-fill)" r="0.48"/><circle cx="14" cy="11" fill="url(#white-stone-fill)" r="0.48"/><circle cx="15" cy="11" fill="url(#black-stone-fill)" r="0.48"/><circle cx="16" cy="11" fill="url(#black-stone-fill)" r="0.48"/><circle cx="17" cy="11" fill="url(#white-stone-fill)" r="0.48"/><circle cx="1" cy="12" fill="url(#white-stone-fill)" r="0.48"/><circle cx="2" cy="12" fill="url(#black-stone-fill)" r="0.48"/><circle cx="6" cy="12" fill="url(#black-stone-fill)" r="0.48"/><circle cx="9" cy="12" fill="url(#white-stone-fill)" r="0.48"/><circle cx="11" cy="12" fill="url(#white-stone-fill)" r="0.48"/><circle cx="12" cy="12" fill="url(#white-stone-fill)" r="0.48"/><circle cx="13" cy="12" fill="url(#white-stone-fill)" r="0.48"/><circle cx="15" cy="12" fill="url(#white-stone-fill)" r="0.48"/><circle cx="16" cy="12" fill="url(#black-stone-fill)" r="0.48"/><circle cx="17" cy="12" fill="url(#black-stone-fill)" r="0.48"/><circle cx="0" cy="13" fill="url(#white-stone-fill)" r="0.48"/><circle cx="1" cy="13" fill="url(#black-stone-fill)" r="0.48"/><circle cx="2" cy="13" fill="url(#black-stone-fill)" r="0.48"/><circle cx="3" cy="13" fill="url(#black-stone-fill)" r="0.48"/><circle cx="6" cy="13" fill="url(#black-stone-fill)" r="0.48"/><circle cx="10" cy="13" fill="url(#black-stone-fill)" r="0.48"/><circle cx="13" cy="13" fill="url(#black-stone-fill)" r="0.48"/><circle cx="16" cy="13" fill="url(#black-stone-fill)" r="0.48"/><circle cx="1" cy="14" fill="url(#white-stone-fill)" r="0.48"/><circle cx="2" cy="14" fill="url(#black-stone-fill)" r="0.48"/><circle cx="13" cy="14" fill="url(#black-stone-fill)" r="0.48"/><circle cx="1" cy="15" fill="url(#white-stone-fill)" r="0.48"/><circle cx="2" cy="15" fill="url(#black-stone-fill)" r="0.48"/><circle cx="3" cy="15" fill="url(#black-stone-fill)" r="0.48"/><circle cx="4" cy="15" fill="url(#black-stone-fill)" r="0.48"/><circle cx="11" cy="15" fill="url(#black-stone-fill)" r="0.48"/><circle cx="15" cy="15" fill="url(#black-stone-fill)" r="0.48"/><circle cx="2" cy="16" fill="url(#white-stone-fill)" r="0.48"/><circle cx="3" cy="16" fill="url(#white-stone-fill)" r="0.48"/><circle cx="5" cy="16" fill="url(#black-stone-fill)" r="0.48"/><circle cx="6" cy="16" fill="url(#black-stone-fill)" r="0.48"/><circle cx="7" cy="16" fill="url(#black-stone-fill)" r="0.48"/><circle cx="8" cy="16" fill="url(#black-stone-fill)" r="0.48"/><circle cx="9" cy="16" fill="url(#black-stone-fill)" r="0.48"/><circle cx="10" cy="16" fill="url(#black-stone-fill)" r="0.48"/><circle cx="12" cy="16" fill="url(#black-stone-fill)" r="0.48"/><circle cx="13" cy="16" fill="url(#black-stone-fill)" r="0.48"/><circle cx="14" cy="16" fill="url(#black-stone-fill)" r="0.48"/><circle cx="15" cy="16" fill="url(#black-stone-fill)" r="0.48"/><circle cx="16" cy="16" fill="url(#black-stone-fill)" r="0.48"/><circle cx="2" cy="17" fill="url(#white-stone-fill)" r="0.48"/><circle cx="3" cy="17" fill="url(#black-stone-fill)" r="0.48"/><circle cx="4" cy="17" fill="url(#white-stone-fill)" r="0.48"/><circle cx="5" cy="17" fill="url(#white-stone-fill)" r="0.48"/><circle cx="6" cy="17" fill="url(#white-stone-fill)" r="0.48"/><circle cx="7" cy="17" fill="url(#white-stone-fill)" r="0.48"/><circle cx="8" cy="17" fill="url(#white-stone-fill)" r="0.48"/><circle cx="9" cy="17" fill="url(#white-stone-fill)" r="0.48"/><circle cx="10" cy="17" fill="url(#white-stone-fill)" r="0.48"/><circle cx="11" cy="17" fill="url(#white-stone-fill)" r="0.48"/><circle cx="12" cy="17" fill="url(#white-stone-fill)" r="0.48"/><circle cx="13" cy="17" fill="url(#black-stone-fill)" r="0.48"/><circle cx="17" cy="17" fill="url(#black-stone-fill)" r="0.48"/><circle cx="8" cy="18" fill="url(#black-stone-fill)" r="0.48"/><circle cx="9" cy="18" fill="url(#black-stone-fill)" r="0.48"/><circle cx="10" cy="18" fill="url(#black-stone-fill)" r="0.48"/><circle cx="11" cy="18" fill="url(#black-stone-fill)" r="0.48"/><circle cx="12" cy="18" fill="url(#black-stone-fill)" r="0.48"/><circle cx="14" cy="18" fill="url(#black-stone-fill)" r="0.48"/><circle cx="16" cy="18" fill="url(#black-stone-fill)" r="0.48"/><circle cx="17" cy="18" fill="url(#black-stone-fill)" r="0.48"/></g><g id="markup-marks"><g stroke="red" stroke-width="0.1"><line x1="5.75" x2="6.25" y1="9.75" y2="10.25"/><line x1="5.75" x2="6.25" y1="10.25" y2="9.75"/></g><g stroke="red" stroke-width="0.1"><line x1="6.75" x2="7.25" y1="3.75" y2="4.25"/><line x1="6.75" x2="7.25" y1="4.25" y2="3.75"/></g><g stroke="red" stroke-width="0.1"><line x1="6.75" x2="7.25" y1="9.75" y2="10.25"/><line x1="6.75" x2="7.25" y1="10.25" y2="9.75"/></g><g stroke="red" stroke-width="0.1"><line x1="7.75" x2="8.25" y1="1.75" y2="2.25"/><line x1="7.75" x2="8.25" y1="2.25" y2="1.75"/></g><g stroke="red" stroke-width="0.1"><line x1="7.75" x2="8.25" y1="2.75" y2="3.25"/><line x1="7.75" x2="8.25" y1="3.25" y2="2.75"/></g><g stroke="red" stroke-width="0.1"><line x1="7.75" x2="8.25" y1="3.75" y2="4.25"/><line x1="7.75" x2="8.25" y1="4.25" y2="3.75"/></g><g stroke="red" stroke-width="0.1"><line x1="7.75" x2="8.25" y1="9.75" y2="10.25"/><line x1="7.75" x2="8.25" y1="10.25" y2="9.75"/></g><g stroke="red" stroke-width="0.1"><line x1="8.75" x2="9.25" y1="3.75" y2="4.25"/><line x1="8.75" x2="9.25" y1="4.25" y2="3.75"/></g><g stroke="red" stroke-width="0.1"><line x1="8.75" x2="9.25" y1="7.75" y2="8.25"/><line x1="8.75" x2="9.25" y1="8.25" y2="7.75"/></g><g stroke="red" stroke-width="0.1"><line x1="8.75" x2="9.25" y1="8.75" y2="9.25"/><line x1="8.75" x2="9.25" y1="9.25" y2="8.75"/></g><g stroke="red" stroke-width="0.1"><line x1="8.75" x2="9.25" y1="9.75" y2="10.25"/><line x1="8.75" x2="9.25" y1="10.25" y2="9.75"/></g><g stroke="red" stroke-width="0.1"><line x1="9.75" x2="10.25" y1="0.75" y2="1.25"/><line x1="9.75" x2="10.25" y1="1.25" y2="0.75"/></g><g stroke="red" stroke-width="0.1"><line x1="9.75" x2="10.25" y1="1.75" y2="2.25"/><line x1="9.75" x2="10.25" y1="2.25" y2="1.75"/></g><g stroke="red" stroke-width="0.1"><line x1="9.75" x2="10.25" y1="2.75" y2="3.25"/><line x1="9.75" x2="10.25" y1="3.25" y2="2.75"/></g><g stroke="red" stroke-width="0.1"><line x1="9.75" x2="10.25" y1="3.75" y2="4.25"/><line x1="9.75" x2="10.25" y1="4.25" y2="3.75"/></g><g stroke="red" stroke-width="0.1"><line x1="9.75" x2="10.25" y1="4.75" y2="5.25"/><line x1="9.75" x2="10.25" y1="5.25" y2="4.75"/></g><g stroke="red" stroke-width="0.1"><line x1="9.75" x2="10.25" y1="5.75" y2="6.25"/><line x1="9.75" x2="10.25" y1="6.25" y2="5.75"/></g><g stroke="red" stroke-width="0.1"><line x1="9.75" x2="10.25" y1="6.75" y2="7.25"/><line x1="9.75" x2="10.25" y1="7.25" y2="6.75"/></g><g stroke="red" stroke-width="0.1"><line x1="9.75" x2="10.25" y1="7.75" y2="8.25"/><line x1="9.75" x2="10.25" y1="8.25" y2="7.75"/></g><g stroke="red" stroke-width="0.1"><line x1="9.75" x2="10.25" y1="9.75" y2="10.25"/><line x1="9.75" x2="10.25" y1="10.25" y2="9.75"/></g><g stroke="red" stroke-width="0.1"><line x1="10.75" x2="11.25" y1="1.75" y2="2.25"/><line x1="10.75" x2="11.25" y1="2.25" y2="1.75"/></g><g stroke="red" stroke-width="0.1"><line x1="10.75" x2="11.25" y1="6.75" y2="7.25"/><line x1="10.75" x2="11.25" y1="7.25" y2="6.75"/></g><g stroke="red" stroke-width="0.1"><line x1="11.75" x2="12.25" y1="0.75" y2="1.25"/><line x1="11.75" x2="12.25" y1="1.25" y2="0.75"/></g><g stroke="red" stroke-width="0.1"><line x1="11.75" x2="12.25" y1="1.75" y2="2.25"/><line x1="11.75" x2="12.25" y1="2.25" y2="1.75"/></g><g stroke="red" stroke-width="0.1"><line x1="11.75" x2="12.25" y1="6.75" y2="7.25"/><line x1="11.75" x2="12.25" y1="7.25" y2="6.75"/></g><g stroke="red" stroke-width="0.1"><line x1="11.75" x2="12.25" y1="7.75" y2="8.25"/><line x1="11.75" x2="12.25" y1="8.25" y2="7.75"/></g><g stroke="red" stroke-width="0.1"><line x1="11.75" x2="12.25" y1="8.75" y2="9.25"/><line x1="11.75" x2="12.25" y1="9.25" y2="8.75"/></g><g stroke="red" stroke-width="0.1"><line x1="11.75" x2="12.25" y1="9.75" y2="10.25"/><line x1="11.75" x2="12.25" y1="10.25" y2="9.75"/></g><g stroke="red" stroke-width="0.1"><line x1="11.75" x2="12.25" y1="10.75" y2="11.25"/><line x1="11.75" x2="12.25" y1="11.25" y2="10.75"/></g><g stroke="red" stroke-width="0.1"><line x1="12.75" x2="13.25" y1="1.75" y2="2.25"/><line x1="12.75" x2="13.25" y1="2.25" y2="1.75"/></g><g stroke="red" stroke-width="0.1"><line x1="12.75" x2="13.25" y1="7.75" y2="8.25"/><line x1="12.75" x2="13.25" y1="8.25" y2="7.75"/></g><g stroke="red" stroke-width="0.1"><line x1="12.75" x2="13.25" y1="8.75" y2="9.25"/><line x1="12.75" x2="13.25" y1="9.25" y2="8.75"/></g><g stroke="red" stroke-width="0.1"><line x1="13.75" x2="14.25" y1="1.75" y2="2.25"/><line x1="13.75" x2="14.25" y1="2.25" y2="1.75"/></g><g stroke="red" stroke-width="0.1"><line x1="13.75" x2="14.25" y1="7.75" y2="8.25"/><line x1="13.75" x2="14.25" y1="8.25" y2="7.75"/></g><g stroke="red" stroke-width="0.1"><line x1="14.75" x2="15.25" y1="1.75" y2="2.25"/><line x1="14.75" x2="15.25" y1="2.25" y2="1.75"/></g><g stroke="red" stroke-width="0.1"><line x1="14.75" x2="15.25" y1="2.75" y2="3.25"/><line x1="14.75" x2="15.25" y1="3.25" y2="2.75"/></g><g stroke="red" stroke-width="0.1"><line x1="14.75" x2="15.25" y1="3.75" y2="4.25"/><line x1="14.75" x2="15.25" y1="4.25" y2="3.75"/></g><g stroke="red" stroke-width="0.1"><line x1="14.75" x2="15.25" y1="4.75" y2="5.25"/><line x1="14.75" x2="15.25" y1="5.25" y2="4.75"/></g><g stroke="red" stroke-width="0.1"><line x1="14.75" x2="15.25" y1="5.75" y2="6.25"/><line x1="14.75" x2="15.25" y1="6.25" y2="5.75"/></g><g stroke="red" stroke-width="0.1"><line x1="14.75" x2="15.25" y1="6.75" y2="7.25"/><line x1="14.75" x2="15.25" y1="7.25" y2="6.75"/></g><g stroke="red" stroke-width="0.1"><line x1="14.75" x2="15.25" y1="7.75" y2="8.25"/><line x1="14.75" x2="15.25" y1="8.25" y2="7.75"/></g><g stroke="red" stroke-width="0.1"><line x1="14.75" x2="15.25" y1="8.75" y2="9.25"/><line x1="14.75" x2="15.25" y1="9.25" y2="8.75"/></g><g stroke="red" stroke-width="0.1"><line x1="15.75" x2="16.25" y1="4.75" y2="5.25"/><line x1="15.75" x2="16.25" y1="5.25" y2="4.75"/></g><g stroke="red" stroke-width="0.1"><line x1="15.75" x2="16.25" y1="6.75" y2="7.25"/><line x1="15.75" x2="16.25" y1="7.25" y2="6.75"/></g><g stroke="red" stroke-width="0.1"><line x1="15.75" x2="16.25" y1="8.75" y2="9.25"/><line x1="15.75" x2="16.25" y1="9.25" y2="8.75"/></g><g stroke="red" stroke-width="0.1"><line x1="16.75" x2="17.25" y1="1.75" y2="2.25"/><line x1="16.75" x2="17.25" y1="2.25" y2="1.75"/></g><g stroke="red" stroke-width="0.1"><line x1="16.75" x2="17.25" y1="2.75" y2="3.25"/><line x1="16.75" x2="17.25" y1="3.25" y2="2.75"/></g><g stroke="red" stroke-width="0.1"><line x1="16.75" x2="17.25" y1="3.75" y2="4.25"/><line x1="16.75" x2="17.25" y1="4.25" y2="3.75"/></g><g stroke="red" stroke-width="0.1"><line x1="16.75" x2="17.25" y1="4.75" y2="5.25"/><line x1="16.75" x2="17.25" y1="5.25" y2="4.75"/></g><g stroke="red" stroke-width="0.1"><line x1="17.75" x2="18.25" y1="0.75" y2="1.25"/><line x1="17.75" x2="18.25" y1="1.25" y2="0.75"/></g><g stroke="red" stroke-width="0.1"><line x1="17.75" x2="18.25" y1="1.75" y2="2.25"/><line x1="17.75" x2="18.25" y1="2.25" y2="1.75"/></g><g stroke="red" stroke-width="0.1"><line x1="17.75" x2="18.25" y1="2.75" y2="3.25"/><line x1="17.75" x2="18.25" y1="3.25" y2="2.75"/></g></g><g id="markup-triangles"><g fill="none" stroke="black" stroke-width="0.05"><polygon points="18,3.55 17.6103,4.225 18.3897,4.225"/></g></g><g id="markup-circles"/><g id="markup-squares"/><g id="markup-selected"/><g id="markup-dimmed"/><g id="markup-labels"/><g id="markup-lines" marker-end="url(#linehead)" marker-start="url(#linehead)" stroke="black" stroke-width="0.05"/><g id="markup-arrows" marker-end="url(#arrowhead)" stroke="black" stroke-width="0.05"/></g></g></g></svg>