<?xml version="1.0" encoding="UTF-8"?>
<svg xmlns="http://www.w3.org/2000/svg" version="1.1" viewBox="0 0 55 55">
  <defs>
    <style>
      .cls-1 {
        fill: #fd4755;
      }

      .cls-1, .cls-2, .cls-3, .cls-4, .cls-5, .cls-6, .cls-7, .cls-8, .cls-9, .cls-10, .cls-11, .cls-12, .cls-13, .cls-14, .cls-15, .cls-16 {
        stroke-width: 0px;
      }

      .cls-2 {
        fill: #edf3f4;
      }

      .cls-2, .cls-6, .cls-8, .cls-12, .cls-15 {
        fill-rule: evenodd;
      }

      .cls-3 {
        fill: #6b6968;
      }

      .cls-4 {
        fill: #90d8f9;
      }

      .cls-5 {
        fill: #c5d3dd;
      }

      .cls-6 {
        fill: #b5c4cf;
      }

      .cls-7 {
        fill: #51504e;
      }

      .cls-8, .cls-13 {
        fill: #9aafb7;
      }

      .cls-9 {
        fill: #e8edf2;
      }

      .cls-10 {
        fill: #9facba;
      }

      .cls-11 {
        fill: #75cef9;
      }

      .cls-12, .cls-14 {
        fill: #fff;
      }

      .cls-17 {
        display: none;
      }

      .cls-15 {
        fill: #d7e7ec;
      }

      .cls-16 {
        fill: #4fc123;
      }
    </style>
  </defs>
  <g id="attack-paper" class="cls-17">
    <g>
      <path class="cls-12" d="M10.3,33.5L3.7,15.1c0-.3,0-.6.3-.7,8.7-3.1,18.6-6.1,27-9.7.4-.2.7,0,.8.4l10.4,26.9,2.8,7.9c0,.3,0,.6-.3.7l-20,7.2-7.8,2.8c-.3,0-.6,0-.7-.3l-6-16.8Z"/>
      <path class="cls-12" d="M15.9,27.4l-3.3-19.4c0-.3.1-.6.4-.6l22.9-3.9,5.2-.9c.3-.1.8,0,.9.7l5.7,28.2,1.4,8.3c0,.3-.1.6-.4.6l-20.9,3.6-8.2,1.4c-.3,0-.6-.1-.6-.4l-3-17.6Z"/>
      <path class="cls-12" d="M22.3,21.7v18.6c0,.3.2.5.5.5h30.8c.3,0,.5-.2.5-.5V7.2h-5.5c-.5,0-1.6,0-1.6-1.1V.7h-24.2c-.3,0-.5.2-.5.5v20.5h0Z"/>
      <path class="cls-6" d="M13.1,11.3c-3.1,1-6.2,2.1-9.1,3.1-.3,0-.4.4-.3.7l6.6,18.5,6,16.8c0,.3.4.4.7.3l7.8-2.8,17.7-6.4L13.1,11.3Z"/>
      <path class="cls-15" d="M22.3,5.9l-9.3,1.6c-.3,0-.5.3-.4.6l.5,3.2,2.8,16.1,3,17.6c0,.3.3.5.6.4l8.2-1.4,14.9-2.6,3.5-.6h-1.8L22.3,5.9Z"/>
      <path class="cls-2" d="M54.2,31.6V7.2h0c0-.2,0-.3-.3-.5l-5.9-5.7c-.3-.3-.3-.3-.5-.3h-24.6c-.3,0-.5.2-.5.5v39.1c0,.3.2.5.5.5h30.8c.3,0,.5-.2.5-.5v-8.7Z"/>
      <path class="cls-6" d="M22.3,5.9l-2.2.4v36.1c0,.3.2.5.5.5h13.8l8.2-1.4,3.5-.6h-23.3c-.3,0-.5-.2-.5-.5V5.9h0Z"/>
      <path class="cls-8" d="M15.9,27.4l-2.8-16.1c-.7.3-1.5.5-2.2.8l.3,2,2.8,16.1,3,17.6c0,.3.3.5.6.4l8.2-1.4,3.9-.7,11.7-4.2v-.2c-.1,0-6.9,1.2-6.9,1.2l-6.8,1.2-8.2,1.4c-.3,0-.6-.1-.6-.4l-3-17.6Z"/>
      <path class="cls-15" d="M54.2,31.6V7.2c0-.3,0-.3-.3-.5l-5.9-5.7c-.3-.3-.3-.3-.5-.3h-6.4c7.4,9.9,7.8,27.6,2.3,38.7-.3.5-.5,1-.8,1.5h11.1c.3,0,.5-.2.5-.5v-8.7Z"/>
      <path class="cls-12" d="M47,6c0,1.2,1.1,1.1,1.6,1.1h5.5c0-.2,0-.3-.3-.5l-5.9-5.7c-.3-.3-.3-.3-.5-.3h-.4v5.4Z"/>
      <path class="cls-6" d="M53.9,6.7l-5.9-5.7c-.3-.3-.3-.3-.5-.3h-.4v5.4c0,1.2,1.1,1.1,1.6,1.1h5.5c0-.2,0-.3-.3-.5Z"/>
      <path class="cls-13" d="M49.3,12.5h-21.8c-.4,0-.8-.3-.8-.8s.3-.8.8-.8h21.8c.4,0,.8.3.8.8s-.3.8-.8.8Z"/>
      <path class="cls-13" d="M49.3,17.9h-21.8c-.4,0-.8-.3-.8-.8s.3-.8.8-.8h21.8c.4,0,.8.3.8.8s-.3.8-.8.8Z"/>
      <path class="cls-13" d="M49.3,23.3h-21.8c-.4,0-.8-.3-.8-.8s.3-.8.8-.8h21.8c.4,0,.8.3.8.8s-.3.8-.8.8Z"/>
      <path class="cls-13" d="M49.3,28.7h-21.8c-.4,0-.8-.3-.8-.8s.3-.8.8-.8h21.8c.4,0,.8.3.8.8s-.3.8-.8.8Z"/>
      <path class="cls-13" d="M49.3,34.2h-21.8c-.4,0-.8-.3-.8-.8s.3-.8.8-.8h21.8c.4,0,.8.3.8.8s-.3.8-.8.8Z"/>
    </g>
    <g>
      <circle class="cls-1" cx="16.2" cy="38.5" r="12.5"/>
      <g>
        <path class="cls-14" d="M12.8,43l.2-.2,6.5-6.5,4.2-5.2-5.3,4.2-6.7,6.7-1-1c-.3-.3-.7-.3-1.1,0-.3.3-.3.7,0,1.1l1,1-1.7,1.7c-.3.3-.3.7,0,1.1.2.2.3.2.5.2s.4,0,.5-.2l1.7-1.7.9.9c.2.2.4.2.5.2.2,0,.4,0,.5-.2.3-.3.3-.7,0-1.1l-.9-.9Z"/>
        <polygon class="cls-14" points="14.1 37.5 15.2 36.4 14 35.2 8.7 31 12.9 36.3 14.1 37.5"/>
        <path class="cls-14" d="M23.5,44.8l-1.7-1.7,1-1c.3-.3.3-.7,0-1.1s-.7-.3-1.1,0l-1,1-2.4-2.4-1.1,1.1,2.2,2.2.2.2-.9.9c-.3.3-.3.7,0,1.1.2.2.4.2.5.2.2,0,.4,0,.5-.2l.9-.9,1.7,1.7c.2.2.4.2.5.2.2,0,.4,0,.5-.2.3-.3.3-.8,0-1.1Z"/>
      </g>
    </g>
  </g>
  <g id="attack-blog" class="cls-17">
    <g>
      <path class="cls-9" d="M49.6,45.4H11.9c-1.1,0-2-.9-2-2V11h41.7v32.5c0,1.1-.9,2-2,2Z"/>
      <path class="cls-10" d="M44.3,27.5h-27c-.6,0-1-.5-1-1v-9.4c0-.6.5-1,1-1h27c.6,0,1,.5,1,1v9.4c0,.6-.5,1-1,1h0Z"/>
      <path class="cls-5" d="M12.6,43.4V11h-2.6v32.5c0,1.1.9,2,2,2h2.6c-1.1,0-2-.9-2-2Z"/>
      <path class="cls-4" d="M49.6,5.1H11.9c-1.1,0-2,.9-2,2v5.1h41.7v-5.1c0-1.1-.9-2-2-2Z"/>
      <path class="cls-11" d="M14.6,5.1h-2.6c-1.1,0-2,.9-2,2v5.1h2.6v-5.1c0-1.1.9-2,2-2Z"/>
      <path class="cls-11" d="M14.5,9.6h-.8c-.4,0-.8-.3-.8-.8s.3-.8.8-.8h.8c.4,0,.8.3.8.8s-.3.8-.8.8Z"/>
      <path class="cls-11" d="M18.3,9.6h-.8c-.4,0-.8-.3-.8-.8s.3-.8.8-.8h.8c.4,0,.8.3.8.8s-.3.8-.8.8Z"/>
      <path class="cls-11" d="M22,9.6h-.8c-.4,0-.8-.3-.8-.8s.3-.8.8-.8h.8c.4,0,.8.3.8.8s-.3.8-.8.8Z"/>
      <path class="cls-9" d="M25.4,25.2c-.4,0-.6-.4-.6-.7v-5.3c0-.4.3-.8.8-.8s.8.3.8.8v4.5c.3,0,.7,0,1.1,0h0c.4,0,.8.3.8.8,0,.4-.3.8-.8.8-.6,0-1.9,0-2,0h0Z"/>
      <path class="cls-9" d="M22.7,21.4c.2-.3.3-.6.3-1,0-1.1-.9-2-2-2h-1.5c-.4,0-.8.3-.8.8v5.3c0,.2,0,.4.2.5.1.1.3.2.5.2h0s1.4,0,1.8,0c1.2,0,2.2-1,2.2-2.2s-.3-1.2-.8-1.6h0ZM21,19.9c.3,0,.5.2.5.5s-.2.5-.5.5-.8,0-.8,0v-.9h.8ZM21.3,23.7c-.2,0-.6,0-1.1,0v-1.3c0,0,1.1,0,1.1,0,.4,0,.7.3.7.7,0,.4-.3.7-.7.7Z"/>
      <path class="cls-9" d="M39.8,25.2c-1.9,0-3.4-1.5-3.4-3.4s1.5-3.4,3.4-3.4,1.3.2,1.9.6c.3.2.4.7.2,1-.2.3-.7.4-1,.2-.3-.2-.7-.3-1.1-.3-1,0-1.9.8-1.9,1.9s.8,1.9,1.9,1.9,1.3-.5,1.4-1.1h-.7c-.4,0-.8-.3-.8-.8s.3-.8.8-.8h1.6c.4,0,.8.3.8.8,0,2-1.2,3.4-3,3.4h0Z"/>
      <path class="cls-9" d="M32.1,25.2c-1.9,0-3.4-1.5-3.4-3.4s1.5-3.4,3.4-3.4,3.4,1.5,3.4,3.4-1.5,3.4-3.4,3.4h0ZM32.1,19.9c-1,0-1.9.8-1.9,1.9s.8,1.9,1.9,1.9,1.9-.8,1.9-1.9-.8-1.9-1.9-1.9Z"/>
      <path class="cls-10" d="M45.3,32.8h-15.3c-.4,0-.8-.3-.8-.8s.3-.8.8-.8h15.3c.4,0,.8.3.8.8s-.3.8-.8.8Z"/>
      <path class="cls-10" d="M45.3,36.2h-15.3c-.4,0-.8-.3-.8-.8s.3-.8.8-.8h15.3c.4,0,.8.3.8.8s-.3.8-.8.8Z"/>
      <path class="cls-10" d="M45.3,39.7h-15.3c-.4,0-.8-.3-.8-.8s.3-.8.8-.8h15.3c.4,0,.8.3.8.8s-.3.8-.8.8Z"/>
    </g>
    <polygon class="cls-14" points="23.5 30.2 23.5 30.2 23.7 30.2 23.5 30.2"/>
    <g>
      <circle class="cls-1" cx="16.2" cy="38.5" r="12.5"/>
      <g>
        <path class="cls-14" d="M12.8,43l.2-.2,6.5-6.5,4.2-5.2-5.3,4.2-6.7,6.7-1-1c-.3-.3-.7-.3-1.1,0-.3.3-.3.7,0,1.1l1,1-1.7,1.7c-.3.3-.3.7,0,1.1.2.2.3.2.5.2s.4,0,.5-.2l1.7-1.7.9.9c.2.2.4.2.5.2.2,0,.4,0,.5-.2.3-.3.3-.7,0-1.1l-.9-.9Z"/>
        <polygon class="cls-14" points="14.1 37.5 15.2 36.4 14 35.2 8.7 31 12.9 36.3 14.1 37.5"/>
        <path class="cls-14" d="M23.5,44.8l-1.7-1.7,1-1c.3-.3.3-.7,0-1.1s-.7-.3-1.1,0l-1,1-2.4-2.4-1.1,1.1,2.2,2.2.2.2-.9.9c-.3.3-.3.7,0,1.1.2.2.4.2.5.2.2,0,.4,0,.5-.2l.9-.9,1.7,1.7c.2.2.4.2.5.2.2,0,.4,0,.5-.2.3-.3.3-.8,0-1.1Z"/>
      </g>
    </g>
  </g>
  <g id="attack-video" class="cls-17">
    <g>
      <g>
        <path class="cls-7" d="M52.5,5.1H14.3c-1.1,0-2,.9-2,2v36c0,1.1.9,2,2,2h38.2c1.1,0,2-.9,2-2V7.1c0-1.1-.9-2-2-2ZM18.6,41.2h-4v-3.6h4v3.6ZM18.6,12.6h-4v-3.6h4v3.6ZM27,41.2h-4v-3.6h4v3.6ZM27,12.6h-4v-3.6h4v3.6ZM35.4,41.2h-4v-3.6h4v3.6ZM35.4,12.6h-4v-3.6h4v3.6ZM43.8,41.2h-4v-3.6h4v3.6ZM43.8,12.6h-4v-3.6h4v3.6ZM52.2,41.2h-4v-3.6h4v3.6h0ZM52.2,12.6h-4v-3.6h4v3.6h0Z"/>
        <path class="cls-3" d="M52.5,5.1h-30.6c-1.5,3.7-2.4,7.7-2.4,11.9,0,12.5,7.5,23.3,18.3,28.1h14.7c1.1,0,2-.9,2-2V7.1c0-1.1-.9-2-2-2ZM27,12.6h-4v-3.6h4v3.6ZM35.4,41.2h-4v-3.6h4v3.6ZM35.4,12.6h-4v-3.6h4v3.6ZM43.8,41.2h-4v-3.6h4v3.6ZM43.8,12.6h-4v-3.6h4v3.6ZM52.2,41.2h-4v-3.6h4v3.6h0ZM52.2,12.6h-4v-3.6h4v3.6h0Z"/>
        <path class="cls-4" d="M42.3,23.9l-10.6-5.3c-.9-.4-1.9.2-1.9,1.2v10.6c0,1,1,1.6,1.9,1.2l10.6-5.3c.4-.2.7-.7.7-1.2s-.3-.9-.7-1.2Z"/>
        <path class="cls-11" d="M32.2,19.8c0-.3,0-.5.2-.8l-.8-.4c-.9-.4-1.9.2-1.9,1.2v10.6c0,1,1,1.6,1.9,1.2l.8-.4c-.3-.5-.2.1-.2-11.4Z"/>
      </g>
      <g>
        <path class="cls-7" d="M52.5,5.1H14.3c-1.1,0-2,.9-2,2v36c0,1.1.9,2,2,2h38.2c1.1,0,2-.9,2-2V7.1c0-1.1-.9-2-2-2ZM18.6,41.2h-4v-3.6h4v3.6ZM18.6,12.6h-4v-3.6h4v3.6ZM27,41.2h-4v-3.6h4v3.6ZM27,12.6h-4v-3.6h4v3.6ZM35.4,41.2h-4v-3.6h4v3.6ZM35.4,12.6h-4v-3.6h4v3.6ZM43.8,41.2h-4v-3.6h4v3.6ZM43.8,12.6h-4v-3.6h4v3.6ZM52.2,41.2h-4v-3.6h4v3.6h0ZM52.2,12.6h-4v-3.6h4v3.6h0Z"/>
        <path class="cls-3" d="M52.5,5.1h-30.6c-1.5,3.7-2.4,7.7-2.4,11.9,0,12.5,7.5,23.3,18.3,28.1h14.7c1.1,0,2-.9,2-2V7.1c0-1.1-.9-2-2-2ZM27,12.6h-4v-3.6h4v3.6ZM35.4,41.2h-4v-3.6h4v3.6ZM35.4,12.6h-4v-3.6h4v3.6ZM43.8,41.2h-4v-3.6h4v3.6ZM43.8,12.6h-4v-3.6h4v3.6ZM52.2,41.2h-4v-3.6h4v3.6h0ZM52.2,12.6h-4v-3.6h4v3.6h0Z"/>
        <path class="cls-4" d="M42.3,23.9l-10.6-5.3c-.9-.4-1.9.2-1.9,1.2v10.6c0,1,1,1.6,1.9,1.2l10.6-5.3c.4-.2.7-.7.7-1.2s-.3-.9-.7-1.2Z"/>
        <path class="cls-11" d="M32.2,19.8c0-.3,0-.5.2-.8l-.8-.4c-.9-.4-1.9.2-1.9,1.2v10.6c0,1,1,1.6,1.9,1.2l.8-.4c-.3-.5-.2.1-.2-11.4Z"/>
      </g>
      <g>
        <circle class="cls-1" cx="16.2" cy="38.5" r="12.5"/>
        <g>
          <path class="cls-14" d="M12.8,43l.2-.2,6.5-6.5,4.2-5.2-5.3,4.2-6.7,6.7-1-1c-.3-.3-.7-.3-1.1,0-.3.3-.3.7,0,1.1l1,1-1.7,1.7c-.3.3-.3.7,0,1.1.2.2.3.2.5.2s.4,0,.5-.2l1.7-1.7.9.9c.2.2.4.2.5.2.2,0,.4,0,.5-.2.3-.3.3-.7,0-1.1l-.9-.9Z"/>
          <polygon class="cls-14" points="14.1 37.5 15.2 36.4 14 35.2 8.7 31 12.9 36.3 14.1 37.5"/>
          <path class="cls-14" d="M23.5,44.8l-1.7-1.7,1-1c.3-.3.3-.7,0-1.1s-.7-.3-1.1,0l-1,1-2.4-2.4-1.1,1.1,2.2,2.2.2.2-.9.9c-.3.3-.3.7,0,1.1.2.2.4.2.5.2.2,0,.4,0,.5-.2l.9-.9,1.7,1.7c.2.2.4.2.5.2.2,0,.4,0,.5-.2.3-.3.3-.8,0-1.1Z"/>
        </g>
      </g>
    </g>
  </g>
  <g id="defense-paper" class="cls-17">
    <g>
      <g>
        <path class="cls-12" d="M10.3,33.5L3.7,15.1c0-.3,0-.6.3-.7,8.7-3.1,18.6-6.1,27-9.7.4-.2.7,0,.8.4l10.4,26.9,2.8,7.9c0,.3,0,.6-.3.7l-20,7.2-7.8,2.8c-.3,0-.6,0-.7-.3l-6-16.8Z"/>
        <path class="cls-12" d="M15.9,27.4l-3.3-19.4c0-.3.1-.6.4-.6l22.9-3.9,5.2-.9c.3-.1.8,0,.9.7l5.7,28.2,1.4,8.3c0,.3-.1.6-.4.6l-20.9,3.6-8.2,1.4c-.3,0-.6-.1-.6-.4l-3-17.6Z"/>
        <path class="cls-12" d="M22.3,21.7v18.6c0,.3.2.5.5.5h30.8c.3,0,.5-.2.5-.5V7.2h-5.5c-.5,0-1.6,0-1.6-1.1V.7h-24.2c-.3,0-.5.2-.5.5v20.5h0Z"/>
        <path class="cls-6" d="M13.1,11.3c-3.1,1-6.2,2.1-9.1,3.1-.3,0-.4.4-.3.7l6.6,18.5,6,16.8c0,.3.4.4.7.3l7.8-2.8,17.7-6.4L13.1,11.3Z"/>
        <path class="cls-15" d="M22.3,5.9l-9.3,1.6c-.3,0-.5.3-.4.6l.5,3.2,2.8,16.1,3,17.6c0,.3.3.5.6.4l8.2-1.4,14.9-2.6,3.5-.6h-1.8L22.3,5.9Z"/>
        <path class="cls-2" d="M54.2,31.6V7.2h0c0-.2,0-.3-.3-.5l-5.9-5.7c-.3-.3-.3-.3-.5-.3h-24.6c-.3,0-.5.2-.5.5v39.1c0,.3.2.5.5.5h30.8c.3,0,.5-.2.5-.5v-8.7Z"/>
        <path class="cls-6" d="M22.3,5.9l-2.2.4v36.1c0,.3.2.5.5.5h13.8l8.2-1.4,3.5-.6h-23.3c-.3,0-.5-.2-.5-.5V5.9h0Z"/>
        <path class="cls-8" d="M15.9,27.4l-2.8-16.1c-.7.3-1.5.5-2.2.8l.3,2,2.8,16.1,3,17.6c0,.3.3.5.6.4l8.2-1.4,3.9-.7,11.7-4.2v-.2c-.1,0-6.9,1.2-6.9,1.2l-6.8,1.2-8.2,1.4c-.3,0-.6-.1-.6-.4l-3-17.6Z"/>
        <path class="cls-15" d="M54.2,31.6V7.2c0-.3,0-.3-.3-.5l-5.9-5.7c-.3-.3-.3-.3-.5-.3h-6.4c7.4,9.9,7.8,27.6,2.3,38.7-.3.5-.5,1-.8,1.5h11.1c.3,0,.5-.2.5-.5v-8.7Z"/>
        <path class="cls-12" d="M47,6c0,1.2,1.1,1.1,1.6,1.1h5.5c0-.2,0-.3-.3-.5l-5.9-5.7c-.3-.3-.3-.3-.5-.3h-.4v5.4Z"/>
        <path class="cls-6" d="M53.9,6.7l-5.9-5.7c-.3-.3-.3-.3-.5-.3h-.4v5.4c0,1.2,1.1,1.1,1.6,1.1h5.5c0-.2,0-.3-.3-.5Z"/>
        <path class="cls-13" d="M49.3,12.5h-21.8c-.4,0-.8-.3-.8-.8s.3-.8.8-.8h21.8c.4,0,.8.3.8.8s-.3.8-.8.8Z"/>
        <path class="cls-13" d="M49.3,17.9h-21.8c-.4,0-.8-.3-.8-.8s.3-.8.8-.8h21.8c.4,0,.8.3.8.8s-.3.8-.8.8Z"/>
        <path class="cls-13" d="M49.3,23.3h-21.8c-.4,0-.8-.3-.8-.8s.3-.8.8-.8h21.8c.4,0,.8.3.8.8s-.3.8-.8.8Z"/>
        <path class="cls-13" d="M49.3,28.7h-21.8c-.4,0-.8-.3-.8-.8s.3-.8.8-.8h21.8c.4,0,.8.3.8.8s-.3.8-.8.8Z"/>
        <path class="cls-13" d="M49.3,34.2h-21.8c-.4,0-.8-.3-.8-.8s.3-.8.8-.8h21.8c.4,0,.8.3.8.8s-.3.8-.8.8Z"/>
      </g>
      <g>
        <circle class="cls-16" cx="16.2" cy="38.5" r="12.5"/>
        <path class="cls-14" d="M16.2,31l-6.4,2.3v5.2c0,5.9,6.2,7.4,6.3,7.5h.1s.1,0,.1,0c0,0,6.3-1.6,6.3-7.5v-5.2l-6.4-2.3Z"/>
        <path class="cls-16" d="M15.9,39.3l3.1-3.1c.3-.3.7-.3,1,0s.3.7,0,1l-3.6,3.6c-.3.3-.7.3-1,0l-2-2c-.3-.3-.3-.7,0-1s.7-.3,1,0l1.5,1.5Z"/>
      </g>
    </g>
  </g>
  <g id="defense-blog" class="cls-17">
    <g>
      <path class="cls-9" d="M49.6,45.4H11.9c-1.1,0-2-.9-2-2V11h41.7v32.5c0,1.1-.9,2-2,2Z"/>
      <path class="cls-10" d="M44.3,27.5h-27c-.6,0-1-.5-1-1v-9.4c0-.6.5-1,1-1h27c.6,0,1,.5,1,1v9.4c0,.6-.5,1-1,1h0Z"/>
      <path class="cls-5" d="M12.6,43.4V11h-2.6v32.5c0,1.1.9,2,2,2h2.6c-1.1,0-2-.9-2-2Z"/>
      <path class="cls-4" d="M49.6,5.1H11.9c-1.1,0-2,.9-2,2v5.1h41.7v-5.1c0-1.1-.9-2-2-2Z"/>
      <path class="cls-11" d="M14.6,5.1h-2.6c-1.1,0-2,.9-2,2v5.1h2.6v-5.1c0-1.1.9-2,2-2Z"/>
      <path class="cls-11" d="M14.5,9.6h-.8c-.4,0-.8-.3-.8-.8s.3-.8.8-.8h.8c.4,0,.8.3.8.8s-.3.8-.8.8Z"/>
      <path class="cls-11" d="M18.3,9.6h-.8c-.4,0-.8-.3-.8-.8s.3-.8.8-.8h.8c.4,0,.8.3.8.8s-.3.8-.8.8Z"/>
      <path class="cls-11" d="M22,9.6h-.8c-.4,0-.8-.3-.8-.8s.3-.8.8-.8h.8c.4,0,.8.3.8.8s-.3.8-.8.8Z"/>
      <path class="cls-9" d="M25.4,25.2c-.4,0-.6-.4-.6-.7v-5.3c0-.4.3-.8.8-.8s.8.3.8.8v4.5c.3,0,.7,0,1.1,0h0c.4,0,.8.3.8.8,0,.4-.3.8-.8.8-.6,0-1.9,0-2,0h0Z"/>
      <path class="cls-9" d="M22.7,21.4c.2-.3.3-.6.3-1,0-1.1-.9-2-2-2h-1.5c-.4,0-.8.3-.8.8v5.3c0,.2,0,.4.2.5.1.1.3.2.5.2h0s1.4,0,1.8,0c1.2,0,2.2-1,2.2-2.2s-.3-1.2-.8-1.6h0ZM21,19.9c.3,0,.5.2.5.5s-.2.5-.5.5-.8,0-.8,0v-.9h.8ZM21.3,23.7c-.2,0-.6,0-1.1,0v-1.3c0,0,1.1,0,1.1,0,.4,0,.7.3.7.7,0,.4-.3.7-.7.7Z"/>
      <path class="cls-9" d="M39.8,25.2c-1.9,0-3.4-1.5-3.4-3.4s1.5-3.4,3.4-3.4,1.3.2,1.9.6c.3.2.4.7.2,1-.2.3-.7.4-1,.2-.3-.2-.7-.3-1.1-.3-1,0-1.9.8-1.9,1.9s.8,1.9,1.9,1.9,1.3-.5,1.4-1.1h-.7c-.4,0-.8-.3-.8-.8s.3-.8.8-.8h1.6c.4,0,.8.3.8.8,0,2-1.2,3.4-3,3.4h0Z"/>
      <path class="cls-9" d="M32.1,25.2c-1.9,0-3.4-1.5-3.4-3.4s1.5-3.4,3.4-3.4,3.4,1.5,3.4,3.4-1.5,3.4-3.4,3.4h0ZM32.1,19.9c-1,0-1.9.8-1.9,1.9s.8,1.9,1.9,1.9,1.9-.8,1.9-1.9-.8-1.9-1.9-1.9Z"/>
      <path class="cls-10" d="M45.3,32.8h-15.3c-.4,0-.8-.3-.8-.8s.3-.8.8-.8h15.3c.4,0,.8.3.8.8s-.3.8-.8.8Z"/>
      <path class="cls-10" d="M45.3,36.2h-15.3c-.4,0-.8-.3-.8-.8s.3-.8.8-.8h15.3c.4,0,.8.3.8.8s-.3.8-.8.8Z"/>
      <path class="cls-10" d="M45.3,39.7h-15.3c-.4,0-.8-.3-.8-.8s.3-.8.8-.8h15.3c.4,0,.8.3.8.8s-.3.8-.8.8Z"/>
    </g>
    <g>
      <circle class="cls-16" cx="16.2" cy="38.5" r="12.5"/>
      <path class="cls-14" d="M16.2,31l-6.4,2.3v5.2c0,5.9,6.2,7.4,6.3,7.5h.1s.1,0,.1,0c0,0,6.3-1.6,6.3-7.5v-5.2l-6.4-2.3Z"/>
      <path class="cls-16" d="M15.9,39.3l3.1-3.1c.3-.3.7-.3,1,0s.3.7,0,1l-3.6,3.6c-.3.3-.7.3-1,0l-2-2c-.3-.3-.3-.7,0-1s.7-.3,1,0l1.5,1.5Z"/>
    </g>
  </g>
  <g id="defense-video">
    <g>
      <g>
        <path class="cls-7" d="M52.6,5.1H14.4c-1.1,0-2,.9-2,2v36c0,1.1.9,2,2,2h38.2c1.1,0,2-.9,2-2V7.1c0-1.1-.9-2-2-2ZM18.7,41.2h-4v-3.6h4v3.6ZM18.7,12.6h-4v-3.6h4v3.6ZM27.1,41.2h-4v-3.6h4v3.6ZM27.1,12.6h-4v-3.6h4v3.6ZM35.5,41.2h-4v-3.6h4v3.6ZM35.5,12.6h-4v-3.6h4v3.6ZM43.9,41.2h-4v-3.6h4v3.6ZM43.9,12.6h-4v-3.6h4v3.6ZM52.3,41.2h-4v-3.6h4v3.6h0ZM52.3,12.6h-4v-3.6h4v3.6h0Z"/>
        <path class="cls-3" d="M52.6,5.1h-30.6c-1.5,3.7-2.4,7.7-2.4,11.9,0,12.5,7.5,23.3,18.3,28.1h14.7c1.1,0,2-.9,2-2V7.1c0-1.1-.9-2-2-2ZM27.1,12.6h-4v-3.6h4v3.6ZM35.5,41.2h-4v-3.6h4v3.6ZM35.5,12.6h-4v-3.6h4v3.6ZM43.9,41.2h-4v-3.6h4v3.6ZM43.9,12.6h-4v-3.6h4v3.6ZM52.3,41.2h-4v-3.6h4v3.6h0ZM52.3,12.6h-4v-3.6h4v3.6h0Z"/>
        <path class="cls-4" d="M42.4,23.9l-10.6-5.3c-.9-.4-1.9.2-1.9,1.2v10.6c0,1,1,1.6,1.9,1.2l10.6-5.3c.4-.2.7-.7.7-1.2s-.3-.9-.7-1.2Z"/>
        <path class="cls-11" d="M32.3,19.8c0-.3,0-.5.2-.8l-.8-.4c-.9-.4-1.9.2-1.9,1.2v10.6c0,1,1,1.6,1.9,1.2l.8-.4c-.3-.5-.2.1-.2-11.4Z"/>
      </g>
      <g>
        <path class="cls-7" d="M52.6,5.1H14.4c-1.1,0-2,.9-2,2v36c0,1.1.9,2,2,2h38.2c1.1,0,2-.9,2-2V7.1c0-1.1-.9-2-2-2ZM18.7,41.2h-4v-3.6h4v3.6ZM18.7,12.6h-4v-3.6h4v3.6ZM27.1,41.2h-4v-3.6h4v3.6ZM27.1,12.6h-4v-3.6h4v3.6ZM35.5,41.2h-4v-3.6h4v3.6ZM35.5,12.6h-4v-3.6h4v3.6ZM43.9,41.2h-4v-3.6h4v3.6ZM43.9,12.6h-4v-3.6h4v3.6ZM52.3,41.2h-4v-3.6h4v3.6h0ZM52.3,12.6h-4v-3.6h4v3.6h0Z"/>
        <path class="cls-3" d="M52.6,5.1h-30.6c-1.5,3.7-2.4,7.7-2.4,11.9,0,12.5,7.5,23.3,18.3,28.1h14.7c1.1,0,2-.9,2-2V7.1c0-1.1-.9-2-2-2ZM27.1,12.6h-4v-3.6h4v3.6ZM35.5,41.2h-4v-3.6h4v3.6ZM35.5,12.6h-4v-3.6h4v3.6ZM43.9,41.2h-4v-3.6h4v3.6ZM43.9,12.6h-4v-3.6h4v3.6ZM52.3,41.2h-4v-3.6h4v3.6h0ZM52.3,12.6h-4v-3.6h4v3.6h0Z"/>
        <path class="cls-4" d="M42.4,23.9l-10.6-5.3c-.9-.4-1.9.2-1.9,1.2v10.6c0,1,1,1.6,1.9,1.2l10.6-5.3c.4-.2.7-.7.7-1.2s-.3-.9-.7-1.2Z"/>
        <path class="cls-11" d="M32.3,19.8c0-.3,0-.5.2-.8l-.8-.4c-.9-.4-1.9.2-1.9,1.2v10.6c0,1,1,1.6,1.9,1.2l.8-.4c-.3-.5-.2.1-.2-11.4Z"/>
      </g>
      <g>
        <circle class="cls-16" cx="16.2" cy="38.5" r="12.5"/>
        <path class="cls-14" d="M16.2,31l-6.4,2.3v5.2c0,5.9,6.2,7.4,6.3,7.5h.1s.1,0,.1,0c0,0,6.3-1.6,6.3-7.5v-5.2l-6.4-2.3Z"/>
        <path class="cls-16" d="M15.9,39.3l3.1-3.1c.3-.3.7-.3,1,0s.3.7,0,1l-3.6,3.6c-.3.3-.7.3-1,0l-2-2c-.3-.3-.3-.7,0-1s.7-.3,1,0l1.5,1.5Z"/>
      </g>
    </g>
  </g>
</svg>