<?xml version="1.0" encoding="utf-8"?>
<!-- Generator: Adobe Illustrator 25.0.0, SVG Export Plug-In . SVG Version: 6.00 Build 0)  -->
<svg version="1.1" id="svg49" xmlns="http://www.w3.org/2000/svg" xmlns:xlink="http://www.w3.org/1999/xlink" x="0px" y="0px"
	 viewBox="0 0 1300 500" style="enable-background:new 0 0 1300 500;" xml:space="preserve">
<style type="text/css">
	.st0{fill:#46CDCF;}
	.st1{fill:#555555;}
</style>
<path id="path47_9_" class="st0" d="M491.5,306.3c-3.7,0-7.2,0.6-10.5,1.6L442.4,250l38.6-57.9c3.4,0.9,6.9,1.6,10.5,1.6
	c22.3,0,40.4-18.1,40.4-40.4s-18.1-40.4-40.4-40.4c-11.1,0-21.2,4.5-28.6,11.9l-125-62.5c0.3-1.9,0.6-3.7,0.6-5.6
	c0-22.3-18.1-40.4-40.4-40.4s-40.4,18.1-40.4,40.4c0,1.9,0.3,3.8,0.6,5.6l-125,62.5c-7.3-7.3-17.4-11.9-28.6-11.9
	c-22.3,0-40.4,18.1-40.4,40.4s18.1,40.4,40.4,40.4c3.7,0,7.2-0.7,10.5-1.6l38.6,57.9l-38.6,57.9c-3.4-0.9-6.9-1.6-10.6-1.6
	c-22.3,0-40.4,18.1-40.4,40.4c0,22.3,18.1,40.4,40.4,40.4c11.1,0,21.2-4.5,28.5-11.8l125,62.5c-0.3,1.9-0.6,3.7-0.6,5.6
	c0,22.3,18.1,40.4,40.4,40.4c22.3,0,40.4-18.1,40.4-40.4c0-1.9-0.3-3.8-0.6-5.6l125-62.5c7.3,7.3,17.4,11.8,28.5,11.8
	c22.3,0,40.4-18.1,40.4-40.4C531.9,324.4,513.8,306.3,491.5,306.3L491.5,306.3z M454.3,313.8l-40.8-20.4l13.6-20.4L454.3,313.8z
	 M308.7,404.6c-3.4-0.9-6.9-1.6-10.5-1.6s-7.2,0.6-10.5,1.6l-67.5-101.3l49.5-24.8c7.3,7.3,17.4,11.9,28.5,11.9
	c11.1,0,21.2-4.5,28.6-11.9l49.5,24.8L308.7,404.6z M287.6,95.4c3.4,0.9,6.9,1.6,10.5,1.6s7.2-0.6,10.5-1.6l67.5,101.3l-49.5,24.8
	c-7.3-7.3-17.4-11.8-28.5-11.8c-11.1,0-21.2,4.5-28.5,11.8l-49.5-24.8L287.6,95.4z M313,250c0,8.2-6.7,14.9-14.9,14.9
	c-8.2,0-14.9-6.7-14.9-14.9c0-8.2,6.7-14.9,14.9-14.9C306.3,235.1,313,241.8,313,250L313,250z M258.3,244.3
	c-0.3,1.9-0.6,3.7-0.6,5.7c0,1.9,0.3,3.8,0.6,5.6l-52.5,26.3L184.5,250l21.3-31.9L258.3,244.3z M337.9,255.6
	c0.3-1.9,0.6-3.7,0.6-5.6c0-1.9-0.3-3.8-0.6-5.7l52.5-26.3l21.3,31.9l-21.3,31.9L337.9,255.6z M413.4,206.6l40.8-20.4L427.1,227
	L413.4,206.6z M491.5,138.4c8.2,0,14.9,6.7,14.9,14.9c0,8.2-6.7,14.9-14.9,14.9c-8.2,0-14.9-6.7-14.9-14.9
	C476.6,145.1,483.3,138.4,491.5,138.4z M451.7,158.9l-52.5,26.3l-63.8-95.7l116.3,58.2c-0.3,1.9-0.6,3.7-0.6,5.6
	C451.1,155.2,451.4,157.1,451.7,158.9L451.7,158.9z M298.1,41.7c8.2,0,14.9,6.7,14.9,14.9c0,8.2-6.7,14.9-14.9,14.9
	c-8.2,0-14.9-6.7-14.9-14.9C283.3,48.4,289.9,41.7,298.1,41.7L298.1,41.7z M260.9,89.5l-63.8,95.7l-52.5-26.3
	c0.3-1.9,0.6-3.7,0.6-5.6c0-1.9-0.3-3.8-0.6-5.6L260.9,89.5z M89.9,153.3c0-8.2,6.7-14.9,14.9-14.9c8.2,0,14.9,6.7,14.9,14.9
	c0,8.2-6.7,14.9-14.9,14.9C96.6,168.2,89.9,161.5,89.9,153.3z M142,186.2l40.8,20.4L169.2,227L142,186.2z M182.8,293.4L142,313.8
	l27.2-40.8L182.8,293.4z M104.8,361.6c-8.2,0-14.9-6.7-14.9-14.9c0-8.2,6.7-14.9,14.9-14.9c8.2,0,14.9,6.7,14.9,14.9
	C119.6,354.9,113,361.6,104.8,361.6z M144.6,341l52.5-26.3l63.8,95.7l-116.3-58.2c0.3-1.9,0.6-3.7,0.6-5.7
	C145.1,344.7,144.8,342.9,144.6,341L144.6,341z M298.1,458.3c-8.2,0-14.9-6.7-14.9-14.9c0-8.2,6.7-14.9,14.9-14.9
	c8.2,0,14.9,6.7,14.9,14.9C313,451.6,306.3,458.3,298.1,458.3L298.1,458.3z M335.4,410.5l63.8-95.7l52.5,26.3
	c-0.3,1.9-0.6,3.7-0.6,5.6c0,1.9,0.3,3.8,0.6,5.7L335.4,410.5z M491.5,361.6c-8.2,0-14.9-6.7-14.9-14.9c0-8.2,6.7-14.9,14.9-14.9
	c8.2,0,14.9,6.7,14.9,14.9C506.4,354.9,499.7,361.6,491.5,361.6z"/>
<path class="st1" d="M604.1,386V114h190.3v40.8H646.9v77.7h116.5v40.8H646.9V386H604.1z"/>
<path class="st1" d="M738.5,386L847.3,114h46.6L1002.7,386H958L930.8,316H810.4L783.2,386H738.5z M825.9,277.2h89.3l-44.7-112.7
	L825.9,277.2z"/>
<path class="st1" d="M1023.9,386V114h112.7c25.9,0,47.3,8.2,64.1,24.5c16.8,16.3,25.3,36.6,25.3,61c0,24.6-8.7,45.1-26,61.4
	c-7.8,7-16.4,12.4-26,16.3l61.8,108.8h-48.6l-56.3-101h-64.1v101H1023.9z M1066.6,246.1h69.9c13.7,0,24.9-4.3,33.6-13
	c8.7-8.7,13-19.9,13-33.6c0-13.7-4.3-24.9-13-33.6c-8.7-8.7-19.9-13-33.6-13h-69.9V246.1z"/>
</svg>
