<?xml version="1.0" encoding="UTF-8" standalone="no"?>
<svg
   width="495.1976pt"
   height="495.19342pt"
   version="1.1"
   viewBox="0 0 495.1976 495.19342"
   id="svg49"
   sodipodi:docname="FAR Logomark Only.svg"
   inkscape:version="1.1.2 (0a00cf5339, 2022-02-04)"
   inkscape:export-filename="/home/adam/Documents/FAR Logo.png"
   inkscape:export-xdpi="300"
   inkscape:export-ydpi="300"
   xmlns:inkscape="http://www.inkscape.org/namespaces/inkscape"
   xmlns:sodipodi="http://sodipodi.sourceforge.net/DTD/sodipodi-0.dtd"
   xmlns="http://www.w3.org/2000/svg"
   xmlns:svg="http://www.w3.org/2000/svg">
  <defs
     id="defs53">
    <rect
       x="14606.152"
       y="5090.2451"
       width="1403.8661"
       height="122.41582"
       id="rect81784" />
    <rect
       x="4218.4805"
       y="2157.4194"
       width="146.21365"
       height="773.63116"
       id="rect37798" />
    <rect
       x="4217.1885"
       y="2152.0081"
       width="12971.245"
       height="4644.9746"
       id="rect18316" />
    <rect
       x="4287.687"
       y="1845.3392"
       width="370.53809"
       height="468.45093"
       id="rect3824" />
  </defs>
  <sodipodi:namedview
     id="namedview51"
     pagecolor="#ffffff"
     bordercolor="#666666"
     borderopacity="1.0"
     inkscape:pageshadow="2"
     inkscape:pageopacity="0"
     inkscape:pagecheckerboard="0"
     inkscape:document-units="pt"
     showgrid="false"
     showguides="true"
     inkscape:guide-bbox="true"
     inkscape:zoom="0.38958333"
     inkscape:cx="610.9091"
     inkscape:cy="709.73263"
     inkscape:window-width="1920"
     inkscape:window-height="1080"
     inkscape:window-x="1920"
     inkscape:window-y="0"
     inkscape:window-maximized="1"
     inkscape:current-layer="svg49"
     fit-margin-top="0"
     fit-margin-left="0"
     fit-margin-right="0"
     fit-margin-bottom="0"
     inkscape:snap-global="false">
    <sodipodi:guide
       position="103.10193,65.045055"
       orientation="0,-1"
       id="guide31238" />
    <sodipodi:guide
       position="188.98729,473.93545"
       orientation="0,-1"
       id="guide32362" />
  </sodipodi:namedview>
  <path
     d="m 452.354,307.21261 c -3.8889,0 -7.5803,0.6855 -11.1663,1.6741 l -40.869,-61.29 40.869,-61.2972 c 3.586,0.9753 7.2774,1.6678 11.1663,1.6678 23.5728,0 42.7536,-19.1826 42.7536,-42.7536 0,-23.571 -19.1826,-42.7536 -42.7536,-42.7536 -11.7992,0 -22.491,4.7988 -30.231,12.5509 L 289.7456,48.816 c 0.277,-1.9708 0.6068,-3.9283 0.6068,-5.9724 0,-23.5728 -19.1826,-42.7536 -42.7536,-42.7536 -23.571,0 -42.7536,19.1826 -42.7536,42.7536 0,2.0433 0.3227,4.0014 0.6068,5.9724 L 73.0746,115.01101 c -7.7456,-7.7519 -18.4374,-12.5509 -30.231,-12.5509 -23.5728,0 -42.7536,19.1826 -42.7536,42.7536 0,23.571 19.1826,42.7536 42.7536,42.7536 3.8889,0 7.5873,-0.6919 11.1663,-1.6678 l 40.8636,61.2972 -40.8564,61.29 c -3.586,-0.9886 -7.2837,-1.6741 -11.1733,-1.6741 -23.5728,0 -42.7537,19.1826 -42.7537,42.7536 -7e-4,23.5728 19.1827,42.7536 42.7537,42.7536 11.7864,0 22.4784,-4.7988 30.2166,-12.5374 l 132.39,66.195 c -0.2834,1.9645 -0.6068,3.9283 -0.6068,5.9724 0,23.5728 19.1826,42.7536 42.7536,42.7536 23.5728,0 42.7536,-19.1826 42.7536,-42.7536 0,-2.0434 -0.3298,-4.0079 -0.6068,-5.9724 l 132.39,-66.195 c 7.74,7.7386 18.432,12.5374 30.2184,12.5374 23.5728,0 42.7536,-19.1826 42.7536,-42.7536 0,-23.5728 -19.1826,-42.7554 -42.7536,-42.7554 z m -39.4326,7.9502 -43.2288,-21.6216 14.4099,-21.6072 z m -154.1556,96.1074 c -3.579,-0.9886 -7.2774,-1.6741 -11.1663,-1.6741 -3.8889,0 -7.5804,0.6855 -11.1663,1.6614 l -71.4942,-107.2349 52.4322,-26.2224 c 7.7448,7.7519 18.4374,12.5508 30.2292,12.5508 11.7918,0 22.491,-4.7988 30.231,-12.5508 l 52.4322,26.2224 z M 236.4386,83.922198 c 3.5796,0.9823 7.2774,1.6678 11.16,1.6678 3.8826,0 7.5803,-0.6855 11.16,-1.6678 l 71.4888,107.235012 -52.4322,26.2224 c -7.7386,-7.7456 -18.4302,-12.5444 -30.2166,-12.5444 -11.7864,0 -22.4784,4.7988 -30.2166,12.5444 l -52.4376,-26.2224 z m 26.9136,163.668612 c 0,8.6879 -7.0665,15.7542 -15.7542,15.7542 -8.6877,0 -15.7541,-7.0665 -15.7541,-15.7542 0,-8.6877 7.0664,-15.7541 15.7541,-15.7541 8.6877,0 15.7542,7.0664 15.7542,15.7541 z m -57.9024,-5.9857 c -0.2834,1.9715 -0.6061,3.9353 -0.6061,5.9857 0,2.0434 0.3227,4.0014 0.6068,5.9724 l -55.6074,27.8046 -22.518,-33.777 22.5234,-33.7896 z m 84.2958,11.9581 c 0.2763,-1.9708 0.6061,-3.929 0.6061,-5.9724 0,-2.0504 -0.3298,-4.0142 -0.6068,-5.9857 l 55.5948,-27.8046 22.5306,33.7896 -22.518,33.7752 z m 79.9326,-51.93 43.2414,-21.6216 -28.8198,43.2414 z m 82.674,-72.18 c 8.6878,0 15.7541,7.0665 15.7541,15.7542 0,8.6877 -7.0664,15.7541 -15.7541,15.7541 -8.6879,0 -15.7542,-7.0657 -15.7542,-15.7541 0,-8.6879 7.0665,-15.7542 15.7542,-15.7542 z m -42.147,21.726 -55.6218,27.81 -67.5666,-101.356212 123.1884,61.599612 c -0.2771,1.9716 -0.6068,3.9291 -0.6068,5.9724 0,2.0439 0.3297,4.0014 0.6068,5.9724 z M 247.5986,27.0818 c 8.6879,0 15.7541,7.0665 15.7541,15.7541 0,8.6886 -7.0664,15.7549 -15.7541,15.7549 -8.6877,0 -15.7541,-7.0664 -15.7541,-15.7541 0,-8.6886 7.0664,-15.7549 15.7541,-15.7549 z m -39.4128,50.552998 -67.5792,101.356212 -55.6146,-27.81 c 0.284,-1.9708 0.6068,-3.9283 0.6068,-5.9724 0,-2.0433 -0.3228,-4.0014 -0.6068,-5.9724 z M 27.0878,145.20681 c 0,-8.6879 7.0664,-15.7541 15.7541,-15.7541 8.6886,0 15.7549,7.0664 15.7549,15.7541 0,8.6877 -7.0665,15.7542 -15.7542,15.7542 -8.6886,0 -15.7548,-7.0658 -15.7548,-15.7542 z m 55.1862,34.8048 43.236,21.6216 -14.4099,21.6216 z m 43.2288,113.5242 -43.2288,21.6216 28.8252,-43.2288 z m -82.6614,72.18 c -8.6879,0 -15.7542,-7.0664 -15.7542,-15.7541 0,-8.6879 7.0665,-15.7542 15.7542,-15.7542 8.6879,0 15.7541,7.0658 15.7541,15.7542 0,8.6879 -7.0664,15.7541 -15.7541,15.7541 z m 42.147,-21.726 55.6074,-27.8046 67.572,101.3562 -123.1812,-61.5942 c 0.2847,-1.9771 0.6075,-3.9416 0.6075,-5.985 0,-2.0439 -0.3228,-4.0079 -0.6068,-5.9724 z m 162.6066,124.11 c -8.6879,0 -15.7541,-7.0664 -15.7541,-15.7541 0,-8.6886 7.0664,-15.7549 15.7541,-15.7549 8.6877,0 15.7541,7.0664 15.7541,15.7541 0,8.6886 -7.0664,15.7549 -15.7541,15.7549 z m 39.4326,-50.5602 67.5666,-101.3562 55.6074,27.8046 c -0.2763,1.9645 -0.6061,3.9283 -0.6061,5.9724 0,2.0434 0.3298,4.0079 0.6068,5.9857 z m 165.3228,-51.8238 c -8.6879,0 -15.7542,-7.0664 -15.7542,-15.7541 0,-8.6879 7.0665,-15.7542 15.7542,-15.7542 8.6878,0 15.7541,7.0665 15.7541,15.7542 0,8.6879 -7.0657,15.7541 -15.7541,15.7541 z"
     fill="#191919"
     id="path47"
     style="fill:#46cdcf;fill-opacity:1;stroke:#000000;stroke-width:0.18"
     inkscape:export-filename="/home/adam/Documents/FAR Logo.png"
     inkscape:export-xdpi="300"
     inkscape:export-ydpi="300" />
  <text
     xml:space="preserve"
     transform="matrix(0.75,0,0,0.75,-1979.8258,-1625.9519)"
     id="text3822"
     style="font-style:normal;font-weight:normal;font-size:800px;line-height:1.25;font-family:sans-serif;white-space:pre;shape-inside:url(#rect3824);fill:#000000;fill-opacity:1;stroke:none"><tspan
       x="4287.6875"
       y="3114.6568"
       id="tspan1100"><tspan
         dx="0 310.35156 398.24219"
         style="font-family:Impact;-inkscape-font-specification:Impact"
         id="tspan1098">FAR</tspan></tspan></text>
  <text
     xml:space="preserve"
     transform="matrix(0.75,0,0,0.75,-1979.8258,-1625.9519)"
     id="text37796"
     style="font-style:normal;font-weight:normal;font-size:40px;line-height:1.25;font-family:sans-serif;white-space:pre;shape-inside:url(#rect37798);fill:#000000;fill-opacity:1;stroke:none" />
  <text
     xml:space="preserve"
     transform="matrix(0.75,0,0,0.75,-1979.8258,-1625.9519)"
     id="text81782"
     style="font-style:normal;font-weight:normal;font-size:40px;line-height:1.25;font-family:sans-serif;white-space:pre;shape-inside:url(#rect81784);fill:#000000;fill-opacity:1;stroke:none" />
</svg>
