<?xml version="1.0" encoding="UTF-8"?>
<svg id="Layer_2" xmlns="http://www.w3.org/2000/svg" viewBox="0 0 1437.59 249.37">
  <defs>
    <style>
      .cls-1 {
        fill: #071024;
      }
    </style>
  </defs>
  <g id="Layer_1-2" data-name="Layer_1">
    <polygon class="cls-1" points="542.82 110.33 542.82 110.27 465.02 110.27 465.02 33.45 592.6 33.45 592.6 33.42 602.98 33.42 616.3 .62 428.47 .62 428.47 249.35 465.02 249.35 465.02 142.76 540.59 142.76 540.59 142.81 558.94 142.81 572.14 110.33 542.82 110.33"/>
    <path class="cls-1" d="M281.76,0c-1.14,0-2.24.42-3.1,1.18L0,249.37h83.53L280.17,6.88l-55.74,242.49h60.56V3.24c0-1.79-1.45-3.24-3.24-3.24h0Z"/>
    <polygon class="cls-1" points="668.19 .62 567.01 249.35 606.26 249.35 631.3 185.39 719.57 185.39 706.49 153.21 644.16 153.25 687.48 42.25 721.37 129.1 721.39 129.1 753.85 212.4 753.78 212.49 768.02 249.35 807.61 249.35 707.11 .62 668.19 .62"/>
    <path class="cls-1" d="M1026.76,72.71c0-42.3-29.78-72.08-80.88-72.08h-110.32v248.73h36.55v-105.24h49.75l72.42,105.24h42.98l-75.13-106.26c41.96-5.41,64.63-32.49,64.63-70.39h0ZM872.13,111.62h-.02V33.45h72.76c29.1,0,45.35,15.91,45.35,39.26s-16.24,38.92-45.35,38.92h-72.74Z"/>
    <path class="cls-1" d="M1084.3,211.04c-10.57,0-19.15,8.57-19.15,19.14s8.58,19.14,19.15,19.14,19.14-8.57,19.14-19.14-8.57-19.14-19.14-19.14h0Z"/>
    <rect class="cls-1" x="1401.38" y=".63" width="36.21" height="248.73"/>
    <polygon class="cls-1" points="1234.16 .62 1132.98 249.35 1172.23 249.35 1197.28 185.39 1285.55 185.39 1272.47 153.21 1210.14 153.25 1253.45 42.25 1287.35 129.1 1287.36 129.1 1319.82 212.4 1319.75 212.49 1334 249.35 1373.59 249.35 1273.08 .62 1234.16 .62"/>
  </g>
</svg>