<?xml version="1.0" encoding="UTF-8" standalone="no"?>
<!-- Created with Inkscape (http://www.inkscape.org/) -->

<svg
   id="svg2"
   xml:space="preserve"
   height="223.66251"
   width="223.675"
   version="1.0"
   sodipodi:docname="financial-times-logo.svg"
   inkscape:version="1.3.2 (091e20e, 2023-11-25)"
   xmlns:inkscape="http://www.inkscape.org/namespaces/inkscape"
   xmlns:sodipodi="http://sodipodi.sourceforge.net/DTD/sodipodi-0.dtd"
   xmlns="http://www.w3.org/2000/svg"
   xmlns:svg="http://www.w3.org/2000/svg"><defs
     id="defs1" /><sodipodi:namedview
     id="namedview1"
     pagecolor="#ffffff"
     bordercolor="#000000"
     borderopacity="0.25"
     inkscape:showpageshadow="2"
     inkscape:pageopacity="0.0"
     inkscape:pagecheckerboard="0"
     inkscape:deskcolor="#d1d1d1"
     showguides="false"
     inkscape:zoom="0.58680194"
     inkscape:cx="113.32614"
     inkscape:cy="153.37373"
     inkscape:window-width="1120"
     inkscape:window-height="449"
     inkscape:window-x="0"
     inkscape:window-y="251"
     inkscape:window-maximized="0"
     inkscape:current-layer="svg2"><sodipodi:guide
       position="427.1469,283.55657"
       orientation="0,-1"
       id="guide1"
       inkscape:locked="false" /></sodipodi:namedview><path
     id="exclusion-zone"
     d="M -46.607483,354.2114 H 271.6198 V -47.964481 H -46.607483 l 0.005,402.175881 z"
     fill="none"
     style="stroke-width:1.2539" /><path
     id="FT-Pink"
     d="M 223.675,223.6625 H 0 V 0 h 223.675 z"
     fill="#fcd0af"
     style="stroke-width:1.25" /><path
     id="FT"
     d="m 57.20875,116.7225 c 0,10.5625 2.8175,11.7375 14.8525,12.1875 v 3.8625 H 24.225 V 128.91 c 9.95125,-0.45 12.77375,-1.625 12.77375,-12.1875 v -68.925 c 0,-10.5625 -2.8225,-11.75 -12.47625,-12.1875 v -3.8625 h 84.38 l 0.60062,22.275 h -4.16125 c -3.56375,-11.2875 -7.43125,-14.85 -27.19,-14.85 h -15.31 c -4.59374,0 -5.63375,1.0375 -5.63375,5.2 v 31.95 h 7.53875 c 15.75125,0 19.17,-2.8375 21.09875,-13.3875 h 3.8625 v 35.6625 h -3.8625 c -2.075,-11.8875 -8.0225,-14.85 -21.09875,-14.85 h -7.53875 v 32.975 z m 147.25,-84.975 h -88.55 l -2.05563,22.2875 h 5.07938 C 122.17375,43.1225 126.94,39.1725 137.59875,39.1725 H 150.08 v 77.55 c 0,10.5625 -2.8225,11.7375 -14.25875,12.1875 v 3.8625 H 184.5525 V 128.91 C 173.11125,128.46 170.29,127.285 170.29,116.7225 v -77.55 h 12.475 c 10.66375,0 15.435,3.95 18.67125,14.8625 H 206.51 Z"
     fill="#3e474f"
     style="stroke-width:1.25" /></svg>
