<svg xmlns="http://www.w3.org/2000/svg" xmlns:xlink="http://www.w3.org/1999/xlink" version="1.1" width="612pt" height="792pt" viewBox="0 0 612 792">
<defs>
<clipPath id="clip_0">
<path transform="matrix(1,0,0,-1,0,792)" d="M0 0H612V792H0Z"/>
</clipPath>
</defs>
<g clip-path="url(#clip_0)">
<path transform="matrix(1,0,0,-1,55.44,57.65802)" stroke-width=".996" stroke-linecap="butt" stroke-miterlimit="10" stroke-linejoin="miter" fill="none" stroke="#000000" d="M0 0H486"/>
<text xml:space="preserve" transform="matrix(1 0 -0 1 0 792)" font-size="14.3462" font-family="NimbusRomNo9L" font-weight="bold"><tspan y="-705.959" x="156.587 166.94496 174.92145 181.95108 188.3208 194.69052 200.2712 207.44429 213.81401 217.80226 224.97536 232.55016 241.02877 248.20186 252.19011 256.17835 262.54808 266.53633 272.90605 282.07325 291.64216 298.01188 305.18498 313.5488 321.5253 329.5018 337.4783 343.84803 350.21775 358.19425 366.17076 378.12113 385.29423 396.85728 408.01863 418.77827 429.13624 434.7169">AdversarialPoliciesBeatSuperhumanGoAIs</tspan></text>
<path transform="matrix(1,0,0,-1,55.44,105.291019)" stroke-width=".996" stroke-linecap="butt" stroke-miterlimit="10" stroke-linejoin="miter" fill="none" stroke="#000000" d="M0 0H486"/>
<text xml:space="preserve" transform="matrix(1 0 -0 1 0 792)" font-size="9.9626" font-family="NimbusRomNo9L" font-weight="bold"><tspan y="-656.267" x="88.12 93.8485 98.8298 104.36901 111.84096 120.97666 130.29169 135.27298 140.81218">TonyTWang</tspan></text>
<text xml:space="preserve" transform="matrix(1 0 -0 1 0 792)" font-size="6.9738" font-family="NimbusRomNo9L"><tspan y="-659.882" x="147.454 152.60066">*1</tspan></text>
<text xml:space="preserve" transform="matrix(1 0 -0 1 0 792)" font-size="9.9626" font-family="NimbusRomNo9L" font-weight="bold"><tspan y="-656.267" x="162.731 169.924 175.4632 180.44449 191.23398 198.98488 201.75449 206.17789 210.91011 215.79178">AdamGleave</tspan></text>
<text xml:space="preserve" transform="matrix(1 0 -0 1 0 792)" font-size="6.9738" font-family="NimbusRomNo9L"><tspan y="-659.882" x="221.876 227.02268 232.16934">*23</tspan></text>
<text xml:space="preserve" transform="matrix(1 0 -0 1 0 792)" font-size="9.9626" font-family="NimbusRomNo9L" font-weight="bold"><tspan y="-656.267" x="242.3 248.02849 253.00978 263.7993 270.44435 274.3198 278.7432 284.2824">TomTseng</tspan></text>
<text xml:space="preserve" transform="matrix(1 0 -0 1 0 792)" font-size="6.9738" font-family="NimbusRomNo9L"><tspan y="-659.882" x="290.924">3</tspan></text>
<text xml:space="preserve" transform="matrix(1 0 -0 1 0 792)" font-size="9.9626" font-family="NimbusRomNo9L" font-weight="bold"><tspan y="-656.267" x="301.053 308.55488 312.97828 315.74787 318.51747 321.28706 329.31694 335.20484 339.62825 342.39784 346.82124 349.59083 355.13005">KellinPelrine</tspan></text>
<text xml:space="preserve" transform="matrix(1 0 -0 1 0 792)" font-size="6.9738" font-family="NimbusRomNo9L"><tspan y="-659.882" x="361.213 366.35969">34</tspan></text>
<text xml:space="preserve" transform="matrix(1 0 -0 1 0 792)" font-size="9.9626" font-family="NimbusRomNo9L" font-weight="bold"><tspan y="-656.267" x="376.49 383.68299 388.66429 393.08769 400.55964 407.20469 411.62809 414.39768 418.64176 423.62306 427.4985">NoraBelrose</tspan></text>
<text xml:space="preserve" transform="matrix(1 0 -0 1 0 792)" font-size="6.9738" font-family="NimbusRomNo9L"><tspan y="-659.882" x="433.582">3</tspan></text>
<text xml:space="preserve" transform="matrix(1 0 -0 1 0 792)" font-size="9.9626" font-family="NimbusRomNo9L" font-weight="bold"><tspan y="-656.267" x="443.711 448.54286 453.52415 457.3996 461.823 467.3622 475.3921 484.79679 487.56639 490.33598 493.10557 497.52897">JosephMiller</tspan></text>
<text xml:space="preserve" transform="matrix(1 0 -0 1 0 792)" font-size="6.9738" font-family="NimbusRomNo9L"><tspan y="-659.882" x="503.613">3</tspan></text>
<text xml:space="preserve" transform="matrix(1 0 -0 1 0 792)" font-size="9.9626" font-family="NimbusRomNo9L" font-weight="bold"><tspan y="-644.312" x="109.464 118.86869 121.63829 126.06168 131.60089 136.58219 141.00559 146.26584 155.94948 163.14247 167.56587 173.10507 178.64427 181.41388">MichaelDDennis</tspan></text>
<text xml:space="preserve" transform="matrix(1 0 -0 1 0 792)" font-size="6.9738" font-family="NimbusRomNo9L"><tspan y="-647.927" x="186.95">2</tspan></text>
<text xml:space="preserve" transform="matrix(1 0 -0 1 0 792)" font-size="9.9626" font-family="NimbusRomNo9L" font-weight="bold"><tspan y="-644.312" x="197.079 203.42517 208.40647 215.59946 220.02286 228.0527 235.2457 240.7849 245.76619">YawenDuan</tspan></text>
<text xml:space="preserve" transform="matrix(1 0 -0 1 0 792)" font-size="6.9738" font-family="NimbusRomNo9L"><tspan y="-647.927" x="252.966">2</tspan></text>
<text xml:space="preserve" transform="matrix(1 0 -0 1 0 792)" font-size="9.9626" font-family="NimbusRomNo9L" font-weight="bold"><tspan y="-644.312" x="263.095 269.91938 272.68898 278.22819 281.54573 286.527 293.44108 299.32899 304.31028 309.29158 313.53565 317.95906 323.49827 329.03749 331.80708 336.78837 348.97264 354.51185 358.93525 363.259 368.2403 372.6637 380.13566 386.7807 391.05467 396.03596 398.80555 404.34477">ViktorPogrebniakSergeyLevine</tspan></text>
<text xml:space="preserve" transform="matrix(1 0 -0 1 0 792)" font-size="6.9738" font-family="NimbusRomNo9L"><tspan y="-647.927" x="410.425">2</tspan></text>
<text xml:space="preserve" transform="matrix(1 0 -0 1 0 792)" font-size="9.9626" font-family="NimbusRomNo9L" font-weight="bold"><tspan y="-644.312" x="420.554 426.0932 429.41075 434.94996 439.93125 444.35466 450.16285 457.35585 462.89506 466.7705 470.64598 475.06938 477.83897">StuartRussell</tspan></text>
<text xml:space="preserve" transform="matrix(1 0 -0 1 0 792)" font-size="6.9738" font-family="NimbusRomNo9L"><tspan y="-647.927" x="482.269">2</tspan></text>
<text xml:space="preserve" transform="matrix(1 0 -0 1 0 792)" font-size="11.9552" font-family="NimbusRomNo9L" font-weight="bold"><tspan y="-609.73" x="150.198 158.82965 165.47675 170.12732 174.1084 179.4165 185.3941 190.70221">Abstract</tspan></text>
<text xml:space="preserve" transform="matrix(1 0 -0 1 0 792)" font-size="9.9626" font-family="NimbusRomNo9L"><tspan y="-590.331" x="75.361 83.96869 94.40949 98.832889 101.602489 104.372089 108.79548 113.21887 124.21758 126.98718 131.96848 142.39933 146.27478 149.04439 153.46779 156.2374 160.6608 163.97835 168.95964 172.27719 175.59474 178.36435 183.34564 187.76905 191.0866 195.51 198.82755 207.61457 214.80756 219.78885 223.1064 228.08769 230.8573 235.2807 240.262 243.0316 248.0129 259.0116 266.2046">Weattackthestate-of-the-artGo-playingAI</tspan></text>
<text xml:space="preserve" transform="matrix(1 0 -0 1 0 792)" font-size="9.9626" font-family="NimbusRomNo9L"><tspan y="-578.376" x="75.361 79.23645 84.21775 88.0932 90.8628 95.286197 107.0321 114.2251 118.64849 121.41809 125.841487 133.03449 142.02074 147.00203 155.97834 158.74794 162.06549 166.48889 169.2585 174.23979 177.0094 181.99069 190.96698 195.39038 200.37168 205.20352 209.62693 212.94448 216.81993 221.24333 224.56089 227.33049 231.75389 238.52846 243.50975 248.49105 251.26065 254.03026 258.45365 261.22325 265.64665">systemKataGobytrainingadversarialpolicies</tspan></text>
<text xml:space="preserve" transform="matrix(1 0 -0 1 0 792)" font-size="9.9626" font-family="NimbusRomNo9L"><tspan y="-566.421" x="75.361 79.78439 84.71588 89.139278 91.908878 96.890178 100.765628 108.18776 110.95736 113.72696 121.40812 125.83151 130.25492 135.2362 138.00582 142.18015 147.16144 149.93105 154.91234 164.54616 173.63205 179.25096 184.23226 189.21355 202.16492 209.35791 212.12752 221.76134 225.07889 229.50229 232.2719 241.34783 245.77123 250.7027 255.1261 257.8957 262.87699 266.75245">againstit,achievinga&#x003e;97%winrateagainst</tspan></text>
<text xml:space="preserve" transform="matrix(1 0 -0 1 0 792)" font-size="9.9626" font-family="NimbusRomNo9L"><tspan y="-554.466" x="75.361 82.554 86.977397 89.746997 94.17039 101.36339 108.75564 112.07318 117.05448 122.03578 127.01708 129.78668 134.76798 142.17018 146.59358 151.77414 155.6496 160.63089 165.61219 170.03559 173.35314 178.33443 183.31572 191.06662 195.49002 202.89223 206.76769 211.19109 213.9607 216.7303 219.49991 224.4812 229.4625 233.33795 238.88712 246.08011 251.0614 256.79988 261.22328 266.20457">KataGorunningatsuperhumansettings.Ourad-</tspan></text>
<text xml:space="preserve" transform="matrix(1 0 -0 1 0 792)" font-size="9.9626" font-family="NimbusRomNo9L"><tspan y="-542.511" x="75.361 80.19286 84.61626 87.9338 91.80925 96.23264 99.550189 102.319789 106.74318 114.85274 119.83404 129.04944 134.03073 139.01203 146.0257 153.21869 155.97834 165.20369 170.18498 179.40038 184.38167 187.15128 191.57468 196.55597 199.32558 204.30687 213.52227 220.71526 229.93065 237.12364 241.54705 244.31665 247.08626 257.90565 261.22319 266.20448">versariesdonotwinbyplayingGowell.In-</tspan></text>
<text xml:space="preserve" transform="matrix(1 0 -0 1 0 792)" font-size="9.9626" font-family="NimbusRomNo9L"><tspan y="-530.556" x="75.361 79.23645 82.00605 86.42944 90.85284 95.83414 104.09313 106.86273 111.84403 116.11799 126.210109 128.9797 132.29726 135.06687 139.49027 149.58237 156.77536 161.19876 163.96837 168.39177 175.58477 185.67687 188.44647 193.42777 196.19738 206.29944 214.05034 218.47374 223.45503 226.22464 231.20594 241.29804 245.1735 249.5969 252.91445 255.68405 260.66535 265.64665">stead,theytrickKataGointomakingserious</tspan></text>
<text xml:space="preserve" transform="matrix(1 0 -0 1 0 792)" font-size="9.9626" font-family="NimbusRomNo9L"><tspan y="-518.6" x="75.361 80.3423 83.1119 88.0932 93.0745 98.0558 102.479198 105.79674 109.67219 116.357089 123.55009 128.53139 134.69824 139.12165 141.89125 144.66086 149.08426 153.50766 161.34822 164.11783 167.43538 171.85878 176.84008 180.71553 184.03308 188.45648 191.77404 198.50876 202.93216 207.35556 210.67311 215.6544 218.97196 222.84741 227.8287 232.81 238.43888 241.20848 249.04904 254.03034 256.79994 261.78123 266.20463">blunders.Ourattacktransferszero-shottoother</tspan></text>
<text xml:space="preserve" transform="matrix(1 0 -0 1 0 792)" font-size="9.9626" font-family="NimbusRomNo9L"><tspan y="-506.645" x="75.361 79.23645 84.21775 89.19905 93.622447 96.93999 101.92129 106.90259 114.65349 119.07688 126.9573 134.1503 139.13159 142.44915 147.43044 150.20005 154.62345 159.60474 162.37435 167.35564 175.23606 182.42905 185.7466 189.62206 195.11145 199.53485 204.51615 212.39655 215.16616 221.94074 226.36414 231.34543 239.09633 244.07762 247.39517 251.81858 256.79988 261.22328 266.20457">superhumanGo-playingAIs,andiscomprehen-</tspan></text>
<text xml:space="preserve" transform="matrix(1 0 -0 1 0 792)" font-size="9.9626" font-family="NimbusRomNo9L"><tspan y="-494.69" x="75.361 79.23645 82.00605 86.98735 89.75695 98.284938 101.054538 110.15039 112.91999 117.90129 126.429279 130.70323 135.68453 138.45413 142.87754 147.85883 154.73303 157.50264 162.48394 166.90734 173.79149 178.77278 183.75408 191.50498 195.92838 205.01425 209.28821 214.2695 219.2508 223.6742 226.99175 229.76136 237.7414 242.1648 246.5882 255.68404 258.45365 266.20457">sibletotheextentthathumanexpertscanim-</tspan></text>
<text xml:space="preserve" transform="matrix(1 0 -0 1 0 792)" font-size="9.9626" font-family="NimbusRomNo9L"><tspan y="-482.735" x="75.361 80.3423 83.1119 87.53529 95.286197 99.70959 104.69089 109.93121 112.70081 117.9511 125.144107 127.913707 130.6833 135.6646 140.64589 145.62718 150.86751 155.29091 158.06052 163.04181 168.0231 171.34066 174.11026 176.87987 181.86116 189.61206 192.38167 199.27579 203.69919 207.57465 211.4501 214.21971 218.09517 220.86478 225.28818 230.26947 234.69287 241.58699 244.3566 251.81858 256.24198 261.22328 266.20457">plementitwithoutalgorithmicassistancetocon-</tspan></text>
<text xml:space="preserve" transform="matrix(1 0 -0 1 0 792)" font-size="9.9626" font-family="NimbusRomNo9L"><tspan y="-470.78" x="75.361 79.23645 82.00605 85.8815 88.6511 93.07449 98.05579 100.82539 103.59499 112.880138 117.861438 122.28483 126.70822 133.79164 137.6671 142.64839 147.62969 152.05309 155.37064 160.35193 165.33322 173.08412 177.50753 186.79267 193.98566 197.3032 201.17867 212.21723 218.30437 223.28566 232.01291 236.43631 241.4176 244.73516 253.47237 258.45368 263.43498 266.20457">sistentlybeatsuperhumanAIs.Thecorevul-</tspan></text>
<text xml:space="preserve" transform="matrix(1 0 -0 1 0 792)" font-size="9.9626" font-family="NimbusRomNo9L"><tspan y="-458.825" x="75.361 80.3423 84.76569 88.08324 92.50663 97.48793 100.25753 103.02713 105.79673 108.56633 116.78548 121.76678 126.74808 131.17148 136.00333 140.83518 145.25858 148.57613 152.99953 161.22863 166.20992 174.42905 179.41034 184.39163 190.94702 195.37042 198.14003 200.90964 205.33304 209.75644 217.98554 222.96683 227.39023 230.70778 234.57328 237.34288 241.21834 243.98795 251.1112 255.28554 260.1174 264.5408">nerabilityuncoveredbyourattackpersistseven</tspan></text>
<text xml:space="preserve" transform="matrix(1 0 -0 1 0 792)" font-size="9.9626" font-family="NimbusRomNo9L"><tspan y="-446.869" x="75.361 78.1306 85.8018 92.994808 97.4182 100.1878 104.61119 111.80419 119.475399 123.89879 128.88008 133.30348 138.28478 141.05438 147.61974 152.04314 157.02443 161.85628 166.27968 169.59723 173.47269 177.89609 181.21364 183.98325 188.40665 191.17626 193.94586 201.61705 204.38666 207.70421 212.12761 214.89722 219.87851 224.30191 231.9731 234.7427 242.4139 247.39519 251.81859 255.13614 259.55955 264.54084">inKataGoagentsadversariallytrainedtodefend</tspan></text>
<text xml:space="preserve" transform="matrix(1 0 -0 1 0 792)" font-size="9.9626" font-family="NimbusRomNo9L"><tspan y="-434.914" x="75.361 79.78439 84.71588 89.139278 91.908878 96.890178 100.765628 106.74318 111.72448 116.70578 123.23128 127.65467 130.42427 133.19388 137.61728 142.04068 147.02198 154.75295 161.94594 166.92723 173.45275 176.7703 181.1937 185.06916 190.05045 192.82006 195.58966 202.67308 207.65438 212.07778 219.82868 224.80997 229.79126 233.66672 236.43633 239.75388 244.17728 246.94689 254.57825 257.34785 262.32914 266.75254">againstourattack.Ourresultsdemonstratethat</tspan></text>
<text xml:space="preserve" transform="matrix(1 0 -0 1 0 792)" font-size="9.9626" font-family="NimbusRomNo9L"><tspan y="-422.959" x="75.361 79.53533 84.367198 88.79059 95.67474 99.55019 104.531497 109.512798 113.93619 117.25373 122.23503 127.21633 134.96724 139.39064 146.26483 153.45783 158.67824 162.5537 167.53499 171.41045 174.18006 178.60346 186.35436 192.13268 199.87361 204.29701 211.18117 216.16246 220.58586 223.90341 228.8847 233.866 239.08641 242.96187 247.94316 251.26071 256.242 259.55955 262.32914 266.2046">evensuperhumanAIsystemsmayharborsurpris-</tspan></text>
<text xml:space="preserve" transform="matrix(1 0 -0 1 0 792)" font-size="9.9626" font-family="NimbusRomNo9L"><tspan y="-411.004" x="75.361 78.1306 83.1119 90.95247 94.17039 98.59378 101.36338 104.13298 109.11428 112.43182 119.72445 127.47535 132.45665 137.43795 141.86135 145.7368 152.43167 158.51882 163.5001 167.92351 175.67441 180.6557 183.42531 190.70798 195.63945 200.06285 207.81375 212.23715 218.97188 223.39528 226.71283 234.00547 238.22962 242.96184 247.38524 250.15485 252.92446 257.34785 262.32914 265.09873">ingfailuremodes.Examplegamesareavailable</tspan></text>
<text xml:space="preserve" transform="matrix(1 0 -0 1 0 792)" font-size="9.9626" font-family="NimbusRomNo9L"><tspan y="-399.049" x="75.361 79.78439">at</tspan></text>
<text fill="#00aeef" xml:space="preserve" transform="matrix(1 0 -0 1 0 792)" font-size="9.9626" font-family="NimbusMonL"><tspan y="-399.049" x="85.044 91.02156 96.99912 102.976688 108.95425 114.93181 120.90937 126.88693 132.86449 138.84204 144.8196 150.79715 156.7747 162.75226 168.72982">goattack.far.ai</tspan></text>
<text xml:space="preserve" transform="matrix(1 0 -0 1 0 792)" font-size="9.9626" font-family="NimbusRomNo9L"><tspan y="-399.049" x="174.708">.</tspan></text>
<text xml:space="preserve" transform="matrix(1 0 -0 1 0 792)" font-size="11.9552" font-family="NimbusRomNo9L" font-weight="bold"><tspan y="-360.378" x="55.44 61.4176 67.3952 72.04578 78.69287 82.67395 87.76686 93.74446 100.391559 107.03865 112.346759 116.327838 119.65138 125.62898">1.Introduction</tspan></text>
<text xml:space="preserve" transform="matrix(1 0 -0 1 0 792)" font-size="9.9626" font-family="NimbusRomNo9L"><tspan y="-341.005" x="55.44 61.527147 66.508449 74.96669 79.190837 84.0227 88.44609 91.76363 96.18703 101.16833 105.59172 108.90926 113.33266 117.75605 121.6315 130.08975 135.07105 139.49445 142.812 146.12955 151.11084 154.42839 162.17929 166.60269 171.58399 176.00739 184.46564 189.44693 196.78937 203.98236 211.33477 215.21022 220.19152 224.06697 226.83658 231.25998 239.01088 246.92119 251.90248 256.32588 264.23619 269.21748 272.535 277.26725 284.46025">Theaverage-caseperformanceofAIsystemshasgrown</tspan></text>
<text xml:space="preserve" transform="matrix(1 0 -0 1 0 792)" font-size="9.9626" font-family="NimbusRomNo9L"><tspan y="-329.05" x="55.44 58.757547 63.18094 68.16224 70.93184 75.91314 78.68274 86.07499 88.84459 96.226879 99.54442 103.96781 108.391208 112.8146 117.7959 122.97645 127.95775 132.38115 136.80455 140.1221 143.99756 148.90912 152.22667 155.54422 160.52552 170.68737 177.33242 185.8305 190.2539 195.2352 199.6586 204.6399 207.4095 213.68595 218.10935 222.53275 227.51404 230.28365 234.45798 239.43927 242.20888 247.19017 254.58242 258.45787 263.43916 268.42045 272.84385 276.16139 281.14268 286.12397">rapidlyinrecentyears,fromRLagentsachievingsuperhu-</tspan></text>
<text xml:space="preserve" transform="matrix(1 0 -0 1 0 792)" font-size="9.9626" font-family="NimbusRomNo9L"><tspan y="-317.095" x="55.44 63.190904 67.614299 74.8073 79.7886 84.21199 87.52953 90.84708 95.82838 99.14592 106.89682 111.32021 116.30151 120.72491 127.35004 130.11965 137.31264 141.73604 146.71733 154.46823 159.44953 163.87293 166.64253 169.41214 172.18175 174.70229 179.53414 186.16924 191.10071 195.52411 203.27501 207.69841 213.78557">manperformanceincompetitivegames(</tspan></text>
<text fill="#00ff00" xml:space="preserve" transform="matrix(1 0 -0 1 0 792)" font-size="9.9626" font-family="NimbusRomNo9L"><tspan y="-317.095" x="217.1031 222.6423 225.41191 228.18152 233.01337 237.43677 242.95606 247.37946 252.36077 256.78416 259.55375">Silveretal.</tspan></text>
<text xml:space="preserve" transform="matrix(1 0 -0 1 0 792)" font-size="9.9626" font-family="NimbusRomNo9L"><tspan y="-317.095" x="262.0444">,</tspan></text>
<text fill="#00ff00" xml:space="preserve" transform="matrix(1 0 -0 1 0 792)" font-size="9.9626" font-family="NimbusRomNo9L"><tspan y="-317.095" x="266.7467 271.728 276.7093 281.69059">2016</tspan></text>
<text xml:space="preserve" transform="matrix(1 0 -0 1 0 792)" font-size="9.9626" font-family="NimbusRomNo9L"><tspan y="-317.095" x="286.6719">;</tspan></text>
<text fill="#00ff00" xml:space="preserve" transform="matrix(1 0 -0 1 0 792)" font-size="9.9626" font-family="NimbusRomNo9L"><tspan y="-305.14" x="55.44 60.4213 65.402599 70.383899">2018</tspan></text>
<text xml:space="preserve" transform="matrix(1 0 -0 1 0 792)" font-size="9.9626" font-family="NimbusRomNo9L"><tspan y="-305.14" x="75.3652">;</tspan></text>
<text fill="#00ff00" xml:space="preserve" transform="matrix(1 0 -0 1 0 792)" font-size="9.9626" font-family="NimbusRomNo9L"><tspan y="-305.14" x="81.32283 88.51583 93.49713 97.920528 102.901828 110.094829 116.59044 121.01383 126.9615 131.3849 134.15451">OpenAIetal.</tspan></text>
<text xml:space="preserve" transform="matrix(1 0 -0 1 0 792)" font-size="9.9626" font-family="NimbusRomNo9L"><tspan y="-305.14" x="136.6452">,</tspan></text>
<text fill="#00ff00" xml:space="preserve" transform="matrix(1 0 -0 1 0 792)" font-size="9.9626" font-family="NimbusRomNo9L"><tspan y="-305.14" x="142.3238 147.3051 152.28639 157.26769">2019</tspan></text>
<text xml:space="preserve" transform="matrix(1 0 -0 1 0 792)" font-size="9.9626" font-family="NimbusRomNo9L"><tspan y="-305.14" x="162.249 168.74462 171.51422 179.68355 184.66484 189.08824 194.06954 198.49294 201.81049 206.23389 209.0035 211.52404 216.35588 223.95735 231.70825 236.68955 241.67084 246.09424 248.86385 255.92734 259.8028 264.7841 269.51634 276.70933 279.4789 284.4602">)togenerativemodelsshowing</tspan></text>
<text xml:space="preserve" transform="matrix(1 0 -0 1 0 792)" font-size="9.9626" font-family="NimbusRomNo9L"><tspan y="-293.184" x="55.44 59.31545 62.085054 67.06635 72.04765 78.30416 83.28546 88.974109 93.95541 98.3788 103.3601 107.78349 111.101039 115.52443 120.67509 123.44469 128.42598 131.19559 135.61899 138.3886 141.1582 143.92781 148.9091 153.3325 158.3138 162.7372 169.5317">signsofgeneralintelligence(</tspan></text>
<text fill="#00ff00" xml:space="preserve" transform="matrix(1 0 -0 1 0 792)" font-size="9.9626" font-family="NimbusRomNo9L"><tspan y="-293.184" x="172.8492 180.04219 185.02349 189.44689 194.42818 201.62117">OpenAI</tspan></text>
<text xml:space="preserve" transform="matrix(1 0 -0 1 0 792)" font-size="9.9626" font-family="NimbusRomNo9L"><tspan y="-293.184" x="204.9388">,</tspan></text>
<text fill="#00ff00" xml:space="preserve" transform="matrix(1 0 -0 1 0 792)" font-size="9.9626" font-family="NimbusRomNo9L"><tspan y="-293.184" x="209.8105 214.7918 219.77309 224.75438">2023</tspan></text>
<text xml:space="preserve" transform="matrix(1 0 -0 1 0 792)" font-size="9.9626" font-family="NimbusRomNo9L"><tspan y="-293.184" x="229.7357">;</tspan></text>
<text fill="#00ff00" xml:space="preserve" transform="matrix(1 0 -0 1 0 792)" font-size="9.9626" font-family="NimbusRomNo9L"><tspan y="-293.184" x="234.8864 241.53145 246.51274 251.49404 255.91744 260.34083 267.6932 272.1166 277.26728 281.69068 284.46028">Bubecketal.</tspan></text>
<text xml:space="preserve" transform="matrix(1 0 -0 1 0 792)" font-size="9.9626" font-family="NimbusRomNo9L"><tspan y="-293.184" x="286.9509">,</tspan></text>
<text fill="#00ff00" xml:space="preserve" transform="matrix(1 0 -0 1 0 792)" font-size="9.9626" font-family="NimbusRomNo9L"><tspan y="-281.229" x="55.44 60.4213 65.402599 70.383899">2023</tspan></text>
<text xml:space="preserve" transform="matrix(1 0 -0 1 0 792)" font-size="9.9626" font-family="NimbusRomNo9L"><tspan y="-281.229" x="75.3652 78.68274 87.01147 94.20447 98.93671 106.12971 110.30404 115.1359 119.559299 122.47833 128.60533 133.58663 138.01003 141.88549 144.65509 149.63639 154.61768 157.38729 162.36858 170.74712 177.94011 184.66487 188.54033 193.52162 197.39708 200.16669 204.59009 212.34099 219.62366 226.81665 229.58626 232.35587 240.74437 245.72566 250.70696 255.68825">).However,designingAIsystemswithgood</tspan></text>
<text xml:space="preserve" transform="matrix(1 0 -0 1 0 792)" font-size="9.9626" font-family="NimbusRomNo9L" font-style="italic"><tspan y="-281.229" x="264.076 270.72105 275.70234 279.47816 283.3536 286.1232">worst-</tspan></text>
<text xml:space="preserve" transform="matrix(1 0 -0 1 0 792)" font-size="9.9626" font-family="NimbusRomNo9L" font-style="italic"><tspan y="-269.274" x="55.44 59.86339 64.84469 68.72014">case</tspan></text>
<text xml:space="preserve" transform="matrix(1 0 -0 1 0 792)" font-size="9.9626" font-family="NimbusRomNo9L"><tspan y="-269.274" x="77.988 82.9693 87.39269 90.710239 94.02778 99.00908 102.32662 110.07752 114.500919 119.482219 123.90561 133.17084 136.48839 140.91179 148.66269 153.08609 155.8557 160.83699 169.55428 173.97768 183.81076 188.79206 193.77335 198.19675 208.01987 213.00116 216.31871 221.3 226.2813 229.0509 233.4743 241.2252 253.85778 261.05079 266.03208 275.30726 280.1889 284.46287">performanceremainsanopenproblem.Onekey</tspan></text>
<text xml:space="preserve" transform="matrix(1 0 -0 1 0 792)" font-size="9.9626" font-family="NimbusRomNo9L"><tspan y="-257.319" x="55.44 60.4213 65.402599 69.82599 73.70144 76.47104 79.24064 84.22194 91.46475 94.23435 100.38127 107.57427 112.55557 116.978969 119.748569 124.729869 129.15326 134.73232 138.95647 143.78832 148.21172 151.52927 155.95267 160.93396 165.35736 168.67491 173.09832 177.52172 181.39717 188.09204 193.07334 197.49674 200.81429 204.13184 209.11313 212.43068 220.18158 224.60498 229.58628 234.00968 240.69458 245.62606 250.04946 252.81906 257.80036 263.93733 268.36073 272.78413 280.0369 285.0182">questioniswhetheraverage-caseperformancegainscanbe</tspan></text>
<text xml:space="preserve" transform="matrix(1 0 -0 1 0 792)" font-size="9.9626" font-family="NimbusRomNo9L"><tspan y="-245.364" x="55.44 58.209604 61.52715 65.95055 70.93185 74.8073 77.5769 82.00029 84.76989 89.19328 97.03385 99.80345 104.78475 107.55435 115.38496 122.47833 127.45963 130.77718 134.65264 137.42224 140.73979 145.1632 149.5866 153.46205 160.74472 164.06227 169.04357 173.8256 178.8069 182.68236 185.45197 190.43326 194.85666 198.73212 202.60758 209.28252 212.60007 218.77689 222.65235 227.63364 233.07321 235.84282 240.82411 245.24752 253.07811 257.5015 260.56999 263.8875 268.8688 272.18635 274.95594 281.69065 284.46025">translatedintoworst-caserobustness.Ifso,theneffortsto</tspan></text>
<text xml:space="preserve" transform="matrix(1 0 -0 1 0 792)" font-size="9.9626" font-family="NimbusRomNo9L"><tspan y="-233.409" x="55.44 58.209604 63.190904 67.614299 70.93184 75.35523 79.778629 83.654079 90.43861 94.66275 99.49461 103.91801 107.23555 111.65894 116.64024 121.06364 124.38118 128.80458 133.22798 137.10344 143.88797 148.86927 153.29267 156.61022 159.92777 164.90906 168.22661 175.97751 180.40091 185.3822 189.8056 196.58019 200.45565 205.43694 209.86034 217.20276 221.62616 227.86275 230.63236 235.61365 238.9312 243.91249 248.89379 253.87508 261.21754 265.093 269.5164 273.9398 276.70939 279.47898 284.46028">increaseaverage-caseperformancesuchasthroughscaling</tspan></text>
<text xml:space="preserve" transform="matrix(1 0 -0 1 0 792)" font-size="9.9626" font-family="NimbusRomNo9L"><tspan y="-221.453" x="55.44 63.190904 68.1722 73.1535 77.5769 80.3465 87.937999 95.03137 100.01267 104.99397 107.76357 116.47089 121.45219 125.87558 128.64519 133.62648 136.94403 141.36743 144.13704 146.90665 155.60399 158.3736 162.797 167.2204 175.9277 178.69731 187.39466 190.7122 195.6935 200.47554 205.45684 209.33229 212.1019 217.08319 221.50659 225.38205 229.2575 238.52272 247.1304 255.26985 260.80906 265.79035 274.49766 277.26725 282.24855 286.67195">modelswouldnaturallyleadtorobustness.We&#xfb01;ndthat</tspan></text>
<text xml:space="preserve" transform="matrix(1 0 -0 1 0 792)" font-size="9.9626" font-family="NimbusRomNo9L"><tspan y="-209.498" x="55.44 59.614328 64.44619 68.86958 78.154727 82.030178 87.011478 91.992778 96.41617 99.73371 104.71501 109.69631 117.44721 121.870609 131.14579 135.02124 140.00254 143.87799 146.6476 151.071 158.8219 167.0012 171.4246 175.848 185.12319 188.34111 192.76451 195.53412 202.60758 207.03098 211.45438 214.22399 218.64739 222.52285 225.29245 228.61 233.5913 238.57259 243.55388 246.32349 250.74689 255.17029 257.93989 260.70948 265.04319 272.286 276.16148 281.14277 286.12406">evensuperhumansystemscanfailcatastrophically,sug-</tspan></text>
<text xml:space="preserve" transform="matrix(1 0 -0 1 0 792)" font-size="9.9626" font-family="NimbusRomNo9L"><tspan y="-197.543" x="55.44 60.4213 64.844699 68.720149 71.489749 74.259349 79.24065 87.0314 89.801 94.7823 99.205699 104.79471 109.2181 113.641498 118.622798 123.04619 128.02748 130.79709 133.5667 136.3363 139.10591 141.87552 146.29892 152.98383 157.40723 160.72478 167.95763 172.93892 177.92021 183.50923 187.93264 192.91393 197.89522 202.87651 207.8578 212.8391 219.33472 226.57753 231.55883 235.98223 240.96352 243.73313 248.15653 252.57993 255.34954 259.77293 267.56367 271.98707 275.05555 278.37309 283.35438 286.6719">gestingthatcapabilitiesarenotenough:adedicatedeffort</tspan></text>
<text xml:space="preserve" transform="matrix(1 0 -0 1 0 792)" font-size="9.9626" font-family="NimbusRomNo9L"><tspan y="-185.588" x="55.44 62.632997 65.402599 68.172199 73.43244 78.41374 85.32778 90.30908 94.732479 99.15587 104.13717 108.56056 116.03251 118.80211 126.274059 134.02497 138.44837 143.33003 150.24408 154.11954 159.10083 162.97629 165.7459 170.1693 177.9202 184.2863 187.60385 192.58515 197.36719 202.34848 206.22394 208.99355">willbeneededtomakesystemsrobust.</tspan></text>
<text xml:space="preserve" transform="matrix(1 0 -0 1 0 792)" font-size="9.9626" font-family="NimbusRomNo9L"><tspan y="-167.655" x="55.44 58.757547 65.87084 70.85214 75.275539 78.59308 81.36268 84.13228 88.55567 93.53697 96.30657 100.729969 103.649 108.35135 115.54435 122.09974 127.63895 132.62024 139.73354 144.71483 149.69612 152.46573 157.44702 161.87042 165.18798 169.61138 174.59267 177.36228 180.13188 182.90149 185.6711 188.4407 192.8641 198.87157 201.64118 208.75447 215.94747 220.37087 223.14048 227.56388 234.75687 241.88011">Inparticular,we&#xfb01;ndvulnerabilitiesinKataGo(</tspan></text>
<text fill="#00ff00" xml:space="preserve" transform="matrix(1 0 -0 1 0 792)" font-size="9.9626" font-family="NimbusRomNo9L"><tspan y="-167.655" x="245.1976 254.10417">Wu</tspan></text>
<text xml:space="preserve" transform="matrix(1 0 -0 1 0 792)" font-size="9.9626" font-family="NimbusRomNo9L"><tspan y="-167.655" x="259.0855">,</tspan></text>
<text fill="#00ff00" xml:space="preserve" transform="matrix(1 0 -0 1 0 792)" font-size="9.9626" font-family="NimbusRomNo9L"><tspan y="-167.655" x="263.7082 268.68949 273.67079 278.65208">2019</tspan></text>
<text xml:space="preserve" transform="matrix(1 0 -0 1 0 792)" font-size="9.9626" font-family="NimbusRomNo9L"><tspan y="-167.655" x="283.6334 286.95094">),</tspan></text>
<text xml:space="preserve" transform="matrix(1 0 -0 1 0 792)" font-size="9.9626" font-family="NimbusRomNo9L"><tspan y="-155.7" x="55.44 58.209604 63.190904 70.16472 74.04017 76.80977 80.12731 85.10861 90.08991 95.07121 99.494609 103.370059 108.69008 113.67138 118.65268 123.63398 126.40358 129.17319 133.59659 136.3662 143.90789 148.13204 152.86426 157.28766 160.05727 162.82688 167.25028 172.23157 175.00118 181.975 189.168 194.14929 197.46685 202.44814 205.21775 209.64115 214.62244 217.39205 222.37334 229.90506 237.09806 242.96604 246.84149 251.82279 255.69824 258.46784 262.89125 270.64216 276.41053 285.01823">thestrongestpubliclyavailableGo-playingAIsystem.We</tspan></text>
<path transform="matrix(1,0,0,-1,55.44,644.63406)" stroke-width=".398" stroke-linecap="butt" stroke-miterlimit="10" stroke-linejoin="miter" fill="none" stroke="#000000" d="M0 0H57.6"/>
<text xml:space="preserve" transform="matrix(1 0 -0 1 0 792)" font-size="5.9776" font-family="NimbusRomNo9L"><tspan y="-140.524" x="64.955">*</tspan></text>
<text xml:space="preserve" transform="matrix(1 0 -0 1 0 792)" font-size="8.9664" font-family="NimbusRomNo9L"><tspan y="-136.715" x="68.442 73.92047 78.40367 82.88687 86.86795 93.02787 97.00895 101.49215 105.97535 108.46801 111.45382 113.94648 118.25035 122.73355 125.21725 127.70991 132.19312">Equalcontribution</tspan></text>
<text xml:space="preserve" transform="matrix(1 0 -0 1 0 792)" font-size="5.9776" font-family="NimbusRomNo9L"><tspan y="-140.524" x="144.008">1</tspan></text>
<text xml:space="preserve" transform="matrix(1 0 -0 1 0 792)" font-size="8.9664" font-family="NimbusRomNo9L"><tspan y="-136.715" x="147.495 155.46613 158.45194">MIT</tspan></text>
<text xml:space="preserve" transform="matrix(1 0 -0 1 0 792)" font-size="5.9776" font-family="NimbusRomNo9L"><tspan y="-140.524" x="167.592">2</tspan></text>
<text xml:space="preserve" transform="matrix(1 0 -0 1 0 792)" font-size="8.9664" font-family="NimbusRomNo9L"><tspan y="-136.715" x="171.079 177.55274 187.19162 193.17221 197.15329 200.1391 204.53264 208.51372 211.00638 214.85297">UCBerkeley</tspan></text>
<text xml:space="preserve" transform="matrix(1 0 -0 1 0 792)" font-size="5.9776" font-family="NimbusRomNo9L"><tspan y="-140.524" x="223.003">3</tspan></text>
<text xml:space="preserve" transform="matrix(1 0 -0 1 0 792)" font-size="8.9664" font-family="NimbusRomNo9L"><tspan y="-136.715" x="226.49 230.81182 237.28556 246.92444 253.39818">FARAI</tspan></text>
<text xml:space="preserve" transform="matrix(1 0 -0 1 0 792)" font-size="5.9776" font-family="NimbusRomNo9L"><tspan y="-140.524" x="260.05">4</tspan></text>
<text xml:space="preserve" transform="matrix(1 0 -0 1 0 792)" font-size="8.9664" font-family="NimbusRomNo9L"><tspan y="-136.715" x="263.537 271.50813 275.4892 281.96296 284.4556 286.94825">McGill</tspan></text>
<text xml:space="preserve" transform="matrix(1 0 -0 1 0 792)" font-size="8.9664" font-family="NimbusRomNo9L"><tspan y="-126.752" x="55.44 61.913743 66.39694 68.66544 73.014148 76.995227 79.98103 83.46896 85.961627 88.454288 92.937488 105.302158 113.273288 115.765949 118.258609 122.239688 142.52169 148.50228 152.98548 155.97129 158.95709 162.93817 166.4261 170.9093 175.3925 179.8757 184.3589 188.33998 192.82318 196.80426 208.11986 210.61252 215.09572 230.53586 235.29701 239.78022 244.12892 255.94664 268.75068 276.49766 280.47874 284.9619">University;Mila.Correspondenceto:TonyTWang</tspan></text>
<text xml:space="preserve" transform="matrix(1 0 -0 1 0 792)" font-size="8.9664" font-family="NimbusRomNo9L"><tspan y="-116.79" x="55.44 60.497049 62.989709 69.37379 73.354869 77.838069 82.321269 86.80447 95.06252 102.03838 104.531047 107.023708 109.265308 113.24638 117.72958 122.21278 127.26984 131.75305 138.22679 142.70999 146.69107 155.90854 162.38228 164.87494 168.85602 172.65778 177.00649 183.22916 188.28621 192.26729 196.75049 200.73157 207.70743 215.96549 218.86164 222.84272 225.33538 227.57697 231.55805 234.0507 239.10776">&#x003c;twang6@mit.edu&#x003e;,AdamGleave&#x003c;adam@far.ai&#x003e;.</tspan></text>
<text xml:space="preserve" transform="matrix(1 0 -0 1 0 792)" font-size="8.9664" font-family="NimbusRomNo9L" font-style="italic"><tspan y="-96.864" x="55.44 60.91847 64.00291 68.48611 72.467189 76.448268 80.429347 84.912548 87.405208 91.888408 96.371608 103.40126 107.88446 113.92782 116.42048 120.90368">Proceedingsofthe</tspan></text>
<text xml:space="preserve" transform="matrix(1 0 -0 1 0 792)" font-size="8.9664" font-family="CMTI9" font-style="italic"><tspan y="-96.864" x="128.425 133.12967">40</tspan></text>
<text xml:space="preserve" transform="matrix(1 0 -0 1 0 792)" font-size="5.9776" font-family="CMMI6" font-style="italic"><tspan y="-100.673" x="139.044 141.89412">th</tspan></text>
<text xml:space="preserve" transform="matrix(1 0 -0 1 0 792)" font-size="8.9664" font-family="NimbusRomNo9L" font-style="italic"><tspan y="-96.864" x="150.275 153.2608 157.744 160.23667 164.21775 167.70568 172.18888 176.67208 179.16474 181.6574 186.1406 190.6238 195.107 201.14139 207.12198 211.60518 216.08838 218.58104 222.56212 225.71829 229.69937 234.18257 238.16365 245.69542 250.17862 258.20356 265.67259 270.15577 274.00236 278.48554 280.97819 285.46138">InternationalConferenceonMachine</tspan></text>
<text xml:space="preserve" transform="matrix(1 0 -0 1 0 792)" font-size="8.9664" font-family="NimbusRomNo9L" font-style="italic"><tspan y="-86.902" x="55.44 60.425317 64.406398 68.889598 72.377529 76.860729 79.353389 83.836589">Learning</tspan></text>
<text xml:space="preserve" transform="matrix(1 0 -0 1 0 792)" font-size="8.9664" font-family="NimbusRomNo9L"><tspan y="-86.902" x="88.32 93.03632 99.51006 103.99326 108.47646 112.95966 115.452327 119.935527 122.428188 126.911388 131.63668 138.11042 141.957 148.34108 152.32216 154.81482 157.30748 162.0238 168.49755 173.48287 179.9566 184.62812 189.61344 197.58457 203.06304 211.47353 215.95673 220.43993 224.92313 229.63947 234.12267 238.60587 243.08907 247.57227 253.16732 259.1479 263.6311 268.02467 272.50788 275.49369 277.98634 282.46955 286.95277">,Honolulu,Hawaii,USA.PMLR202,2023.Copyright</tspan></text>
<text xml:space="preserve" transform="matrix(1 0 -0 1 0 792)" font-size="8.9664" font-family="NimbusRomNo9L"><tspan y="-76.939" x="55.44 59.9232 64.4064 68.8896 75.6144 80.0976 86.8224 89.31506 93.79826 100.02094 104.00202 108.48522 110.97788 115.46108 119.94428 122.93009 125.9159 129.40383 132.38964">2023bytheauthor(s).</tspan></text>
<text xml:space="preserve" transform="matrix(1 0 -0 1 0 792)" font-size="9.9626" font-family="NimbusRomNo9L"><tspan y="-609.73" x="307.44 312.97923 317.9605 325.48228 328.25187 333.23316 337.65657 341.532 348.4859 353.4672 358.4485 361.21809 366.19938 370.62278 373.9403 378.3637 383.345 386.1146 388.8842 391.65379 394.42338 397.19297 401.61637 408.0323 413.01359 420.53535 423.30494 426.62248 431.04588 433.81547 438.79676 441.56636 446.54765 454.0694 458.4928 463.4741 468.30595 472.72935 476.04689 479.92234 484.34574 487.66328 490.43287 494.8463 500.15638 505.13768 510.11897 512.88858 515.65817 520.08157 522.85116 527.27456 533.6904 536.46">&#xfb01;ndthesevulnerabilitiesbytrainingadversarialpoliciesto</tspan></text>
<text xml:space="preserve" transform="matrix(1 0 -0 1 0 792)" font-size="9.9626" font-family="NimbusRomNo9L"><tspan y="-597.775" x="307.44 312.4213 316.8447 321.2681 326.81727 334.01026 338.43367 341.20326 345.62666 352.81965 357.80094 364.24674 371.43974 375.3152 378.08479 383.06608 390.82695 393.59654 398.01994 401.8954 408.5504 411.32 416.3013 420.7247">beatKataGo.Usinglessthan</tspan></text>
<text xml:space="preserve" transform="matrix(1 0 -0 1 0 792)" font-size="9.9626" font-family="CMR10"><tspan y="-597.775" x="428.483 433.4643 438.4456">14%</tspan></text>
<text xml:space="preserve" transform="matrix(1 0 -0 1 0 792)" font-size="9.9626" font-family="NimbusRomNo9L"><tspan y="-597.775" x="449.527 454.5083 460.6054 463.375 468.3563 475.55928 479.98268 484.96397 492.71488 497.69618 502.67747 505.44706 512.65 517.63137 521.5068 525.9302 533.69107 536.46066">ofthecomputeusedto</tspan></text>
<text xml:space="preserve" transform="matrix(1 0 -0 1 0 792)" font-size="9.9626" font-family="NimbusRomNo9L"><tspan y="-585.82" x="307.44 310.2096 313.52714 317.95054 320.72013 327.87327 335.06626 339.48966 342.25926 346.68266 353.87565 358.85694 363.57923 370.77223 377.36747 382.34877 387.33006 390.09965 394.52305 397.29264 404.44578 408.86918 413.85047 418.6823 423.1057 426.42326 430.2987 434.7221 438.03965 440.80924 445.23265 450.16413 455.14543 460.1267 462.8963 465.6659 470.0893 472.8589 477.2823 483.3296 486.09919 491.08049 495.50389 500.4453 507.6383 510.4079 517.5611">trainKataGo,weobtainadversarialpoliciesthatwin&#x003e;</tspan></text>
<text xml:space="preserve" transform="matrix(1 0 -0 1 0 792)" font-size="9.9626" font-family="CMR10"><tspan y="-585.82" x="523.175 528.1563 533.13766">99%</tspan></text>
<text xml:space="preserve" transform="matrix(1 0 -0 1 0 792)" font-size="9.9626" font-family="NimbusRomNo9L"><tspan y="-573.864" x="307.44 312.4213 319.16596 321.93556 326.91685 334.75743 337.527 340.2966 348.04753 355.89805 360.32145 365.25294 369.67634 372.44593 377.42723 381.30268 387.4994 394.69239 399.11579 401.88539 406.30879 413.50178 421.9102 429.10319 431.87278 434.64237 443.04084 448.02214 456.43055 460.306 464.7294 469.1528 472.47035 476.89375 481.87504 488.02198 492.44538 497.42668 505.83509">ofthetimeagainstKataGowithnosearch,and&#x003e;</tspan></text>
<text xml:space="preserve" transform="matrix(1 0 -0 1 0 792)" font-size="9.9626" font-family="CMR10"><tspan y="-573.864" x="511.452 516.4333 521.4146">97%</tspan></text>
<text xml:space="preserve" transform="matrix(1 0 -0 1 0 792)" font-size="9.9626" font-family="NimbusRomNo9L"><tspan y="-573.864" x="533.141 538.1223">of</tspan></text>
<text xml:space="preserve" transform="matrix(1 0 -0 1 0 792)" font-size="9.9626" font-family="NimbusRomNo9L"><tspan y="-561.909" x="307.44 310.2096 315.1909 323.01155 325.78114 328.55073 336.30165 344.13224 348.55564 353.48713 357.91053 360.6801 365.6614 369.53688 375.7037 382.8967 387.3201 390.0897 394.5131 401.7061 410.09458 417.28758 420.05717 422.82676 431.2053 435.6287 440.61 445.59129 450.57258 455.55387 463.94236 467.8178 472.2412 476.6646 479.98216 484.40556 492.7841 495.55369 503.93223 508.9135 516.74417 520.61959 525.6009 530.5822 535.0056 538.1239">thetimeagainstKataGowithenoughsearchtobesuper-</tspan></text>
<text xml:space="preserve" transform="matrix(1 0 -0 1 0 792)" font-size="9.9626" font-family="NimbusRomNo9L"><tspan y="-549.954" x="307.44 312.4213 317.4026 325.1535 329.5769 334.5582 342.75743 349.40248 352.72 355.4896 358.2592 361.02879 365.45219 369.87559 372.64518 375.41477 379.74848 385.82569 390.80699 395.78828 402.4632 406.8866 411.8679 416.69975 421.12315 424.44068 428.31614 432.73954 436.05708 438.82667 443.25007 450.4929 455.47419 463.82286 468.80415 473.78544 479.9124 487.1054 489.875 498.22367 503.20497 511.55363 516.5349 519.3045 523.7279 528.7092 531.4788 536.46017">human.Critically,ouradversariesdonotwinbyplaying</tspan></text>
<text xml:space="preserve" transform="matrix(1 0 -0 1 0 792)" font-size="9.9626" font-family="NimbusRomNo9L"><tspan y="-537.999" x="307.44 314.633 322.74256 329.93556 334.35896 337.12855 339.89814">Gowell.</tspan></text>
<text fill="#0000ff" xml:space="preserve" transform="matrix(1 0 -0 1 0 792)" font-size="6.9738" font-family="NimbusRomNo9L"><tspan y="-541.614" x="342.39">1</tspan></text>
<text xml:space="preserve" transform="matrix(1 0 -0 1 0 792)" font-size="9.9626" font-family="NimbusRomNo9L"><tspan y="-537.999" x="351.379 354.69654 359.67784 363.55329 366.32289 370.74629 375.16969 380.15098 385.9293 388.69889 393.68019 397.95414 406.0637 408.83329 412.15083 414.9204 419.3438 427.45338 434.64637 439.06977 441.83937 446.26277 453.45576 461.5653 464.3349 469.3162 472.0858 480.19535 487.94627 492.36967 497.35096 500.12055 505.10185 513.2214 517.08688 521.51028 524.8278 527.5974 532.57876 537.56008">Instead,theytrickKataGointomakingserious</tspan></text>
<text xml:space="preserve" transform="matrix(1 0 -0 1 0 792)" font-size="9.9626" font-family="NimbusRomNo9L"><tspan y="-526.044" x="307.44 312.4213 315.1909 320.17219 325.15348 330.13478 334.55818 337.8757 344.24183 347.0114 351.9927 356.4161 361.67637 366.09977 370.52317 375.50447 379.3799 386.29399 389.06358 394.32383 397.0934 404.56538 407.33497 412.31626 416.1917 423.10578 425.87538 430.85667 437.77073 442.7022 447.1256 454.87654 461.7906 465.10813 470.64735 473.41694 478.39823 483.37953 486.69706">blundersthatcauseittolosethegame(Figure</tspan></text>
<text fill="#0000ff" xml:space="preserve" transform="matrix(1 0 -0 1 0 792)" font-size="9.9626" font-family="NimbusRomNo9L"><tspan y="-526.044" x="493.6111 498.5924 501.08308">1.1</tspan></text>
<text xml:space="preserve" transform="matrix(1 0 -0 1 0 792)" font-size="9.9626" font-family="NimbusRomNo9L"><tspan y="-526.044" x="506.0644 509.38194">).</tspan></text>
<text xml:space="preserve" transform="matrix(1 0 -0 1 0 792)" font-size="9.9626" font-family="NimbusRomNo9L"><tspan y="-508.111" x="307.44 314.633 319.6143 324.92436 329.34776 334.32905 339.1609 343.5843 346.90184 350.77729 355.20069 358.51823 361.2878 365.7112 371.5792 374.3488 377.66633 382.08973 387.071 390.94648 394.264 398.6874 403.99748 408.42088 412.84428 416.1618 421.1431 424.46064 428.3361 433.31739 438.29869 443.0508 445.8204 452.79423 457.7755 460.5451 465.5264 469.9498 475.25987 479.1353 484.1166 489.0979 493.5213 496.83885 501.82014 506.80143 514.5523 518.9757 525.9495 533.1425 538.12387">Ouradversariestransferzero-shottoothersuperhumanGo-</tspan></text>
<text xml:space="preserve" transform="matrix(1 0 -0 1 0 792)" font-size="9.9626" font-family="NimbusRomNo9L"><tspan y="-496.156" x="307.44 312.4213 315.1909 319.6143 324.59559 327.36518 332.34648 339.9778 347.1708 350.48835 354.3638 359.54438 363.96778 368.94908 376.57044 379.34004 384.32133 391.39479 395.27024 398.03984 401.35737 405.78077 408.55036 412.8243 417.8056 425.43696 428.20655 433.18785 437.4618 445.09315 450.07444 453.9499 461.02336 465.44676 469.87016 477.49153 482.4728 489.54627 492.8638 497.2872 502.2685 505.0381 507.80769 512.2311 516.6545 519.4241 523.8475 531.4788 536.46017">playingAIs,andthestrategytheyusecanbereplicatedby</tspan></text>
<text xml:space="preserve" transform="matrix(1 0 -0 1 0 792)" font-size="9.9626" font-family="NimbusRomNo9L"><tspan y="-484.201" x="307.44 312.4213 317.4026 325.1535 329.5769 338.21449 342.48844 347.46974 352.45103 356.87443 360.19197 362.96156 370.4833 373.2529 381.89048 386.31388 391.29518 396.27647 400.15193 402.9215 406.79698 409.56657 413.98997 418.97126 421.74085 424.51045 433.148 438.1293 442.5527 446.9761 453.392 461.1429 465.5663 470.39817 479.03575 484.01704 486.78663 489.8551 493.17265 497.59605 500.91358 505.33699 510.31828 516.74417 520.61959 525.6009 530.5822 535.0056 538.1239">humanexpertstoconsistentlybeatmanydifferentsuper-</tspan></text>
<text xml:space="preserve" transform="matrix(1 0 -0 1 0 792)" font-size="9.9626" font-family="NimbusRomNo9L"><tspan y="-472.246" x="307.44 312.4213 317.4026 325.1535 329.5769 337.22819 344.42118 347.7387 354.2941 357.61164 363.15086 367.57426 371.99766 374.76725 377.53684 382.51814">humanAIs(Section</tspan></text>
<text fill="#0000ff" xml:space="preserve" transform="matrix(1 0 -0 1 0 792)" font-size="9.9626" font-family="NimbusRomNo9L"><tspan y="-472.246" x="390.1694 395.1507 397.64137">7.1</tspan></text>
<text xml:space="preserve" transform="matrix(1 0 -0 1 0 792)" font-size="9.9626" font-family="NimbusRomNo9L"><tspan y="-472.246" x="402.6227 405.94026 412.06727 420.924 425.9053 429.22285 433.64625 438.4781 443.30995 447.73335 450.65238 455.85289 458.62248 463.60377 470.7071 475.1305 480.1118 483.42933 490.5227 495.504 500.4853 503.25489 508.23619 512.65957 515.9771 520.4005 525.38186 528.1514 530.921 533.6906 536.4602">).Moreover,thecorevulnerability</tspan></text>
<text xml:space="preserve" transform="matrix(1 0 -0 1 0 792)" font-size="9.9626" font-family="NimbusRomNo9L"><tspan y="-460.29" x="307.44 312.4213 317.4026 321.826 326.65785 331.4897 335.9131 339.23063 343.65403 350.91676 355.89805 363.17076 368.15205 373.13334 378.7323 383.1557 385.9253 388.6949 393.1183 397.5417 404.8044 409.7857 414.2091 417.52665 421.4021 424.1717 428.04716 430.81675 436.9836 441.15797 445.9898 450.4132 457.67594 460.44554 467.70826 474.90126 479.32466 482.09425 486.51765 493.71064 500.98335 505.40675 510.38804 514.8114 519.7927 522.5623 528.7192 533.1426 538.1239">uncoveredbyourattackpersistseveninKataGoagentsad-</tspan></text>
<text xml:space="preserve" transform="matrix(1 0 -0 1 0 792)" font-size="9.9626" font-family="NimbusRomNo9L"><tspan y="-448.335" x="307.44 312.27186 316.69526 320.0128 323.88825 328.31166 331.62919 334.39878 338.82218 341.59178 344.36137 352.08238 354.85197 358.1695 362.5929 365.3625 370.34379 374.76719 382.47825 385.24784 392.96885 397.95014 402.37355 405.69108 410.11448 415.09577 422.81678 427.24018 432.17167 436.59507 439.36466 444.34596 448.2214 453.72077 458.70207 463.68336 469.7406 474.164 476.9336 479.7032 484.1266 488.55 493.53129 498.82145 502.6969 507.6782 512.6595 517.6408 522.0642 525.93966 528.7092 531.4788 536.46017">versariallytrainedtodefendagainstourattack,suggesting</tspan></text>
<text xml:space="preserve" transform="matrix(1 0 -0 1 0 792)" font-size="9.9626" font-family="NimbusRomNo9L"><tspan y="-436.38" x="307.44 310.2096 315.1909 319.6143 324.87455 327.64414 332.62544 339.5395 344.52079 349.50209 352.27168 357.25297 361.67637 364.9939 369.4173 374.3986 377.16819 379.93778 382.70738 385.47697 392.9489 395.7185 402.08464 407.06593 412.0472 417.0285 420.34605 423.11564 426.43318 428.9537 433.935 436.7046 441.128 446.38825 449.15785 456.6298 461.61109 466.0345 468.80409 473.22749 478.20878">thatthevulnerabilityisnon-trivialtopatch.</tspan></text>
<text xml:space="preserve" transform="matrix(1 0 -0 1 0 792)" font-size="9.9626" font-family="NimbusRomNo9L"><tspan y="-418.447" x="307.44 316.0477 324.52589 328.94929 333.93058 338.91188 342.78733 351.2655 354.0351 363.07118 367.49458 370.26417 373.03376 377.45716 381.88056 390.91664 398.10963 402.53303 405.3026 409.726 416.919 425.95509 430.37849 438.30873 445.5017 453.98985 458.2638 463.2451 468.22639 472.64979 477.07319 479.84278 484.26618 493.30226 496.07185 502.8962 505.6658 514.70187 519.68319 528.1613 533.14266 538.12399">WechosetoattackKataGoasweexpectedittobeun-</tspan></text>
<text xml:space="preserve" transform="matrix(1 0 -0 1 0 792)" font-size="9.9626" font-family="NimbusRomNo9L"><tspan y="-406.492" x="307.44 312.4213 316.29676 321.27806 325.70146 328.47105 331.24064 340.15718 344.58058 349.56187 353.98527 356.75486 359.52445 363.94786 368.92915 373.91044 376.68003 381.66133 390.5878 393.3574 402.27394 406.54789 411.52919 416.51048 419.28007 424.26136 427.03096 429.80055 436.59504 440.4705 445.45179 449.87519 458.80168 461.57127 466.55256 470.97596 477.6808 486.03944 489.9149 494.89619 499.31959 503.74299 508.16639 512.0418 515.91726 519.2348 524.2161 530.9309 535.3543 538.1239">usuallychallengingtoexploit,suchthatasuccessfulat-</tspan></text>
<text xml:space="preserve" transform="matrix(1 0 -0 1 0 792)" font-size="9.9626" font-family="NimbusRomNo9L"><tspan y="-394.537" x="307.44 310.2096 314.633 319.0564 326.91688 330.79234 335.77363 340.7549 345.7362 350.1596 354.03507 356.80467 363.5593 366.3289 371.31019 375.73359 381.38236 388.68495 393.66624 396.98377 401.96507 406.38847 414.24894 418.1244 425.21775 429.64115 432.41075 437.39204 444.6946 449.6759 455.87263 460.8539 463.6235 468.6048 473.0282 479.2249 483.10038 488.08168 491.95713 494.7267 499.15013 506.90104 513.6557 520.8487 523.6183 526.3879 532.0367 537.018">tacksuggeststhatabroadswatheofothersystemswillbe</tspan></text>
<text xml:space="preserve" transform="matrix(1 0 -0 1 0 792)" font-size="9.9626" font-family="NimbusRomNo9L"><tspan y="-382.582" x="307.44 312.4213 317.4026 320.17219 325.15348 329.57688 332.8944 337.3178 342.2991 345.0687 349.4921 357.0637 360.38124 368.52067 373.50196 377.92536 381.2429 384.01249 386.78208 391.20549 396.18678 398.95637 403.37977 406.2988 412.107 419.3 423.7234 426.49299 430.91639 438.10939 443.09068 445.86027 452.89387 457.31727 461.74067 466.72196 471.14537 476.12666 478.89625 481.66584 484.43544 487.20503 489.9746 494.398 501.42167 505.84507 509.1626 516.74417 520.61959 525.6009 530.5822 535.0056 538.1239">vulnerable.Inparticular,KataGo&#x2019;scapabilitiesaresuper-</tspan></text>
<text xml:space="preserve" transform="matrix(1 0 -0 1 0 792)" font-size="9.9626" font-family="NimbusRomNo9L"><tspan y="-370.627" x="307.44 312.4213 317.4026 325.1535 329.5769 338.32408 343.30537 352.06248 360.25175 363.02134 367.44474 370.58296 375.56425 383.7535 391.50444 395.92784 399.06605 404.04734 406.81694 411.79823 418.37355 425.56654 430.54783 434.97123 438.28877 442.71217 447.13557 454.7769 457.54649 462.52778 470.727 474.60246 477.37205 481.79545 484.56504 488.98844 492.30598 497.28727 500.6048 503.92234 506.69194 511.67323 516.0966 519.4142 523.8376 527.15518 533.6906 536.4602">humanbyalargemargin,whereasthestate-of-the-artin</tspan></text>
<text xml:space="preserve" transform="matrix(1 0 -0 1 0 792)" font-size="9.9626" font-family="NimbusRomNo9L"><tspan y="-358.671" x="307.44 312.4213 315.73884 320.72013 325.14353 330.12483 334.54823 341.7412 346.7225 351.7038 359.4547 363.8781 366.6477 371.629 379.3799 382.1495 384.9191 389.80076 398.0996 400.8692 405.2926 410.2739 415.2552 420.23649 424.65989 429.64118 437.94004 445.69096 450.67225 455.65354 460.07695 462.84654 465.61613 470.5974 479.45417 483.87757 487.1951 495.49397 499.36943 502.139 504.9086 507.6782 514.32327 518.19869 523.18 528.1613 533.14266 538.12399">broaderdomainslikelanguagemodelingarestillsubhu-</tspan></text>
<text xml:space="preserve" transform="matrix(1 0 -0 1 0 792)" font-size="9.9626" font-family="NimbusRomNo9L"><tspan y="-346.716" x="307.44 315.19093 319.61433 327.156 331.5794 336.9094 344.6603 349.0837 353.91557 361.4672 364.2368 368.6602 372.53565 377.51695 381.3924 387.18067 396.0374 401.0187 404.33625 408.75965 413.5915 418.42335 422.84675 425.76579 430.83677 438.02976 445.57145 448.34104 454.78684 459.76814 464.19154 466.96113 471.9424 475.25996 479.68336 482.443 485.2126 492.76423 497.18763 504.7293 509.1527 514.13406 518.96597 523.38937 526.7069 530.58236 535.00576 538.124">manatmanytasks.Moreover,Goisnaturallyanadversar-</tspan></text>
<text xml:space="preserve" transform="matrix(1 0 -0 1 0 792)" font-size="9.9626" font-family="NimbusRomNo9L"><tspan y="-334.761" x="307.44 310.2096 314.633 320.84965 324.7251 329.1485 331.9181 334.68769 337.45729 342.43858 347.41987 353.59669 357.47215 362.45344 366.87684 375.30519 378.07478 383.05607 387.47947 393.6961 397.92027 402.7521 407.1755 410.49305 414.91645 419.89775 424.32115 427.63868 432.06208 436.48548 440.36094 448.23139 453.21269 457.63609 460.9536 464.27116 469.25245 472.56999 480.3209 484.7443 489.7256 494.149 502.01945 505.8949 510.8762 515.8575 520.8388 523.6084 532.0368 537.0181">ialsetting,suchthataverage-caseperformanceshouldbe</tspan></text>
<text xml:space="preserve" transform="matrix(1 0 -0 1 0 792)" font-size="9.9626" font-family="NimbusRomNo9L"><tspan y="-322.806" x="307.44 312.4213 315.73884 320.16224 325.14353 327.91313 332.33653 335.1061 337.62666 342.4585 349.37257 354.35386 360.16206 367.2554 372.2367 375.55424 379.4297 382.19929 385.5168 389.94023 394.36363 398.23908 405.15315 410.13444 414.55784 417.87538 421.1929 426.1742 429.49174 437.24266 441.66606 446.64735 451.07075 455.49415">predictiveofworst-caseperformance.</tspan></text>
<text xml:space="preserve" transform="matrix(1 0 -0 1 0 792)" font-size="9.9626" font-family="NimbusRomNo9L"><tspan y="-304.873" x="307.44 316.29676 321.27806 325.1535 330.28425 335.26554 338.58308 341.35267 346.33396 352.01264 359.106 364.08729 367.40483 374.73728 379.71858 387.061 390.37855 395.35984 400.14189 405.12318 408.99864 411.76823 416.7495 421.1729 425.04838 431.28498 436.26628 440.68968 446.92628 450.2438 455.2251 459.6485 464.6298 468.50526 472.92866 480.2611 485.2424 492.58485 501.4416 509.8899 513.7653 518.74667 522.6221 525.39169 529.81509 537.566">MostpriorworkonrobustnesshasfocusedonMLsystems</tspan></text>
<text xml:space="preserve" transform="matrix(1 0 -0 1 0 792)" font-size="9.9626" font-family="NimbusRomNo9L"><tspan y="-292.918" x="307.44 310.2096 319.18589 321.95549 325.83094 330.81224 333.58183 338.00523 340.7748 343.5444 348.5257 353.507 363.59913 370.7921 375.52436 382.71736 386.8917 391.72355 396.14695 399.06599 405.92027 408.68986 413.11326 417.53666 422.51795 427.49925 430.26884 435.25013 440.2314 444.65483 452.52528 456.40074 461.38203 465.80543 474.7817 479.2051 487.07557 490.95103 493.7206 501.47154 506.45283 509.2224 513.6458 516.4154 519.185 524.1663 533.14266 538.12399">inisolation.However,techniquessuchassimulationof</tspan></text>
<text xml:space="preserve" transform="matrix(1 0 -0 1 0 792)" font-size="9.9626" font-family="NimbusRomNo9L"><tspan y="-280.963" x="307.44 311.8634 314.633 317.4026 321.826 325.14353 330.12483 334.54823 337.3178 339.83836 344.6702 349.0936 356.62535 361.04875 367.4746 370.2442 375.2255 378.54304 382.96644 386.28398 390.70738 395.68867 400.11207 408.18177 410.95137 413.72096 421.47187 429.55155">alternativesatinferencetime(</tspan></text>
<text fill="#00ff00" xml:space="preserve" transform="matrix(1 0 -0 1 0 792)" font-size="9.9626" font-family="NimbusRomNo9L"><tspan y="-280.963" x="432.8691 439.06587 443.48927 452.12684 456.55024 462.9761 467.3995 470.1691">Yaoetal.</tspan></text>
<text xml:space="preserve" transform="matrix(1 0 -0 1 0 792)" font-size="9.9626" font-family="NimbusRomNo9L"><tspan y="-280.963" x="472.6598">,</tspan></text>
<text fill="#00ff00" xml:space="preserve" transform="matrix(1 0 -0 1 0 792)" font-size="9.9626" font-family="NimbusRomNo9L"><tspan y="-280.963" x="478.7967 483.77799 488.75929 493.74058">2023</tspan></text>
<text xml:space="preserve" transform="matrix(1 0 -0 1 0 792)" font-size="9.9626" font-family="NimbusRomNo9L"><tspan y="-280.963" x="498.7219 505.6957 510.1191 515.1004 523.738 527.6134 532.0368 534.8064 538.12399">)andself-</tspan></text>
<text xml:space="preserve" transform="matrix(1 0 -0 1 0 792)" font-size="9.9626" font-family="NimbusRomNo9L"><tspan y="-269.008" x="307.44 310.75755 315.18095 320.72016 325.14356 329.56697 332.33656 335.10615 340.08744 347.30036">re&#xfb02;ection(</tspan></text>
<text fill="#00ff00" xml:space="preserve" transform="matrix(1 0 -0 1 0 792)" font-size="9.9626" font-family="NimbusRomNo9L"><tspan y="-269.008" x="350.6179 357.26295 361.68635 366.68757 371.11097 376.11219 380.53559 383.30519">Baietal.</tspan></text>
<text xml:space="preserve" transform="matrix(1 0 -0 1 0 792)" font-size="9.9626" font-family="NimbusRomNo9L"><tspan y="-269.008" x="385.7958">,</tspan></text>
<text fill="#00ff00" xml:space="preserve" transform="matrix(1 0 -0 1 0 792)" font-size="9.9626" font-family="NimbusRomNo9L"><tspan y="-269.008" x="390.5082 395.4895 400.4708 405.4521">2022</tspan></text>
<text xml:space="preserve" transform="matrix(1 0 -0 1 0 792)" font-size="9.9626" font-family="NimbusRomNo9L"><tspan y="-269.008" x="410.4334 415.98258 420.40599 424.82939 432.0423 434.8119 442.5628 447.5441 450.86164 455.69349 460.52534 467.18037 471.05583 476.0371 479.91258 482.68217 487.10557 497.0881 500.40565 505.38694 510.16899 515.15029 519.0257 521.7953 526.7766 531.2 535.07546 538.95089">)canimprovesystemrobustness.</tspan></text>
<text xml:space="preserve" transform="matrix(1 0 -0 1 0 792)" font-size="9.9626" font-family="NimbusRomNo9L"><tspan y="-257.052" x="307.44 314.633 319.0564 321.826 326.2494 333.44239 340.95417 345.93547 350.35887 353.6764 356.99394 361.97523 365.29277 373.04368 379.44963 383.32508 388.30638 393.28767 397.16313 399.9327 404.3561 409.3374 412.107 414.8766 419.3 424.59013 428.46559 431.23518 438.98609 443.96739 446.73698 451.16038 453.92997 456.69956 461.68086 469.19264 473.61604 478.59733 486.1091 489.98457 494.40797 497.17756 500.4951 503.81263 507.13017 511.55357 517.0928 521.5162 525.9396 528.70919 531.47879 536.4601">KataGoperformssubstantialsimulationandself-re&#xfb02;ection</tspan></text>
<text xml:space="preserve" transform="matrix(1 0 -0 1 0 792)" font-size="9.9626" font-family="NimbusRomNo9L"><tspan y="-245.097" x="307.44 310.2096 318.47856 321.24815 326.22944 333.93055 337.24809 342.22938 345.5469 356.58549 361.56678 368.17198 377.02873 382.01 386.9913 389.7609 394.1843 397.50184 404.14689 408.57029 411.88783 414.6574 422.92637 428.66484 431.98237 436.40577 444.10688 449.6461 454.0695 458.4929 461.81044 466.23384 474.50279">intheformofMonte-CarloTreeSearch(</tspan></text>
<text fill="#00ff00" xml:space="preserve" transform="matrix(1 0 -0 1 0 792)" font-size="9.9626" font-family="NimbusRomNo9L"><tspan y="-245.097" x="477.8204 484.46546 489.44676 494.42805 497.19764 502.17893">Coulom</tspan></text>
<text xml:space="preserve" transform="matrix(1 0 -0 1 0 792)" font-size="9.9626" font-family="NimbusRomNo9L"><tspan y="-245.097" x="509.9298">,</tspan></text>
<text fill="#00ff00" xml:space="preserve" transform="matrix(1 0 -0 1 0 792)" font-size="9.9626" font-family="NimbusRomNo9L"><tspan y="-245.097" x="515.7082 520.6895 525.67086 530.65219">2007</tspan></text>
<text xml:space="preserve" transform="matrix(1 0 -0 1 0 792)" font-size="9.9626" font-family="NimbusRomNo9L"><tspan y="-245.097" x="535.6334 538.951">),</tspan></text>
<text xml:space="preserve" transform="matrix(1 0 -0 1 0 792)" font-size="9.9626" font-family="NimbusRomNo9L"><tspan y="-233.142" x="307.44 312.22206 317.20335 323.95799 328.93928 333.92057 341.21318 345.63658 348.40617 351.17576 355.59916 360.02256 368.9789 372.85438 375.62397 378.39356 381.16316 387.9178 395.11079 397.88038 402.86167 410.7122 418.4631 423.4444 426.76194 435.17039 440.15168 443.4692 446.2388 450.6622 459.61857 462.38816 467.36946 471.79286 480.7592 485.74049 490.72178 497.46644 501.64079 506.47264 510.89604 519.86239 527.05538 532.0367 536.4601">butourattackstillwinsmoreoftenthannotevenwhen</tspan></text>
<text xml:space="preserve" transform="matrix(1 0 -0 1 0 792)" font-size="9.9626" font-family="NimbusRomNo9L"><tspan y="-221.187" x="307.44 314.633 319.0564 321.826 326.2494 333.44239 340.91435 344.7898 349.2132 353.6366 356.95414 361.37754 366.35884 370.78224 377.14836 382.12965 389.6016 397.3525 400.1221 402.8917 405.6613 408.43089 413.41218 420.88414 425.86543 430.8467 435.828 440.2514 446.61753 451.59883 456.02223 461.8304 469.58134 474.41319 479.24504 483.66844">KataGosearches10millionnodespermove.</tspan></text>
<text xml:space="preserve" transform="matrix(1 0 -0 1 0 792)" font-size="9.9626" font-family="NimbusRomNo9L"><tspan y="-203.254" x="307.44 314.633 319.6143 327.35523 331.77864 336.75993 341.59178 346.01518 349.3327 353.20817 357.63157 360.9491 363.7187 368.1421 376.44096 381.42225 385.6464 390.47825 399.32505 404.30635 413.71104 417.5865 422.56779 426.99119 431.41459 434.18418 438.60758 445.80058 450.78187 455.5141 462.7071 467.1305 470.44804 474.3235 484.04698 486.81657 491.79786 496.0718 505.4765 509.8999 514.3233 523.728 528.70938 533.6907 536.46029">Ouradversarieshavenospecialpowers:theycanonly</tspan></text>
<text xml:space="preserve" transform="matrix(1 0 -0 1 0 792)" font-size="9.9626" font-family="NimbusRomNo9L"><tspan y="-191.299" x="307.44 312.4213 315.1909 319.6143 324.0377 331.2606 335.13606 337.90565 342.88694 347.86824 352.29164 358.96659 363.94789 370.07487 375.05616 379.47956 383.355 387.22053 392.59037 395.35997 398.12956 403.0112 410.24406 417.46696 420.7845 425.05845 430.03974 435.02104 437.79063 442.21403 448.33106 453.31236 456.08195 460.50535 465.48664 469.91004 472.67964 479.1952 487.8029 495.0258 500.00709 507.78788 512.76919 517.5014 524.6944 528.8687 533.7006 538.124">placestonesorpass,likearegularplayer.Wedohowever</tspan></text>
<text xml:space="preserve" transform="matrix(1 0 -0 1 0 792)" font-size="9.9626" font-family="NimbusRomNo9L"><tspan y="-179.344" x="307.44 312.4213 314.94184 319.77369 326.68775 331.66905 336.65034 342.46849 346.89189 351.87318 356.70503 361.12843 364.44596 368.3214 372.7448 376.06236 378.83195 383.25535 389.62147 394.60276 397.9203 402.3437 407.32499 410.64253 415.6238 420.6051 428.07707 432.50047 436.92387 441.34727 445.77067 449.64613 456.0222 458.79179 466.26374 469.03334 474.01463 480.93864 485.91993 488.6895 493.1129 495.8825 498.6521 508.89369 513.875 518.2984 521.068 528.1614 533.1427 536.46029">giveouradversariesgray-boxaccesstothevictimnetwork</tspan></text>
<text xml:space="preserve" transform="matrix(1 0 -0 1 0 792)" font-size="9.9626" font-family="NimbusRomNo9L"><tspan y="-167.389" x="307.44 310.2096 315.1909 319.46485 327.12608 331.54948 334.867 341.97035 346.39375 349.16334 351.93293 356.35633 360.76979 365.75108 368.52067 373.50196 381.16319 384.4807 390.01994 394.44334 398.86674 401.63633 404.4059 409.3872">theyareattacking(Section</tspan></text>
<text fill="#0000ff" xml:space="preserve" transform="matrix(1 0 -0 1 0 792)" font-size="9.9626" font-family="NimbusRomNo9L"><tspan y="-167.389" x="417.0485 422.0298 424.52046">3.1</tspan></text>
<text xml:space="preserve" transform="matrix(1 0 -0 1 0 792)" font-size="9.9626" font-family="NimbusRomNo9L"><tspan y="-167.389" x="429.5018 432.81935 438.9563 442.27384 449.93507 454.91636 459.33976 462.6573 465.42689 468.19648 472.61988 477.60118 480.37077 484.79417 487.7132 492.92366 500.11665 507.21998 509.98957 513.3071 517.7305 520.5001 528.1614 533.1427 538.124">).Inparticular,wetrainour</tspan></text>
<text xml:space="preserve" transform="matrix(1 0 -0 1 0 792)" font-size="9.9626" font-family="NimbusRomNo9L"><tspan y="-155.433" x="307.44 311.8634 316.8447 321.67655 326.09996 329.41749 333.29295 337.71635 341.03388 343.80348 348.22688 354.51329 359.49458 363.37004 366.13963 371.1209 378.51316 382.93656 390.3288 397.5218 400.29139 405.27268 410.25398 414.67738 420.76454 425.18794 428.50547 433.48677 436.8043 440.67976 443.44935 448.43064 451.20024 458.03459 460.80418 464.1217 468.5451 471.3147 476.296 479.06559 484.04689 491.43913 496.4204 499.73796 504.71925 509.14265 513.56607 517.44149 523.72787">adversariesusinganAlphaZero-styletrainingprocess(</tspan></text>
<text fill="#00ff00" xml:space="preserve" transform="matrix(1 0 -0 1 0 792)" font-size="9.9626" font-family="NimbusRomNo9L"><tspan y="-155.433" x="527.0456 532.5848 535.3544 538.12399">Sil-</tspan></text>
<text fill="#00ff00" xml:space="preserve" transform="matrix(1 0 -0 1 0 792)" font-size="9.9626" font-family="NimbusRomNo9L"><tspan y="-143.478" x="307.44 312.27186 316.69526 322.623 327.0464 332.42619 336.84959 339.61918">veretal.</tspan></text>
<text xml:space="preserve" transform="matrix(1 0 -0 1 0 792)" font-size="9.9626" font-family="NimbusRomNo9L"><tspan y="-143.478" x="342.1098">,</tspan></text>
<text fill="#00ff00" xml:space="preserve" transform="matrix(1 0 -0 1 0 792)" font-size="9.9626" font-family="NimbusRomNo9L"><tspan y="-143.478" x="347.2107 352.192 357.17329 362.15458">2018</tspan></text>
<text xml:space="preserve" transform="matrix(1 0 -0 1 0 792)" font-size="9.9626" font-family="NimbusRomNo9L"><tspan y="-143.478" x="367.1359 370.45344 375.57423 379.44969 382.21928 389.97019 392.73979 395.50938 399.93278 405.8605 408.6301 416.2216 418.99119 423.97248 428.39588 433.77568 438.75697 444.6847 451.8777 456.3011 459.07069 463.49409 470.68708 475.66838 481.59614 487.6833 492.66459 499.69819 504.57984 508.8538 516.4453 521.42666 524.1962 527.2647 530.5823 535.0057 538.12399">),similartothatofKataGo.Thekeydiffer-</tspan></text>
<text xml:space="preserve" transform="matrix(1 0 -0 1 0 792)" font-size="9.9626" font-family="NimbusRomNo9L"><tspan y="-131.523" x="307.44 311.8634 316.8447 321.2681 325.6915 332.10743 336.53083 339.84837 346.80226 349.57185 354.55314 358.97654 364.2866 371.47959 378.44346 382.86686 387.84815 390.61775 393.38734 397.81074 402.23414 407.5342 412.4657 416.8891 424.64 429.06343 435.47935 442.67234 445.44194 448.21153 455.73329 458.50288 463.48417 470.43806 474.86146 479.84275 484.6746 489.098 492.41554 496.291 500.7144 504.03193 511.55369 516.535 519.30459 523.72799 528.7093 531.4789 536.4602">encesarethatwecollectgameswiththeadversaryplaying</tspan></text>
<text xml:space="preserve" transform="matrix(1 0 -0 1 0 792)" font-size="9.9626" font-family="NimbusRomNo9L"><tspan y="-119.568" x="307.44 311.8634 316.7949 321.2183 323.98789 328.96919 332.84465 338.94175 341.71134 346.69264 354.4535 359.43479 362.20439 366.62779 369.39738 372.16697 379.91789 385.95524 390.37864 395.35993 403.66874 406.43833 411.41963 415.84303 421.95008 429.14308 436.89399 441.87528 445.75074 453.50166 456.27125 461.25254 469.0134 473.9947 476.76429 481.18769 483.95729 486.72688 497.8053 502.7866 507.21 509.97959 517.073 522.0543 525.3719 533.6907 536.46029">againstthevictim,andthatweusethevictimnetworkto</tspan></text>
<text xml:space="preserve" transform="matrix(1 0 -0 1 0 792)" font-size="9.9626" font-family="NimbusRomNo9L"><tspan y="-107.613" x="307.44 311.31547 315.73887 318.50846 322.93186 327.35527 332.6155 337.5968 340.3664 344.7898 347.5594 350.32899 360.57057 368.32148 373.15333 377.98518 382.40858 388.7747 393.75599 398.73728 402.0548 404.8244 409.8057 417.27766 420.04725 425.02854 431.9426 436.366 441.3473 446.17915 450.60255 453.92008 457.79554 462.21894 465.53648 470.51777 473.28736 479.65348 482.42308 485.7406 490.164 497.07807 500.95353 505.37693 509.80033 513.11788 517.54129 522.5226">selectvictimmovesduringtheadversary&#x2019;streesearch.</tspan></text>
<path transform="matrix(1,0,0,-1,307.44,692.721)" stroke-width=".398" stroke-linecap="butt" stroke-miterlimit="10" stroke-linejoin="miter" fill="none" stroke="#000000" d="M0 0H57.6"/>
<text xml:space="preserve" transform="matrix(1 0 -0 1 0 792)" font-size="5.9776" font-family="NimbusRomNo9L"><tspan y="-92.437" x="320.093">1</tspan></text>
<text xml:space="preserve" transform="matrix(1 0 -0 1 0 792)" font-size="8.9664" font-family="NimbusRomNo9L"><tspan y="-88.628" x="323.58 330.05375 334.03483 337.52275 342.00593 344.49858 346.9912 354.0119 358.49513 362.4762 364.96885 369.45204 376.97486 380.95594 385.43916 387.9318 394.95249 397.44514 404.96797 409.45118 413.43226 417.41334 422.9456 429.41935 433.40043 435.89308 439.87416 446.3479 450.83113 456.3096 460.7928 465.276 471.3104 475.29148 479.77467 484.12339 488.10447 491.09028 494.5782 498.5503 501.5361 504.02876 508.00984 513.551 518.03427 522.51748 525.01016 527.5028 531.4839 533.9676 537.94869">DespitebeingabletobeatKataGo,ouradversarialpolicies</tspan></text>
<text xml:space="preserve" transform="matrix(1 0 -0 1 0 792)" font-size="8.9664" font-family="NimbusRomNo9L"><tspan y="-78.665" x="307.44 309.93266 314.41584 317.90376 324.12644 328.1075 332.54588 336.52696 339.0196 343.5028 346.99073 351.72499 355.4819 359.8306 363.81169 370.53648 374.51756 381.4934 385.4745 387.96714 391.9482 396.4314 401.6588 408.13258 414.8574 419.34059 421.83323 425.8143 430.2975 434.27857 437.26438 442.9939 445.9797 452.45347 456.93666 461.41987 465.40095 469.88417 474.36738 476.86003">loseagainstevenamateurGoplayers(Appendix</tspan></text>
<text fill="#0000ff" xml:space="preserve" transform="matrix(1 0 -0 1 0 792)" font-size="8.9664" font-family="NimbusRomNo9L"><tspan y="-78.665" x="483.5849 487.0728 489.31443">J.1</tspan></text>
<text xml:space="preserve" transform="matrix(1 0 -0 1 0 792)" font-size="8.9664" font-family="NimbusRomNo9L"><tspan y="-78.665" x="493.7977 496.7835">).</tspan></text>
<text xml:space="preserve" transform="matrix(1 0 -0 1 0 792)" font-size="9.9626" font-family="NimbusRomNo9L"><tspan y="-52.033" x="295.95">1</tspan></text>
<text fill="#7f807f" xml:space="preserve" transform="matrix(0 -1 1 0 0 792)" font-size="20" font-family="Times"><tspan y="32" x="232 240.88 247.54001 261.98 267.54 277.54 283.1 293.1 303.1 313.1 323.1 328.1 338.1 348.1 358.1 368.1 378.1 388.1 398.1 403.1 408.1 414.76 423.64 431.42 436.42 448.64 463.08003 469.74003 474.74003 479.74003 489.74003 499.74003 504.74003 512.52 522.52 528.08 533.08 543.08 553.08 563.08">arXiv:2211.00241v4  [cs.LG]  13 Jul 2023</tspan></text>
</g>
</svg>
