<?xml version="1.0" encoding="UTF-8" standalone="no"?>
<svg
   xmlns:dc="http://purl.org/dc/elements/1.1/"
   xmlns:cc="http://creativecommons.org/ns#"
   xmlns:rdf="http://www.w3.org/1999/02/22-rdf-syntax-ns#"
   xmlns:svg="http://www.w3.org/2000/svg"
   xmlns="http://www.w3.org/2000/svg"
   viewBox="0 0 816 1056"
   height="1056"
   width="816"
   xml:space="preserve"
   id="svg2"
   version="1.1"><metadata
     id="metadata8"><rdf:RDF><cc:Work
         rdf:about=""><dc:format>image/svg+xml</dc:format><dc:type
           rdf:resource="http://purl.org/dc/dcmitype/StillImage" /></cc:Work></rdf:RDF></metadata><defs
     id="defs6" /><g
     transform="matrix(1.3333333,0,0,-1.3333333,0,1056)"
     id="g10"><g
       transform="translate(108,708.815)"
       id="g12"><path
         id="path14"
         style="fill:#000000;fill-opacity:1;fill-rule:nonzero;stroke:none"
         d="M 0,0 H 396 V 3.985 H 0 Z" /></g><text
       id="text20"
       style="font-variant:normal;font-weight:bold;font-size:17.2154007px;font-family:LMRoman12;-inkscape-font-specification:LMRoman12-Bold;writing-mode:lr-tb;fill:#000000;fill-opacity:1;fill-rule:nonzero;stroke:none"
       transform="matrix(1,0,0,-1,108.844,679.044)"><tspan
         id="tspan16"
         y="0"
         x="0 13.469329 24.228954 39.521393 47.595417 58.355042 67.770142 73.149956 78.52977 87.366432 98.12606 107.80972 116.64639 130.74063 140.4243 152.797 160.32874 168.23921 177.65433 183.03413 193.79376 199.17357 209.9332 226.07263 235.48773 246.24736 255.93619 264.77286 272.68332 280.32181 289.73691 297.64737 303.02719 312.44229 317.82211 323.20193 339.88019 347.79068 357.47433 368.23395 378.99359 386.63205">Thechallengesoftrainingadversariallyrobust</tspan><tspan
         id="tspan18"
         y="19.924999"
         x="166.73599 181.95958 198.09901 212.7235 219.93675">GoAIs</tspan></text>
<g
       transform="translate(108,643.221)"
       id="g22"><path
         id="path24"
         style="fill:none;stroke:#000000;stroke-width:0.99599999;stroke-linecap:butt;stroke-linejoin:miter;stroke-miterlimit:10;stroke-dasharray:none;stroke-opacity:1"
         d="M 0,0 H 396" /></g><text
       id="text28"
       style="font-variant:normal;font-weight:bold;font-size:9.96259975px;font-family:LMRoman10;-inkscape-font-specification:LMRoman10-Bold;writing-mode:lr-tb;fill:#000000;fill-opacity:1;fill-rule:nonzero;stroke:none"
       transform="matrix(1,0,0,-1,114.24,606.853)"><tspan
         id="tspan26"
         y="0"
         x="0 7.0136704 12.742166 26.114964 33.128635 37.647671 42.898956 49.264061">TomTseng</tspan></text>
<text
       id="text32"
       style="font-variant:normal;font-weight:normal;font-size:9.96259975px;font-family:LMRoman10;-inkscape-font-specification:LMRoman10-Regular;writing-mode:lr-tb;fill:#000000;fill-opacity:1;fill-rule:nonzero;stroke:none"
       transform="matrix(1,0,0,-1,124.438,595.944)"><tspan
         id="tspan30"
         y="0"
         x="0 5.3977365 12.869687 23.520702 30.992653">FARAI</tspan></text>
<text
       id="text36"
       style="font-variant:normal;font-weight:normal;font-size:9.96259975px;font-family:LMMono10;-inkscape-font-specification:LMMono10-Regular;writing-mode:lr-tb;fill:#000000;fill-opacity:1;fill-rule:nonzero;stroke:none"
       transform="matrix(1,0,0,-1,115.583,585.035)"><tspan
         id="tspan34"
         y="0"
         x="0 5.2303648 10.46073 15.691095 20.921459 26.151825 31.382191 36.612556 41.842918 47.073284">tom@far.ai</tspan></text>
<text
       id="text40"
       style="font-variant:normal;font-weight:bold;font-size:9.96259975px;font-family:LMRoman10;-inkscape-font-specification:LMRoman10-Bold;writing-mode:lr-tb;fill:#000000;fill-opacity:1;fill-rule:nonzero;stroke:none"
       transform="matrix(1,0,0,-1,181.447,606.853)"><tspan
         id="tspan38"
         y="0"
         x="0 8.9802876 14.231574 17.414625 20.597675 23.780725 33.961506 41.474304 46.72559 49.908642 54.626926 57.809978 64.175087">KellinPelrine</tspan></text>
<text
       id="text44"
       style="font-variant:normal;font-weight:normal;font-size:9.96259975px;font-family:LMRoman10;-inkscape-font-specification:LMRoman10-Regular;writing-mode:lr-tb;fill:#000000;fill-opacity:1;fill-rule:nonzero;stroke:none"
       transform="matrix(1,0,0,-1,185.996,595.944)"><tspan
         id="tspan42"
         y="0"
         x="0 9.1327152 11.900326 14.667936 19.649237 25.734392 31.13213 38.60408 49.265057 56.737007">Mila,FARAI</tspan></text>
<text
       id="text48"
       style="font-variant:normal;font-weight:normal;font-size:9.96259975px;font-family:LMMono10;-inkscape-font-specification:LMMono10-Regular;writing-mode:lr-tb;fill:#000000;fill-opacity:1;fill-rule:nonzero;stroke:none"
       transform="matrix(1,0,0,-1,182.164,585.035)"><tspan
         id="tspan46"
         y="0"
         x="0 5.2303648 10.46073 15.691095 20.921459 26.151825 31.382191 36.612556 41.842918 47.073284 52.30365 57.534016 62.764381">kellin@far.ai</tspan></text>
<text
       id="text52"
       style="font-variant:normal;font-weight:bold;font-size:9.96259975px;font-family:LMRoman10;-inkscape-font-specification:LMRoman10-Bold;writing-mode:lr-tb;fill:#000000;fill-opacity:1;fill-rule:nonzero;stroke:none"
       transform="matrix(1,0,0,-1,263.093,606.853)"><tspan
         id="tspan50"
         y="0"
         x="0 7.5277405 13.892846 19.461939 29.642719 40.51889 45.610775 52.501907 57.753193 63.322285">EuanMcLean</tspan></text>
<text
       id="text56"
       style="font-variant:normal;font-weight:normal;font-size:9.96259975px;font-family:LMRoman10;-inkscape-font-specification:LMRoman10-Regular;writing-mode:lr-tb;fill:#000000;fill-opacity:1;fill-rule:nonzero;stroke:none"
       transform="matrix(1,0,0,-1,280.642,595.944)"><tspan
         id="tspan54"
         y="0"
         x="0 5.3977365 12.869687 23.520702 30.992653">FARAI</tspan></text>
<text
       id="text60"
       style="font-variant:normal;font-weight:normal;font-size:9.96259975px;font-family:LMMono10;-inkscape-font-specification:LMMono10-Regular;writing-mode:lr-tb;fill:#000000;fill-opacity:1;fill-rule:nonzero;stroke:none"
       transform="matrix(1,0,0,-1,269.171,585.035)"><tspan
         id="tspan58"
         y="0"
         x="0 5.2303648 10.46073 15.691095 20.921459 26.151825 31.382191 36.612556 41.842918 47.073284 52.30365">euan@far.ai</tspan></text>
<text
       id="text64"
       style="font-variant:normal;font-weight:bold;font-size:9.96259975px;font-family:LMRoman10;-inkscape-font-specification:LMRoman10-Bold;writing-mode:lr-tb;fill:#000000;fill-opacity:1;fill-rule:nonzero;stroke:none"
       transform="matrix(1,0,0,-1,345.523,606.853)"><tspan
         id="tspan62"
         y="0"
         x="0 7.0136704 12.742166 18.788467 28.651442 36.621521 43.630211 54.518337 60.087429 66.452538">TonyT.Wang</tspan></text>
<text
       id="text68"
       style="font-variant:normal;font-weight:normal;font-size:6.97380018px;font-family:LMMathSymbols7;-inkscape-font-specification:LMMathSymbols7-Regular;writing-mode:lr-tb;fill:#000000;fill-opacity:1;fill-rule:nonzero;stroke:none"
       transform="matrix(1,0,0,-1,417.704,610.468)"><tspan
         id="tspan66"
         y="0"
         x="0">∗</tspan></text>
<text
       id="text72"
       style="font-variant:normal;font-weight:normal;font-size:9.96259975px;font-family:LMRoman10;-inkscape-font-specification:LMRoman10-Regular;writing-mode:lr-tb;fill:#000000;fill-opacity:1;fill-rule:nonzero;stroke:none"
       transform="matrix(1,0,0,-1,371.651,595.944)"><tspan
         id="tspan70"
         y="0"
         x="0 9.1327152 12.73021">MIT</tspan></text>
<text
       id="text76"
       style="font-variant:normal;font-weight:normal;font-size:9.96259975px;font-family:LMMono10;-inkscape-font-specification:LMMono10-Regular;writing-mode:lr-tb;fill:#000000;fill-opacity:1;fill-rule:nonzero;stroke:none"
       transform="matrix(1,0,0,-1,345.001,585.035)"><tspan
         id="tspan74"
         y="0"
         x="0 5.2303648 10.46073 15.691095 20.921459 26.151825 31.382191 36.612556 41.842918 47.073284 52.30365 57.534016 62.764381 67.994743">twang6@mit.edu</tspan></text>
<text
       id="text80"
       style="font-variant:normal;font-weight:bold;font-size:9.96259975px;font-family:LMRoman10;-inkscape-font-specification:LMRoman10-Bold;writing-mode:lr-tb;fill:#000000;fill-opacity:1;fill-rule:nonzero;stroke:none"
       transform="matrix(1,0,0,-1,430.443,606.853)"><tspan
         id="tspan78"
         y="0"
         x="0 8.3426809 14.707787 20.27688 33.639713 42.6479 45.830948 51.082233 56.332527 62.06102">AdamGleave</tspan></text>
<text
       id="text84"
       style="font-variant:normal;font-weight:normal;font-size:6.97380018px;font-family:LMMathSymbols7;-inkscape-font-specification:LMMathSymbols7-Regular;writing-mode:lr-tb;fill:#000000;fill-opacity:1;fill-rule:nonzero;stroke:none"
       transform="matrix(1,0,0,-1,497.76,610.468)"><tspan
         id="tspan82"
         y="0"
         x="0">∗</tspan></text>
<text
       id="text88"
       style="font-variant:normal;font-weight:normal;font-size:9.96259975px;font-family:LMRoman10;-inkscape-font-specification:LMRoman10-Regular;writing-mode:lr-tb;fill:#000000;fill-opacity:1;fill-rule:nonzero;stroke:none"
       transform="matrix(1,0,0,-1,446.806,595.944)"><tspan
         id="tspan86"
         y="0"
         x="0 5.3977365 12.869687 23.520702 30.992653">FARAI</tspan></text>
<text
       id="text92"
       style="font-variant:normal;font-weight:normal;font-size:9.96259975px;font-family:LMMono10;-inkscape-font-specification:LMMono10-Regular;writing-mode:lr-tb;fill:#000000;fill-opacity:1;fill-rule:nonzero;stroke:none"
       transform="matrix(1,0,0,-1,435.335,585.035)"><tspan
         id="tspan90"
         y="0"
         x="0 5.2303648 10.46073 15.691095 20.921459 26.151825 31.382191 36.612556 41.842918 47.073284 52.30365">adam@far.ai</tspan></text>
<text
       id="text96"
       style="font-variant:normal;font-weight:bold;font-size:11.9552002px;font-family:LMRoman12;-inkscape-font-specification:LMRoman12-Bold;writing-mode:lr-tb;fill:#000000;fill-opacity:1;fill-rule:nonzero;stroke:none"
       transform="matrix(1,0,0,-1,280.299,543.853)"><tspan
         id="tspan94"
         y="0"
         x="0 10.155942 17.627943 22.932465 28.162865 33.656281 40.194576 46.172176">Abstract</tspan></text>
<text
       id="text100"
       style="font-variant:normal;font-weight:normal;font-size:9.96259975px;font-family:LMRoman10;-inkscape-font-specification:LMRoman10-Regular;writing-mode:lr-tb;fill:#000000;fill-opacity:1;fill-rule:nonzero;stroke:none"
       transform="matrix(0.98,0,0,-1,143.866,519.623)"><tspan
         id="tspan98"
         y="0"
         x="0 6.7805457 10.682896 13.450506 18.431807 25.153572 32.069611 37.050911 40.953259 49.030937 52.075508 57.056805 62.592026 68.127251 76.48188 80.356339 85.891563 90.872856 97.566734 101.49698 107.0322 112.84637 117.27474 121.17709 126.4234 131.95862 140.26045 145.24176 153.59639 161.41405 169.21477 176.68671 180.28421 187.04382 190.96411 196.49933 200.64876 209.00339 213.9847 220.73436 228.48326 233.46457 237.33902 242.32031 250.13797 257.93869 262.91998 266.82233 274.07013 279.3284 284.86362 287.63123 293.16644 297.59482 301.49716 306.47845 312.0137 314.78131 322.02908 325.90353">PriorworkfoundthatsuperhumanGoAIssuchasKataGoarevulnerableto</tspan></text>
<text
       id="text104"
       style="font-variant:normal;font-weight:normal;font-size:9.96259975px;font-family:LMRoman10;-inkscape-font-specification:LMRoman10-Regular;writing-mode:lr-tb;fill:#000000;fill-opacity:1;fill-rule:nonzero;stroke:none"
       transform="matrix(0.98,0,0,-1,143.866,508.714)"><tspan
         id="tspan102"
         y="0"
         x="0 4.9812999 10.516521 16.330694 21.311995 26.847214 31.275591 36.531857 40.406315 46.608032 52.143253 54.910862 59.613209 64.871468 67.639084 73.164337 80.427071 84.357323 87.124931 95.426765 100.96198 103.72959 110.42944 115.41074 120.94596 125.92527 130.35365 134.24603 138.17628 143.15758 147.05994 149.82755 154.80884 159.85788 163.78813 167.66258 171.56494 176.54623 180.4207 184.84908 189.83037 192.59798 197.01639 200.94664 207.86865 215.06364 220.59886 223.36647 229.56819 233.49844 239.03366 243.72604 250.92104 257.13272 261.00717 266.54239 271.52368 277.66962 281.59985 287.13507 292.94925 297.37762 301.27997 306.53625 312.07147 320.37329 325.35461">opponentsplayingsimpleadversarialstrategies.Thisshowsthatsuperhuman</tspan></text>
<text
       id="text108"
       style="font-variant:normal;font-weight:normal;font-size:9.96259975px;font-family:LMRoman10;-inkscape-font-specification:LMRoman10-Regular;writing-mode:lr-tb;fill:#000000;fill-opacity:1;fill-rule:nonzero;stroke:none"
       transform="matrix(0.984,0,0,-1,143.866,497.805)"><tspan
         id="tspan106"
         y="0"
         x="0 4.7023473 9.6716919 14.100068 18.002419 22.983719 27.965017 32.393394 35.713928 40.142303 45.123604 49.053848 56.869511 61.297886 66.279182 71.814407 76.795708 82.330925 85.098534 87.856186 90.623795 94.498253 97.265862 101.69424 109.01176 117.3136 122.01595 130.65154 136.18675 141.16805 148.41983 151.18744 155.61581 160.59711 169.51962 173.39407 181.75269 185.68294 190.66425 194.5387 197.3063 201.23656 204.28113 209.26242 213.6908 217.56525 222.54655 226.4489 235.08449 242.00052 246.98183 250.88417 254.81442 258.68887 262.0094 266.43777 271.41907 275.34933 283.15503 287.05737 292.03867 297.57388 303.10913 307.03937 310.91382 316.44904 320.87741 324.80765 328.73792">average-casecapabilitiesmaynotleadtosatisfactoryworst-caserobustness.</tspan></text>
<text
       id="text112"
       style="font-variant:normal;font-weight:normal;font-size:10.16185188px;font-family:LMRoman10;-inkscape-font-specification:LMRoman10-Regular;writing-mode:lr-tb;fill:#000000;fill-opacity:1;fill-rule:nonzero;stroke:none"
       transform="matrix(1,0,0,-0.98039216,143.866,486.896)"><tspan
         id="tspan110"
         y="0"
         x="0 7.9740052 17.028215 24.649605 28.31905 36.301186 43.365704 47.882648 51.863045 60.353271 65.999199 70.516136 75.605194 80.122139 88.075821 93.721748 98.238686 102.24754 105.0705 110.15143 115.79736 120.31429 129.9335 137.2724 140.09535 144.0473 153.6665 157.67535 162.19231 166.70924 172.35518 176.33557 179.15854 182.83611 192.17282 194.99577 204.61499 213.08286 215.90582 221.55174 227.19768 234.16667 239.81259 244.60899 251.67351 256.19046 261.27951 265.79645 269.77686 276.73569 280.71609 285.797 288.61996 292.62881 295.45178 301.09772 310.15192 314.10385 319.74979">GoAIswereneverdesignedwithsecurityinmind,however,raisingthe</tspan></text>
<text
       id="text116"
       style="font-variant:normal;font-weight:normal;font-size:9.96259975px;font-family:LMRoman10;-inkscape-font-specification:LMRoman10-Regular;writing-mode:lr-tb;fill:#000000;fill-opacity:1;fill-rule:nonzero;stroke:none"
       transform="matrix(0.997,0,0,-1,143.866,475.987)"><tspan
         id="tspan114"
         y="0"
         x="0 5.2582603 10.793481 15.221856 19.152102 23.026558 25.794168 30.775467 36.310688 43.511654 47.940033 52.921329 61.794022 65.724266 68.491882 76.793716 82.328934 85.096542 92.852425 98.38765 102.81602 105.8606 110.28897 115.81423 119.74448 124.17285 131.44057 139.7424 144.72369 149.703 157.45889 165.20781 170.1891 174.06355 179.04486 186.8625 195.17133 199.07367 204.05496 209.59019 215.12541 219.05565 222.93011 232.07777 235.67526 244.53799 248.41245 253.94768 256.71527 263.97302 269.50827 274.48956 280.30374 284.73212 288.63446 294.72958 301.6456 309.41147 313.28592 317.71429 321.63458">question:cansimpledefensesmakeKataGorobust?Inthispaper,wetest</tspan></text>
<text
       id="text120"
       style="font-variant:normal;font-weight:normal;font-size:9.99248791px;font-family:LMRoman10;-inkscape-font-specification:LMRoman10-Regular;writing-mode:lr-tb;fill:#000000;fill-opacity:1;fill-rule:nonzero;stroke:none"
       transform="matrix(1,0,0,-0.99700897,143.866,465.078)"><tspan
         id="tspan118"
         y="0"
         x="0 3.8860786 9.4379044 13.351962 17.793623 25.542797 31.094624 36.090866 39.976948 45.52877 49.442829 54.439072 60.522499 66.074326 70.515984 73.569695 78.001358 83.553185 87.495224 91.936882 95.878922 103.0815 108.07775 113.62958 118.62382 123.06548 126.97954 130.92157 135.91782 139.83188 142.60779 147.60403 153.68745 157.57353 161.48759 166.48384 169.25975 174.81158 177.58749 183.13931 191.44307 196.43932 205.29866 210.85048 215.84673 221.39856 226.94038 230.27089 234.71254 239.70879 245.26062 249.20265 253.08873 257.00278 262.55463 266.99628 270.88235 275.32401 284.18335 290.01498 295.0112 298.95325 301.72916 305.61523 308.39114 313.38739 318.93924 322.88126">threenaturaldefenses:adversarialtrainingonhand-constructedpositions,</tspan></text>
<text
       id="text124"
       style="font-variant:normal;font-weight:normal;font-size:9.96259975px;font-family:LMRoman10;-inkscape-font-specification:LMRoman10-Regular;writing-mode:lr-tb;fill:#000000;fill-opacity:1;fill-rule:nonzero;stroke:none"
       transform="matrix(0.98,0,0,-1,143.866,454.169)"><tspan
         id="tspan122"
         y="0"
         x="0 2.7676103 6.6420655 11.070441 14.972792 19.954092 23.828547 28.256922 36.352531 41.333832 46.869053 51.838398 56.266773 60.169125 64.099365 69.080666 72.983017 75.750626 80.731926 86.059929 89.93438 93.836731 98.818031 101.58564 107.12086 109.88847 115.4237 120.40499 125.8924 130.87369 136.40892 144.50452 148.65395 154.18916 159.17047 164.70569 169.68698 172.45461 177.98982 185.53151 189.40596 194.93121 201.91998 207.4552 211.88358 215.47908 222.39513 227.37642 231.27876 239.08746 244.06876 247.9711 252.12053 257.65576 260.42337 264.29782 268.7262 273.15457 277.02902 282.56424 286.46658 290.89496 297.8967 307.28943 314.2782 319.81342 325.34863">iteratedadversarialtraining,andchangingthenetworkarchitecture.Wefnd</tspan></text>
<text
       id="text128"
       style="font-variant:normal;font-weight:normal;font-size:10.04230118px;font-family:LMRoman10;-inkscape-font-specification:LMRoman10-Regular;writing-mode:lr-tb;fill:#000000;fill-opacity:1;fill-rule:nonzero;stroke:none"
       transform="matrix(1,0,0,-0.99206349,143.866,443.26)"><tspan
         id="tspan126"
         y="0"
         x="0 3.9054508 9.4849529 13.948756 17.910444 25.698248 34.066498 38.5303 42.435749 48.015251 53.307545 58.887047 66.182777 71.762283 75.695854 80.435814 85.736145 88.525894 94.1054 101.8932 110.23835 115.81786 120.839 124.77258 128.67802 131.46777 136.48892 142.61272 148.18217 152.64598 155.7149 160.17871 165.75822 169.71991 174.1837 180.3075 185.87697 191.45647 198.69595 204.27547 207.06522 211.0269 215.49071 220.23067 225.24982 229.71361 236.98123 240.94292 245.39667 250.42586 254.88966 258.82324 263.84439 269.95813 275.25845 280.83795 285.8591 288.64886 291.43863 295.34406 300.3652 304.27066 307.06042 312.07956 316.54337 319.33313">thesemethodsprovideapartialdefense,butdiscoverseveralqualitatively</tspan></text>
<text
       id="text132"
       style="font-variant:normal;font-weight:normal;font-size:10.16185188px;font-family:LMRoman10;-inkscape-font-specification:LMRoman10-Regular;writing-mode:lr-tb;fill:#000000;fill-opacity:1;fill-rule:nonzero;stroke:none"
       transform="matrix(1,0,0,-0.98039216,143.866,432.351)"><tspan
         id="tspan130"
         y="0"
         x="0 5.645925 8.4688873 12.477738 16.429682 19.252645 24.898569 29.415512 37.096855 42.177784 47.823708 52.912762 57.429707 61.410103 65.418953 70.499878 74.480278 77.303238 82.384163 88.946693 92.955544 96.907486 100.88789 105.96881 109.92075 114.4377 119.51862 122.34158 126.85853 134.59677 138.54872 144.19464 149.27557 156.96709 161.48402 166.56494 171.93651 175.88844 178.71141 184.0728 189.71873 197.97523 201.92717 210.74767 216.66795 221.18491 226.26582 233.95734 239.03825 244.68419 252.39398 258.03992 262.55685 265.66232 270.17926 275.8252 281.4711 285.98804 295.37354 300.45447 305.5354 310.05234 315.41373 319.36566 323.37451">distinctadversarialstrategiesthatcontinuetobeatourdefendedagents.</tspan></text>
<text
       id="text136"
       style="font-variant:normal;font-weight:normal;font-size:9.96259975px;font-family:LMRoman10;-inkscape-font-specification:LMRoman10-Regular;writing-mode:lr-tb;fill:#000000;fill-opacity:1;fill-rule:nonzero;stroke:none"
       transform="matrix(0.99,0,0,-1,143.866,421.441)"><tspan
         id="tspan134"
         y="0"
         x="0 7.7489104 13.284131 20.533915 24.426302 28.854679 32.784924 38.320145 41.087753 44.962212 52.239891 56.170135 61.705357 66.686653 71.667953 76.096329 80.026581 87.238503 91.112961 96.648178 101.62948 108.85136 113.83266 117.98209 123.51731 126.28492 130.7133 135.97156 138.73917 144.27438 152.59315 156.49551 161.47681 167.01202 172.54726 176.47749 180.35194 185.88718 190.31555 194.24579 201.52347 204.28113 211.55881 215.70822 221.24344 226.22475 228.99236 231.75996 236.18834 241.72356 246.70486 249.47247 255.00769 263.32648 267.75485 272.73413 277.16251 286.04517 288.81277 297.68549 303.2207 308.202 312.10434 316.00668 320.70905">Ourresultssuggestthatachievingrobustnessischallengingeveninnarrow</tspan></text>
<text
       id="text140"
       style="font-variant:normal;font-weight:normal;font-size:9.96259975px;font-family:LMRoman10;-inkscape-font-specification:LMRoman10-Regular;writing-mode:lr-tb;fill:#000000;fill-opacity:1;fill-rule:nonzero;stroke:none"
       transform="matrix(1,0,0,-1,143.866,410.532)"><tspan
         id="tspan138"
         y="0"
         x="0 5.5352206 10.516521 18.818356 23.799656 26.567265 32.102486 39.350277 43.280521 48.815742 52.965168 61.817932 66.799232 74.056984 81.874641 86.855942">domainssuchasGo.</tspan></text>
<text
       id="text144"
       style="font-variant:normal;font-weight:bold;font-size:11.9552002px;font-family:LMRoman12;-inkscape-font-specification:LMRoman12-Bold;writing-mode:lr-tb;fill:#000000;fill-opacity:1;fill-rule:nonzero;stroke:none"
       transform="matrix(1,0,0,-1,108,375.803)"><tspan
         id="tspan142"
         y="0"
         x="0 20.1744 25.183628 32.285019 37.515419 43.008831 50.104244 57.576244 65.048241 71.025841 76.256241 79.992241 86.717041">1Introduction</tspan></text>
<text
       id="text148"
       style="font-variant:normal;font-weight:normal;font-size:9.96259975px;font-family:LMRoman10;-inkscape-font-specification:LMRoman10-Regular;writing-mode:lr-tb;fill:#000000;fill-opacity:1;fill-rule:nonzero;stroke:none"
       transform="matrix(0.989,0,0,-1,108,352.365)"><tspan
         id="tspan146"
         y="0"
         x="0 3.5974948 10.839309 13.606919 20.894562 25.322937 29.253181 33.18343 37.611805 42.868073 46.742527 49.510136 54.491436 60.626408 64.500862 70.026115 75.007416 82.249229 89.721184 96.686035 100.61628 105.87454 109.80479 113.67924 118.10762 126.40945 133.6971 140.61313 145.59444 149.49678 158.12241 162.02475 167.00606 172.54128 178.07649 182.00674 185.8812 188.6488 193.06024 199.19521 203.6236 207.55383 213.36801 217.79639 222.22476 224.99237 229.97366 232.74129 235.5089 244.13451 251.3295 256.86472 261.28314 270.1857 275.72095 280.14932 285.68454 288.45215 293.15448 298.13379 302.56216 311.45477 316.4361 323.67789 332.02655 335.95682 341.21707 345.64545 348.41306 352.84143 356.71588 361.69717 367.82217 371.75244 376.18082 381.16211 383.92972 391.72543 396.70676">ItisessentialthatAIsystemsworkrobustly,especiallywhendeployedatasocietalscaleor</tspan></text>
<text
       id="text152"
       style="font-variant:normal;font-weight:normal;font-size:9.96259975px;font-family:LMRoman10;-inkscape-font-specification:LMRoman10-Regular;writing-mode:lr-tb;fill:#000000;fill-opacity:1;fill-rule:nonzero;stroke:none"
       transform="matrix(0.98,0,0,-1,108,341.456)"><tspan
         id="tspan150"
         y="0"
         x="0 2.7676103 8.0238781 11.898334 16.32671 21.308008 25.21036 30.19166 34.066116 38.484528 46.948753 49.716362 54.97263 58.847084 66.757393 70.687637 75.668938 78.713509 83.141884 86.727425 91.98568 95.306213 99.734589 103.63694 106.40456 110.27901 113.04662 117.47499 122.45629 128.15291 132.08316 137.34142 141.27167 145.14612 149.57449 157.87633 161.80656 168.93781 176.1328 181.66801">integratedintosafety-criticalsystems.The</tspan></text>
<text
       id="text156"
       style="font-style:italic;font-variant:normal;font-size:9.96259975px;font-family:LMRoman10;-inkscape-font-specification:LMRoman10-Italic;writing-mode:lr-tb;fill:#000000;fill-opacity:1;fill-rule:nonzero;stroke:none"
       transform="matrix(0.98,0,0,-1,293.24,341.456)"><tspan
         id="tspan154"
         y="0"
         x="0 5.0918851 9.6746807 14.257477 17.940651 23.032536 27.615332 32.198128 35.762745 39.827484 44.919373 48.993076">average-case</tspan></text>
<text
       id="text160"
       style="font-variant:normal;font-weight:normal;font-size:9.96259975px;font-family:LMRoman10;-inkscape-font-specification:LMRoman10-Regular;writing-mode:lr-tb;fill:#000000;fill-opacity:1;fill-rule:nonzero;stroke:none"
       transform="matrix(0.98,0,0,-1,348.966,341.456)"><tspan
         id="tspan158"
         y="0"
         x="0 5.8141732 10.242549 14.144899 17.18947 22.170771 26.07312 34.374954 39.356255 44.891476 49.319851 56.677231 61.658531 67.632103 75.104057 81.62059 85.550842 90.809097 94.739342 98.6138 103.04218 111.34401 118.20326 120.97087 127.83012 131.73247 136.71378 142.24899 145.0166 150.55182 153.31943">performanceofAIsystemsisrapidly</tspan></text>
<text
       id="text164"
       style="font-variant:normal;font-weight:normal;font-size:10.16185188px;font-family:LMRoman10;-inkscape-font-specification:LMRoman10-Regular;writing-mode:lr-tb;fill:#000000;fill-opacity:1;fill-rule:nonzero;stroke:none"
       transform="matrix(1,0,0,-0.98039216,108,330.547)"><tspan
         id="tspan162"
         y="0"
         x="0 2.8229625 11.290833 16.936758 20.917156 25.723713 31.087137 33.910099 39.556026 44.636951 51.260445 56.906372 62.552296 70.213318 75.859238 81.505165 84.328133 87.151093 92.79702 95.61998 101.26591 110.05591 114.06476 119.42818 123.43703 127.38898 131.90591 140.37379 148.09172 155.4306 158.25357 162.20552 171.56052 176.64143 181.99673 187.35204">improving,butbuildingsystemswithgood</tspan></text>
<text
       id="text168"
       style="font-style:italic;font-variant:normal;font-size:10.16185188px;font-family:LMRoman10;-inkscape-font-specification:LMRoman10-Italic;writing-mode:lr-tb;fill:#000000;fill-opacity:1;fill-rule:nonzero;stroke:none"
       transform="matrix(1,0,0,-0.98039216,304.708,330.547)"><tspan
         id="tspan166"
         y="0"
         x="0 6.7525506 11.946273 16.231525 20.386707 23.762474 27.398386 31.564745 36.758469 40.913647">worst-case</tspan></text>
<text
       id="text172"
       style="font-variant:normal;font-weight:normal;font-size:10.16185188px;font-family:LMRoman10;-inkscape-font-specification:LMRoman10-Regular;writing-mode:lr-tb;fill:#000000;fill-opacity:1;fill-rule:nonzero;stroke:none"
       transform="matrix(1,0,0,-0.98039216,354.36,330.547)"><tspan
         id="tspan170"
         y="0"
         x="0 5.9202948 10.437238 14.417636 17.523098 22.604023 26.584421 35.052292 40.133217 45.779144 50.296085 58.522106 62.502502 67.019447 75.48732 80.568245 83.391205 89.037132 96.755058 101.83598 111.19099 116.83691 122.48283 126.49168 131.57262 134.39557 139.47447 143.99141">performanceremainsanunsolved</tspan></text>
<text
       id="text176"
       style="font-variant:normal;font-weight:normal;font-size:10.08215141px;font-family:LMRoman10;-inkscape-font-specification:LMRoman10-Regular;writing-mode:lr-tb;fill:#000000;fill-opacity:1;fill-rule:nonzero;stroke:none"
       transform="matrix(1,0,0,-0.98814229,108,319.638)"><tspan
         id="tspan174"
         y="0"
         x="0 5.6016431 9.5508223 14.591897 20.193541 22.994362 27.475878 35.877335 43.124386 50.265572 55.306648 59.227596 68.156349 72.133759 77.735405 83.619347 88.100861 92.050041 97.369385 102.97102 111.37248 116.41356 125.34232 133.25377 141.62196 145.59937 150.92073 154.89813 158.81909 163.3006 171.70206 179.00658 181.8074 186.84848 191.88956 198.01749 203.05856 208.6602 217.58896 221.56636 225.4873 230.52838 234.44934 238.93085 242.29123 247.33231 250.41341 253.77379 257.69473 263.29639 267.77789 271.13828 276.17935 280.12854 287.37659 290.17743 295.21851 300.82013 305.86121 311.46286 316.50394 321.54501 329.35364 337.7551 343.07846 348.68011 353.16162 355.96243 363.26697 366.06778 371.10886 376.14993 382.27786 385.35898 390.40005 393.20087">problem.BothsuperhumanGosystems[39]andstate-of-the-artlanguagemodels[50]fail</tspan></text>
<text
       id="text180"
       style="font-variant:normal;font-weight:normal;font-size:10.16185188px;font-family:LMRoman10;-inkscape-font-specification:LMRoman10-Regular;writing-mode:lr-tb;fill:#000000;fill-opacity:1;fill-rule:nonzero;stroke:none"
       transform="matrix(1,0,0,-0.98039216,108,308.728)"><tspan
         id="tspan178"
         y="0"
         x="0 4.516943 9.5978689 13.549813 18.630739 22.639589 26.591534 30.571932 35.652859 41.298782 46.944706 49.76767 54.284615 59.36554 62.188503 65.011467 73.850243 78.931168 88.052444 93.133377 98.779297 103.85819 108.37514 112.35553 116.36438 121.44531 125.4257 128.24867 133.32959 139.62791 142.45087 148.0968 153.74272 159.38864 163.34059 167.34944 175.06026 182.39914 188.04507 192.56201 196.57086 204.56316 208.54356 213.0605 217.06935 222.71527 225.53824 229.49019 236.96423 240.97308 246.619 251.69994 256.78085 261.29779 265.30664 272.73395 276.68588 282.33182 287.41275 294.84003 299.64661 304.73566 309.25259 313.233 318.3139 323.39484 327.91177 331.29874 335.81567 340.89661 344.90546 352.88757 357.40454 362.48544 368.13138 373.21231 378.85825 381.68118 384.50415 387.32712 391.0047">catastrophicallyonadversarialinputs.Theseresultssuggestthataverage-casecapability</tspan></text>
<text
       id="text184"
       style="font-variant:normal;font-weight:normal;font-size:10.16185188px;font-family:LMRoman10;-inkscape-font-specification:LMRoman10-Regular;writing-mode:lr-tb;fill:#000000;fill-opacity:1;fill-rule:nonzero;stroke:none"
       transform="matrix(1,0,0,-0.98039216,108,297.819)"><tspan
         id="tspan182"
         y="0"
         x="0 5.645925 11.001221 15.518165 23.469814 29.115738 34.196663 42.10157 44.92453 49.441475 54.5224 64.111122 68.063072 77.086792 81.067192 86.148117 91.794044 97.439964 101.44881 105.40076 111.04668 115.56363 119.57248 127.52413 132.89569 142.2019 147.84784 152.36478 155.47025 160.55116 166.19708 169.02005 172.972 181.47543 187.12135 191.63831 197.28423 200.10719 204.62413 209.70506 213.657 218.17395 227.76266 232.27962 238.20702 243.28795 247.26834 255.16309 257.98605 265.94788 269.92825 274.44519 279.80862 285.4444 288.26736 292.24774 296.76468 306.36359 310.31552 319.33923 327.80713 332.88803 337.97711 346.43683 354.05823 361.67047 365.67932 371.04276 375.05161 379.00354 383.52048 391.98837">doesnotleadtorobustnessbydefault:dedicatedefortisrequiredtomakeAIsystems</tspan></text>
<text
       id="text188"
       style="font-variant:normal;font-weight:normal;font-size:9.96259975px;font-family:LMRoman10;-inkscape-font-specification:LMRoman10-Regular;writing-mode:lr-tb;fill:#000000;fill-opacity:1;fill-rule:nonzero;stroke:none"
       transform="matrix(1,0,0,-1,108,286.91)"><tspan
         id="tspan186"
         y="0"
         x="0 3.9023504 8.8836508 14.418871 19.954092 23.884336 27.758793">robust.</tspan></text>
<text
       id="text192"
       style="font-variant:normal;font-weight:normal;font-size:10.02237606px;font-family:LMRoman10;-inkscape-font-specification:LMRoman10-Regular;writing-mode:lr-tb;fill:#000000;fill-opacity:1;fill-rule:nonzero;stroke:none"
       transform="matrix(1,0,0,-0.99403579,108,270.522)"><tspan
         id="tspan190"
         y="0"
         x="0 7.5167818 13.085214 16.148052 21.159239 25.085005 28.982706 34.551136 40.119568 45.130756 49.028458 53.483406 56.26762 60.725574 66.817177 71.828362 77.39679 84.629944 90.198372 95.766808 101.33524 104.10943 109.67786 114.68905 121.95026 125.90409 131.47252 136.4837 141.4949 145.94984 149.90367 157.10875 162.67719 168.24562 171.02983 173.81406 179.38248 182.1667 187.73514 196.04369 199.96945 204.98064 210.54906 216.11749 220.07132 227.27641 234.7932 241.71965 245.67348 250.96329 254.91711 258.81482 263.26978 271.6214 278.87259 286.11075 288.89499 291.6792 297.77078 303.61984 311.37216 315.55649 321.12494 326.13611 328.92035 331.70456 336.15948 341.72794 346.73911 349.52335 355.08176 360.09293 367.30704 370.92612 379.7919 383.68961 389.25806 392.04227">Unfortunately,ourfndingssuggestbuildingrobustAIsystemswillbechallenging.Inthis</tspan></text>
<text
       id="text196"
       style="font-variant:normal;font-weight:normal;font-size:10.1518898px;font-family:LMRoman10;-inkscape-font-specification:LMRoman10-Regular;writing-mode:lr-tb;fill:#000000;fill-opacity:1;fill-rule:nonzero;stroke:none"
       transform="matrix(1,0,0,-0.98135427,108,259.613)"><tspan
         id="tspan194"
         y="0"
         x="0 5.6403899 10.716334 16.630825 21.143339 25.119835 31.259697 38.317291 46.149475 50.154396 54.666908 59.169273 67.847107 71.795174 80.190788 88.65036 93.726303 98.810371 106.64256 110.59062 116.23101 124.06319 128.06812 133.70851 139.623 144.13551 148.112 153.47829 159.10854 167.5681 172.64404 181.60411 189.5703 197.9659 205.57982 212.56534 220.46147 225.53741 229.48549 234.56143 242.52762 250.92323 253.74342 258.81937 263.89532 270.03519 274.01169 279.08762 284.728 290.36841 294.37332 298.32138 305.56781 309.23364 318.19373 323.83411 327.81061 330.6308 335.70673 343.0029 350.05035 355.12628 359.10278 364.46094 370.6008 380.21262 385.28857 390.91879">paper,weseektomakethesuperhumanGoAIKataGo[47]robust.Inpriorwork,Wang</tspan></text>
<text
       id="text200"
       style="font-variant:normal;font-weight:normal;font-size:10.09211349px;font-family:LMRoman10;-inkscape-font-specification:LMRoman10-Regular;writing-mode:lr-tb;fill:#000000;fill-opacity:1;fill-rule:nonzero;stroke:none"
       transform="matrix(1,0,0,-0.98716683,108,248.704)"><tspan
         id="tspan198"
         y="0"
         x="0 4.4859447 11.731073 16.77713 19.580719 25.694521 28.498112 33.544167 38.590225 44.714119 48.917484 54.524662 59.010609 64.056664 69.663841 72.46743 81.114357 84.198509 89.24456 94.851738 100.45892 109.37631 114.42237 120.02955 125.08368 129.56963 133.52271 137.50404 142.55009 146.50317 149.30676 154.35283 160.46663 164.44797 168.37279 172.32587 177.37193 181.29675 185.7827 190.82875 193.63234 198.11829 205.41994 209.34476 214.95193 219.99799 227.23303 233.12279 237.60873 242.65479 249.88982 258.2562 262.23752 267.8447 273.72437 278.2103 282.16339 287.49808 293.09515 301.50491 306.55099 315.47845 320.53259 325.01855 328.97162 332.95297 335.75656 340.80261 349.72 354.76605 361.1705 369.02017 374.06622 377.99103 383.03711 390.95639">etal.[39]cheaplyfoundadversarialstrategiesthatbeatasuperhumanversionofKataGo</tspan></text>
<text
       id="text204"
       style="font-variant:normal;font-weight:normal;font-size:10.16185188px;font-family:LMRoman10;-inkscape-font-specification:LMRoman10-Regular;writing-mode:lr-tb;fill:#000000;fill-opacity:1;fill-rule:nonzero;stroke:none"
       transform="matrix(1,0,0,-0.98039216,108,237.794)"><tspan
         id="tspan202"
         y="0"
         x="0 8.4678717 13.548798 17.529194 25.531652 29.483597 35.129524 40.210449">morethan</tspan></text>
<text
       id="text208"
       style="font-variant:normal;font-weight:normal;font-size:10.16185188px;font-family:LMRoman10;-inkscape-font-specification:LMRoman10-Regular;writing-mode:lr-tb;fill:#000000;fill-opacity:1;fill-rule:nonzero;stroke:none"
       transform="matrix(1,0,0,-0.98039216,157.341,237.794)"><tspan
         id="tspan206"
         y="0"
         x="0 5.0809259 10.161852">97%</tspan></text>
<text
       id="text212"
       style="font-variant:normal;font-weight:normal;font-size:10.16185188px;font-family:LMRoman10;-inkscape-font-specification:LMRoman10-Regular;writing-mode:lr-tb;fill:#000000;fill-opacity:1;fill-rule:nonzero;stroke:none"
       transform="matrix(1,0,0,-0.98039216,179.457,237.794)"><tspan
         id="tspan210"
         y="0"
         x="0 5.0809259 11.671904 15.623847 21.269772 29.27223 33.224174 36.047138 44.515007 49.031952 56.773251 62.419174 65.242142 70.888062 75.405006 83.407463 88.488388 93.569321 102.03719 106.55413 109.94108 115.587 118.40997 123.21652 128.57994 131.40291 137.04883 145.61528 153.23666 156.90611 164.40047 167.22343 170.0464 175.12529 183.12775 191.03165 196.11256 200.06451 205.14543 213.11945 221.69604 228.7504 233.26735 237.24774 245.2502 250.89613 255.97705 263.41452 269.06042 273.57739 277.58624 280.40918 285.49011 291.13605 295.65298 304.78442 312.12332 314.94629 318.89822">ofthetime.Sincegame-playingAIslikeKataGowerenotdesignedwith</tspan></text>
<text
       id="text216"
       style="font-variant:normal;font-weight:normal;font-size:9.99248791px;font-family:LMRoman10;-inkscape-font-specification:LMRoman10-Regular;writing-mode:lr-tb;fill:#000000;fill-opacity:1;fill-rule:nonzero;stroke:none"
       transform="matrix(1,0,0,-0.99700897,108,226.885)"><tspan
         id="tspan214"
         y="0"
         x="0 3.9420364 8.3836975 12.825358 18.377184 22.291243 25.067156 28.673443 37.274979 40.040897 48.920223 57.246964 60.022877 65.574699 71.126526 77.219948 84.166725 91.925888 94.701805 99.973839 104.97808 109.40974 113.35178 117.23786 120.01378 125.01002 130.00626 133.89235 141.6615 145.54758 151.09941 155.01346 159.45512 167.21429 172.76611 177.76236 181.64844 187.20027 191.11432 196.11057 202.20398 207.75581 212.19748 215.25117 219.69284 225.24466 229.18671 233.62836 240.8979 243.9416 248.93785 256.17941 263.95157 268.94781 272.83389 277.83014 285.67123 290.66748 297.87006 307.31097 315.08014 320.63196 326.18378 335.0531 338.93918 344.49103 348.93268 352.87473 360.63388 366.1857 370.62738 373.68106 378.12274 383.67456 387.61661 392.05826">securityinmind,weinvestigatethreenaturaldefensesforKataGo.Wefndthesedefenses</tspan></text>
<text
       id="text220"
       style="font-variant:normal;font-weight:normal;font-size:10.05226326px;font-family:LMRoman10;-inkscape-font-specification:LMRoman10-Regular;writing-mode:lr-tb;fill:#000000;fill-opacity:1;fill-rule:nonzero;stroke:none"
       transform="matrix(1,0,0,-0.99108028,108,215.976)"><tspan
         id="tspan218"
         y="0"
         x="0 8.3765507 13.402683 18.426804 26.222334 34.040985 39.067116 42.97644 48.002575 55.890583 64.244019 72.620567 77.646698 81.584167 89.3797 93.317169 98.3433 103.92834 109.51338 113.479 117.38832 123.50814 129.09317 133.5614 136.63338 141.10161 146.68665 152.27168 155.06421 160.64925 168.99261 174.01875 179.04489 184.07101 186.86354 192.44858 196.41418 203.65082 207.56013 213.14517 220.9407 225.96684 231.55188 236.576 241.04424 244.9817 248.94731 253.97345 257.91092 266.54379 269.61578 273.55325 278.57938 290.28323 299.78061 304.80673 310.39178 318.74521 323.21344 330.45007 335.4762 338.26871 344.38852 347.18106 352.20718 357.23331 360.02585 366.14566 371.73068 377.31573 384.55234 391.53064">makeKataGomorerobust,defendingagainsttheadversaryfromWangetal.[39],butwe</tspan></text>
<text
       id="text224"
       style="font-variant:normal;font-weight:normal;font-size:9.96259975px;font-family:LMRoman10;-inkscape-font-specification:LMRoman10-Regular;writing-mode:lr-tb;fill:#000000;fill-opacity:1;fill-rule:nonzero;stroke:none"
       transform="matrix(0.995,0,0,-1,108,205.067)"><tspan
         id="tspan222"
         y="0"
         x="0 4.9812999 8.8836508 16.65946 21.64076 27.17598 29.94359 37.709438 41.583893 49.912624 53.787083 57.68943 62.670731 65.438339 74.320999 79.856216 84.284592 94.827019 99.808319 105.33357 110.32285 114.75122 118.64361 122.57385 127.55515 131.4575 134.22511 139.20642 145.32146 150.30276 155.28406 159.71243 164.9687 168.84315 176.12083 179.99529 185.53052 190.51181 197.7337 202.16208 207.42033 212.94559 215.71321 220.6945 223.46211 230.68401 234.55846 240.09367 247.86949 253.40471 257.8331 260.87766 265.30603 270.84125 276.37646 280.80484 289.67755 294.65686 299.08524 302.98758 306.91782 309.68542 314.66672 320.20193 327.47961 332.46094 338.85294 346.60184 351.58313 355.45761 360.4389 368.25656 373.23785 380.47867 384.07617 391.28809 394.05569">areabletotrainnewadversarialagentsthatexploitthedefendedversionsofKataGo.Itis</tspan></text>
<text
       id="text228"
       style="font-variant:normal;font-weight:normal;font-size:9.96259975px;font-family:LMRoman10;-inkscape-font-specification:LMRoman10-Regular;writing-mode:lr-tb;fill:#000000;fill-opacity:1;fill-rule:nonzero;stroke:none"
       transform="matrix(1,0,0,-1,108,194.158)"><tspan
         id="tspan226"
         y="0"
         x="0 5.5352206 10.516521 14.418871 19.954092 24.382467 31.602364 35.476818 43.775665 49.310886 53.739262 56.783833 61.212208 66.747429 75.610153 83.427811 91.726654 99.198601 102.7961 110.04389 113.91834 119.45357 124.43487 133.28763 137.16209 145.4709 150.45219 154.32664 158.20111 163.1824 167.33183 175.90764 179.78209 185.31731 189.74568 198.04752">hardertodefendGoAIsthantoattackthem.</tspan></text>
<text
       id="text232"
       style="font-variant:normal;font-weight:normal;font-size:10.01241302px;font-family:LMRoman10;-inkscape-font-specification:LMRoman10-Regular;writing-mode:lr-tb;fill:#000000;fill-opacity:1;fill-rule:nonzero;stroke:none"
       transform="matrix(1,0,0,-0.99502488,107.492,177.77)"><tspan
         id="tspan230"
         y="0"
         x="0 9.4597282 17.234367 22.518919 25.300367 29.740871 40.295956 45.858852 51.421749 54.203197 56.984646 62.547543 65.328995 70.891891 79.212204 87.542534 95.399269 103.71959 111.2289 118.1685 122.06232 127.62522 132.63142 139.83937 142.62082 149.89484 155.72807 160.73427 164.6281 173.51512 177.46501 183.02791 188.86115 193.31166 197.23352 202.52608 208.08897 216.43233 221.43854 230.31554 235.32175 240.88464 249.77165 253.6835 258.68973 264.25262 269.81552 273.76541 280.98334 285.98956 293.25357 301.58389 307.14679 312.15298 316.04681 321.60971 325.53159 330.53778 336.63333 340.58325 344.47708 349.48328 353.40515 357.29895 360.08041 365.64331 373.97363 379.80688 384.81308 387.59451 392.88708">WeviewbuildingaGoAIthatisbothsuperhumanandrobustasanaturalstartingpoint</tspan></text>
<text
       id="text236"
       style="font-variant:normal;font-weight:normal;font-size:9.98252487px;font-family:LMRoman10;-inkscape-font-specification:LMRoman10-Regular;writing-mode:lr-tb;fill:#000000;fill-opacity:1;fill-rule:nonzero;stroke:none"
       transform="matrix(1,0,0,-0.99800399,108,166.86)"><tspan
         id="tspan234"
         y="0"
         x="0 3.0506597 8.0419226 15.256293 19.138496 24.684788 32.436218 37.98251 42.40976 46.347866 49.121014 54.112274 62.972763 67.964027 74.318901 78.229057 83.220322 88.766609 94.312904 98.251007 105.43743 112.92432 119.84321 123.78132 129.05009 132.9882 136.87041 141.29765 149.61609 156.86839 165.18683 170.1781 174.08826 181.8297 187.37599 191.28615 196.2774 201.26868 206.81496 209.5881 214.02834 221.22374 224.82843 230.37473 234.31282 237.08597 242.07724 247.34401 251.22621 258.46854 264.29434 268.73157 274.27786 277.05103 282.59729 291.44781 298.93469 301.70786 307.25415 312.80045 317.79169 325.62497 333.92047 336.6936 341.68488 346.67612 352.76349 358.30975 363.02151 368.01077 375.76221 381.57803 386.01526 390.45248">forthedesignofrobustAIsystemsmorebroadly.InsightsbehindAlphaGo[31]havebeen</tspan></text>
<text
       id="text240"
       style="font-variant:normal;font-weight:normal;font-size:10.16185188px;font-family:LMRoman10;-inkscape-font-specification:LMRoman10-Regular;writing-mode:lr-tb;fill:#000000;fill-opacity:1;fill-rule:nonzero;stroke:none"
       transform="matrix(1,0,0,-0.98039216,108,155.951)"><tspan
         id="tspan238"
         y="0"
         x="0 5.0809259 9.5978689 15.243794 19.760736 23.741135 28.822062 31.645023 34.467987 38.984928 43.501873 52.88736 56.839302 65.65979 74.49044 81.82933 84.65229 90.298218 98.554718 103.36941 108.45033 112.42057 115.24353 119.76048 123.43805 132.55119 137.63213 144.47714 148.42909 153.51001 157.51888 162.88229 170.63071 174.58266 180.22858 184.20897 189.2899 194.93582 200.01675 209.40224 214.48315 217.30612 222.38705 227.46797 231.44838 234.27133 238.22328 243.8692 252.33708 260.09564 262.91861 265.73141 270.82047 279.08713 288.4025 294.04843 300.25833 304.76511 308.74551 317.57617 320.39914 325.48004 330.56097 333.38394 341.89755 349.87155 354.95248 357.77545 365.52383 371.16977 376.2507 380.23111 384.21149 389.01804">generalizedtoawidevarietyoftasksthroughalgorithmslikeMuZero[28].Go’snarrow</tspan></text>
<text
       id="text244"
       style="font-variant:normal;font-weight:normal;font-size:9.96259975px;font-family:LMRoman10;-inkscape-font-specification:LMRoman10-Regular;writing-mode:lr-tb;fill:#000000;fill-opacity:1;fill-rule:nonzero;stroke:none"
       transform="matrix(1,0,0,-1,108,145.042)"><tspan
         id="tspan242"
         y="0"
         x="0 5.5352206 10.516521 18.818356 23.799656 26.567265 35.420033 38.187641 40.955254 49.257088 52.024696 55.899151 63.146942 67.0214 72.556618 80.302544 84.232788 88.661163 93.642464 99.456635 107.20256 112.18386 118.54597 124.36015 129.34145 133.2717 137.20193 139.96954 145.50478 148.27238 156.0183 160.9996 164.87405 168.7485 173.72981 177.87923 183.1375 187.06773 193.15289 201.45473 206.43604 211.69429 214.4619 219.99712 228.30592 231.07355 238.26555 242.69392 247.67522 251.60547 254.37308 258.80145 266.02133 269.89581 278.19464 283.72986 289.26508 292.03268 294.80029 303.65308 311.95193 315.85428 320.83557 326.37079 331.90601 335.83624 343.02826 346.9585 352.21677 356.147 360.02145 364.44983 376.07919 379.95364 385.47888 390.46021">domainlimitsthescopeofpossibleattacks,makingiteasiertobuildarobustsystemthan</tspan></text>
<text
       id="text248"
       style="font-variant:normal;font-weight:normal;font-size:10.16185188px;font-family:LMRoman10;-inkscape-font-specification:LMRoman10-Regular;writing-mode:lr-tb;fill:#000000;fill-opacity:1;fill-rule:nonzero;stroke:none"
       transform="matrix(1,0,0,-0.98039216,108,134.133)"><tspan
         id="tspan246"
         y="0"
         x="0 3.1054621 8.186388 15.794566 24.262438 29.343365 33.323761 41.458324 46.539249 52.469707 56.986649 62.622414 66.019524 70.526299 76.172226 81.818153 86.335098 95.608803 99.560745 104.64167 108.65052 114.01395 118.0228 126.1909 131.99127 137.63721 141.6176 145.56955 151.21547 155.73242 159.71281 168.18068 173.26161 177.242 181.75896 188.28082 195.34535 203.4799 210.54443 215.62535 221.27129 224.09424 233.36795 237.88489 243.24832 249.16861 253.68555 258.20248 265.78223 269.73416 275.3801 283.51465 287.5235 293.16943 299.08972 303.60666 307.58707 312.95862 318.60455 327.07242 332.15335 341.42706 346.22345 351.3125 355.82944 359.80984 364.89078 369.97168 374.48865 377.87558 382.39252 387.47345 391.4823">formoreopen-endedtasks.Furthermore,wewouldexpectthesuperhumanaverage-case</tspan></text>
<text
       id="text252"
       style="font-variant:normal;font-weight:normal;font-size:9.96259975px;font-family:LMRoman10;-inkscape-font-specification:LMRoman10-Regular;writing-mode:lr-tb;fill:#000000;fill-opacity:1;fill-rule:nonzero;stroke:none"
       transform="matrix(0.98,0,0,-1,108,123.224)"><tspan
         id="tspan250"
         y="0"
         x="0 4.4283757 9.4096756 14.944897 19.926197 25.461416 28.229027 30.996637 33.764248 37.638702 40.406315 44.83469 51.534538 56.515839 62.339973 66.768349 72.303566 76.205917 80.108269 84.536644 89.792915 96.436974 104.25462 112.01549 115.94573 121.20399 125.13424 129.0087 133.43707 141.73891 148.44872 152.32317 160.08405 163.9585 167.86084 172.84215 178.37737 182.30762 185.07523 190.05652 193.93097 201.12895 208.045 212.47337 215.24098 220.78815 224.66261 232.42348 239.32954 244.31085 248.2132 252.14345 256.01788 259.33844 263.76682 268.74811 272.67834 279.88629 283.78864 288.76996 294.30518 299.84039 303.77063 307.64508 313.1803 317.60867 321.53894 325.4592 332.44101 340.25867 348.01953 350.78714 357.49695 365.25781 369.68619 374.11456 378.01691 382.9982 386.31876 390.24899 395.77426">capabilitiesofcurrentGosystemstotranslatewelltoworst-caserobustness:Goisazero-sum</tspan></text>
<text
       id="text256"
       style="font-variant:normal;font-weight:normal;font-size:10.16185188px;font-family:LMRoman10;-inkscape-font-specification:LMRoman10-Regular;writing-mode:lr-tb;fill:#000000;fill-opacity:1;fill-rule:nonzero;stroke:none"
       transform="matrix(1,0,0,-0.98039216,108,112.315)"><tspan
         id="tspan254"
         y="0"
         x="0 5.0809259 10.161852 18.629723 23.146666 29.394173 33.403023 41.888168 46.405113 51.494167 56.011112 59.981346 68.748993 73.829918 79.475845 85.406303 90.487228 96.133156 100.63993 106.01149 113.36765 116.19061 123.60368 127.55563 136.04077 140.04962 145.13055 153.59842 161.51959 167.16551 171.68246 176.76338 180.74377 185.26073 193.18188 198.26282 207.31296 212.39389 218.02965 223.1187 227.63565 231.61604 235.62489 240.70583 244.68622 249.21637 255.46388 260.5448 266.19073 275.24088 279.24973 284.33066 287.15363 292.79953 296.7515 299.57443 304.65536 313.70551 318.22247 323.30338 328.94931 333.46625 337.98318 343.62912 347.58105 354.99414 357.81711 360.64008 365.71896 373.64011 381.26151 386.34244 390.35129">game,soeveryopponentistosomedegreeanadversary,andsolutionconceptslikeNash</tspan></text>
<text
       id="text260"
       style="font-variant:normal;font-weight:normal;font-size:10.16185188px;font-family:LMRoman10;-inkscape-font-specification:LMRoman10-Regular;writing-mode:lr-tb;fill:#000000;fill-opacity:1;fill-rule:nonzero;stroke:none"
       transform="matrix(1,0,0,-0.98039216,108,101.406)"><tspan
         id="tspan258"
         y="0"
         x="0 4.516943 9.8803682 15.526294 18.349257 21.172218 23.995182 29.641106 33.621502 36.444466 44.90929 53.377159 56.200123 61.846046 64.669006 73.136879 75.959846 80.476784 88.387787 92.894569 98.257996 103.90392 106.72688 111.80781 114.63077 118.58272 123.66364 129.30957 132.13252 134.95549 137.77846 141.45602 145.98618 153.44295 160.78185 166.42776 169.25073 176.65364 179.47659 186.86934 189.69231 198.72212 203.23907 208.31999 213.69156 217.64349 221.6239 226.70482 230.71367 238.05968 242.01161 250.47644 255.55737 259.50931 265.15524 269.67218 277.03647 285.50433 290.58527 294.82785 300.47375 303.29672 308.94266 316.84351 319.66647 324.18341 329.26434 333.24472 338.89066 341.71362 347.35953 355.83453 361.48044 365.46085 370.54178 376.18768 379.01065 383.52759 391.99548">equilibriaminimizeexploitability.Thisisincontrasttoothermachinelearningproblems</tspan></text>
<g
       transform="translate(108,91.385)"
       id="g262"><path
         id="path264"
         style="fill:none;stroke:#000000;stroke-width:0.398;stroke-linecap:butt;stroke-linejoin:miter;stroke-miterlimit:10;stroke-dasharray:none;stroke-opacity:1"
         d="M 0,0 H 143.462" /></g><text
       id="text268"
       style="font-variant:normal;font-weight:normal;font-size:5.9776001px;font-family:LMMathSymbols6;-inkscape-font-specification:LMMathSymbols6-Regular;writing-mode:lr-tb;fill:#000000;fill-opacity:1;fill-rule:nonzero;stroke:none"
       transform="matrix(1,0,0,-1,120.271,85.779)"><tspan
         id="tspan266"
         y="0"
         x="0">∗</tspan></text>
<text
       id="text274"
       style="font-variant:normal;font-weight:normal;font-size:8.96640015px;font-family:LMRoman9;-inkscape-font-specification:LMRoman9-Regular;writing-mode:lr-tb;fill:#000000;fill-opacity:1;fill-rule:nonzero;stroke:none"
       transform="matrix(1,0,0,-1,124.588,81.97)"><tspan
         id="tspan270"
         y="0"
         x="0 6.2711 11.134476 16.25429 20.862123 26.497505 31.105339 36.225151 41.088528 43.648434 47.283413 49.843323 54.963135 62.637478 66.73333 71.341164 76.209915 79.793785 83.398277 85.958183 91.078003 96.197815 99.781685 102.34159 106.94942 112.06924">Equaladvisingcontribution.</tspan><tspan
         id="tspan272"
         y="30.045"
         x="-16.587999 -10.3169 -6.7124071 -2.6129689 2.5068455 6.1113381 8.6712456 13.531034 17.114904 23.772457 30.682861 35.802673 40.922489 45.021927 51.701897 55.306389 59.405827 64.269203 66.829109 70.928551 77.584305">Preprint.Underreview.</tspan></text>
</g></svg>